G04 #@! TF.GenerationSoftware,KiCad,Pcbnew,(5.1.10)-1*
G04 #@! TF.CreationDate,2021-08-15T20:32:39-04:00*
G04 #@! TF.ProjectId,plate,706c6174-652e-46b6-9963-61645f706362,rev?*
G04 #@! TF.SameCoordinates,Original*
G04 #@! TF.FileFunction,Soldermask,Top*
G04 #@! TF.FilePolarity,Negative*
%FSLAX46Y46*%
G04 Gerber Fmt 4.6, Leading zero omitted, Abs format (unit mm)*
G04 Created by KiCad (PCBNEW (5.1.10)-1) date 2021-08-15 20:32:39*
%MOMM*%
%LPD*%
G01*
G04 APERTURE LIST*
%ADD10C,0.150000*%
%ADD11C,2.200000*%
%ADD12C,1.000000*%
G04 APERTURE END LIST*
D10*
X155302294Y-94815568D02*
X155302294Y-95815568D01*
X156873722Y-96011997D02*
X153873722Y-95636997D01*
X153873722Y-94208426D01*
X156873722Y-93011997D02*
X156730865Y-93279854D01*
X156588008Y-93404854D01*
X156302294Y-93511997D01*
X155445151Y-93404854D01*
X155159437Y-93226283D01*
X155016580Y-93065568D01*
X154873722Y-92761997D01*
X154873722Y-92333426D01*
X155016580Y-92065568D01*
X155159437Y-91940568D01*
X155445151Y-91833426D01*
X156302294Y-91940568D01*
X156588008Y-92119140D01*
X156730865Y-92279854D01*
X156873722Y-92583426D01*
X156873722Y-93011997D01*
X156873722Y-90726283D02*
X154873722Y-90476283D01*
X155445151Y-90547711D02*
X155159437Y-90369140D01*
X155016580Y-90208426D01*
X154873722Y-89904854D01*
X154873722Y-89619140D01*
X156730865Y-86708426D02*
X156873722Y-86297711D01*
X156873722Y-85583426D01*
X156730865Y-85279854D01*
X156588008Y-85119140D01*
X156302294Y-84940568D01*
X156016580Y-84904854D01*
X155730865Y-85011997D01*
X155588008Y-85136997D01*
X155445151Y-85404854D01*
X155302294Y-85958426D01*
X155159437Y-86226283D01*
X155016580Y-86351283D01*
X154730865Y-86458426D01*
X154445151Y-86422711D01*
X154159437Y-86244140D01*
X154016580Y-86083426D01*
X153873722Y-85779854D01*
X153873722Y-85065568D01*
X154016580Y-84654854D01*
X156730865Y-82422711D02*
X156873722Y-82726283D01*
X156873722Y-83297711D01*
X156730865Y-83565568D01*
X156588008Y-83690568D01*
X156302294Y-83797711D01*
X155445151Y-83690568D01*
X155159437Y-83511997D01*
X155016580Y-83351283D01*
X154873722Y-83047711D01*
X154873722Y-82476283D01*
X155016580Y-82208426D01*
X156873722Y-81154854D02*
X154873722Y-80904854D01*
X153873722Y-80779854D02*
X154016580Y-80940568D01*
X154159437Y-80815568D01*
X154016580Y-80654854D01*
X153873722Y-80779854D01*
X154159437Y-80815568D01*
X156730865Y-78565568D02*
X156873722Y-78869140D01*
X156873722Y-79440568D01*
X156730865Y-79708426D01*
X156445151Y-79815568D01*
X155302294Y-79672711D01*
X155016580Y-79494140D01*
X154873722Y-79190568D01*
X154873722Y-78619140D01*
X155016580Y-78351283D01*
X155302294Y-78244140D01*
X155588008Y-78279854D01*
X155873722Y-79744140D01*
X154873722Y-76904854D02*
X156873722Y-77154854D01*
X155159437Y-76940568D02*
X155016580Y-76779854D01*
X154873722Y-76476283D01*
X154873722Y-76047711D01*
X155016580Y-75779854D01*
X155302294Y-75672711D01*
X156873722Y-75869140D01*
X156730865Y-73136997D02*
X156873722Y-73440568D01*
X156873722Y-74011997D01*
X156730865Y-74279854D01*
X156588008Y-74404854D01*
X156302294Y-74511997D01*
X155445151Y-74404854D01*
X155159437Y-74226283D01*
X155016580Y-74065568D01*
X154873722Y-73761997D01*
X154873722Y-73190568D01*
X155016580Y-72922711D01*
X156730865Y-70708426D02*
X156873722Y-71011997D01*
X156873722Y-71583426D01*
X156730865Y-71851283D01*
X156445151Y-71958426D01*
X155302294Y-71815568D01*
X155016580Y-71636997D01*
X154873722Y-71333426D01*
X154873722Y-70761997D01*
X155016580Y-70494140D01*
X155302294Y-70386997D01*
X155588008Y-70422711D01*
X155873722Y-71886997D01*
D11*
X155496260Y-120484900D03*
D12*
X123000000Y-82000000D03*
D11*
X98500000Y-101500000D03*
X98500000Y-63500000D03*
X155500000Y-63500000D03*
M02*
