G04 #@! TF.GenerationSoftware,KiCad,Pcbnew,(5.1.10)-1*
G04 #@! TF.CreationDate,2021-08-15T20:32:39-04:00*
G04 #@! TF.ProjectId,plate,706c6174-652e-46b6-9963-61645f706362,rev?*
G04 #@! TF.SameCoordinates,Original*
G04 #@! TF.FileFunction,Copper,L2,Bot*
G04 #@! TF.FilePolarity,Positive*
%FSLAX46Y46*%
G04 Gerber Fmt 4.6, Leading zero omitted, Abs format (unit mm)*
G04 Created by KiCad (PCBNEW (5.1.10)-1) date 2021-08-15 20:32:39*
%MOMM*%
%LPD*%
G01*
G04 APERTURE LIST*
G04 #@! TA.AperFunction,SMDPad,CuDef*
%ADD10C,1.000000*%
G04 #@! TD*
G04 #@! TA.AperFunction,Conductor*
%ADD11C,0.254000*%
G04 #@! TD*
G04 #@! TA.AperFunction,Conductor*
%ADD12C,0.100000*%
G04 #@! TD*
G04 APERTURE END LIST*
D10*
X130000000Y-82000000D03*
D11*
X174254782Y-43713267D02*
X174499855Y-43787259D01*
X174725890Y-43907443D01*
X174924281Y-44069248D01*
X175087460Y-44266497D01*
X175209220Y-44491687D01*
X175284924Y-44736247D01*
X175315000Y-45022398D01*
X175315001Y-138966484D01*
X175286733Y-139254782D01*
X175212741Y-139499855D01*
X175092554Y-139725893D01*
X174930754Y-139924279D01*
X174733503Y-140087460D01*
X174508310Y-140209221D01*
X174263753Y-140284924D01*
X173977602Y-140315000D01*
X118033505Y-140315000D01*
X117745218Y-140286733D01*
X117500145Y-140212741D01*
X117274107Y-140092554D01*
X117075721Y-139930754D01*
X116912540Y-139733503D01*
X116790779Y-139508310D01*
X116715076Y-139263753D01*
X116685000Y-138977602D01*
X116685000Y-136033646D01*
X119315000Y-136033646D01*
X119317887Y-136062954D01*
X119317844Y-136069066D01*
X119318777Y-136078585D01*
X119339178Y-136272682D01*
X119351661Y-136333496D01*
X119363295Y-136394481D01*
X119366059Y-136403637D01*
X119423771Y-136590075D01*
X119447818Y-136647279D01*
X119471087Y-136704873D01*
X119475577Y-136713317D01*
X119568402Y-136884994D01*
X119603122Y-136936468D01*
X119637117Y-136988418D01*
X119643161Y-136995829D01*
X119767565Y-137146207D01*
X119811638Y-137189973D01*
X119855057Y-137234311D01*
X119862426Y-137240408D01*
X120013668Y-137363758D01*
X120065397Y-137398126D01*
X120116608Y-137433191D01*
X120125016Y-137437737D01*
X120125020Y-137437740D01*
X120125024Y-137437742D01*
X120297343Y-137529366D01*
X120354739Y-137553022D01*
X120411807Y-137577482D01*
X120420944Y-137580310D01*
X120607780Y-137636719D01*
X120668690Y-137648780D01*
X120729409Y-137661686D01*
X120738921Y-137662686D01*
X120933155Y-137681731D01*
X120933163Y-137681731D01*
X120966353Y-137685000D01*
X133033647Y-137685000D01*
X133062955Y-137682113D01*
X133069066Y-137682156D01*
X133078585Y-137681223D01*
X133272682Y-137660822D01*
X133333496Y-137648339D01*
X133394481Y-137636705D01*
X133403637Y-137633941D01*
X133590075Y-137576229D01*
X133647279Y-137552182D01*
X133704873Y-137528913D01*
X133713317Y-137524423D01*
X133884994Y-137431598D01*
X133936468Y-137396878D01*
X133988418Y-137362883D01*
X133995829Y-137356839D01*
X134146207Y-137232435D01*
X134189973Y-137188362D01*
X134234311Y-137144943D01*
X134240408Y-137137574D01*
X134363758Y-136986332D01*
X134398126Y-136934603D01*
X134433191Y-136883392D01*
X134437739Y-136874981D01*
X134437740Y-136874980D01*
X134437742Y-136874976D01*
X134529366Y-136702657D01*
X134553022Y-136645261D01*
X134577482Y-136588193D01*
X134580310Y-136579056D01*
X134636719Y-136392220D01*
X134648780Y-136331310D01*
X134661686Y-136270591D01*
X134662686Y-136261079D01*
X134681731Y-136066845D01*
X134681731Y-136066837D01*
X134685000Y-136033647D01*
X134685000Y-136033646D01*
X138315000Y-136033646D01*
X138317887Y-136062954D01*
X138317844Y-136069066D01*
X138318777Y-136078585D01*
X138339178Y-136272682D01*
X138351661Y-136333496D01*
X138363295Y-136394481D01*
X138366059Y-136403637D01*
X138423771Y-136590075D01*
X138447818Y-136647279D01*
X138471087Y-136704873D01*
X138475577Y-136713317D01*
X138568402Y-136884994D01*
X138603122Y-136936468D01*
X138637117Y-136988418D01*
X138643161Y-136995829D01*
X138767565Y-137146207D01*
X138811638Y-137189973D01*
X138855057Y-137234311D01*
X138862426Y-137240408D01*
X139013668Y-137363758D01*
X139065397Y-137398126D01*
X139116608Y-137433191D01*
X139125016Y-137437737D01*
X139125020Y-137437740D01*
X139125024Y-137437742D01*
X139297343Y-137529366D01*
X139354739Y-137553022D01*
X139411807Y-137577482D01*
X139420944Y-137580310D01*
X139607780Y-137636719D01*
X139668690Y-137648780D01*
X139729409Y-137661686D01*
X139738921Y-137662686D01*
X139933155Y-137681731D01*
X139933163Y-137681731D01*
X139966353Y-137685000D01*
X152033647Y-137685000D01*
X152062955Y-137682113D01*
X152069066Y-137682156D01*
X152078585Y-137681223D01*
X152272682Y-137660822D01*
X152333496Y-137648339D01*
X152394481Y-137636705D01*
X152403637Y-137633941D01*
X152590075Y-137576229D01*
X152647279Y-137552182D01*
X152704873Y-137528913D01*
X152713317Y-137524423D01*
X152884994Y-137431598D01*
X152936468Y-137396878D01*
X152988418Y-137362883D01*
X152995829Y-137356839D01*
X153146207Y-137232435D01*
X153189973Y-137188362D01*
X153234311Y-137144943D01*
X153240408Y-137137574D01*
X153363758Y-136986332D01*
X153398126Y-136934603D01*
X153433191Y-136883392D01*
X153437739Y-136874981D01*
X153437740Y-136874980D01*
X153437742Y-136874976D01*
X153529366Y-136702657D01*
X153553022Y-136645261D01*
X153577482Y-136588193D01*
X153580310Y-136579056D01*
X153636719Y-136392220D01*
X153648780Y-136331310D01*
X153661686Y-136270591D01*
X153662686Y-136261079D01*
X153681731Y-136066845D01*
X153681731Y-136066837D01*
X153685000Y-136033647D01*
X153685000Y-136033646D01*
X157315000Y-136033646D01*
X157317887Y-136062954D01*
X157317844Y-136069066D01*
X157318777Y-136078585D01*
X157339178Y-136272682D01*
X157351661Y-136333496D01*
X157363295Y-136394481D01*
X157366059Y-136403637D01*
X157423771Y-136590075D01*
X157447818Y-136647279D01*
X157471087Y-136704873D01*
X157475577Y-136713317D01*
X157568402Y-136884994D01*
X157603122Y-136936468D01*
X157637117Y-136988418D01*
X157643161Y-136995829D01*
X157767565Y-137146207D01*
X157811638Y-137189973D01*
X157855057Y-137234311D01*
X157862426Y-137240408D01*
X158013668Y-137363758D01*
X158065397Y-137398126D01*
X158116608Y-137433191D01*
X158125016Y-137437737D01*
X158125020Y-137437740D01*
X158125024Y-137437742D01*
X158297343Y-137529366D01*
X158354739Y-137553022D01*
X158411807Y-137577482D01*
X158420944Y-137580310D01*
X158607780Y-137636719D01*
X158668690Y-137648780D01*
X158729409Y-137661686D01*
X158738921Y-137662686D01*
X158933155Y-137681731D01*
X158933163Y-137681731D01*
X158966353Y-137685000D01*
X171033647Y-137685000D01*
X171062955Y-137682113D01*
X171069066Y-137682156D01*
X171078585Y-137681223D01*
X171272682Y-137660822D01*
X171333496Y-137648339D01*
X171394481Y-137636705D01*
X171403637Y-137633941D01*
X171590075Y-137576229D01*
X171647279Y-137552182D01*
X171704873Y-137528913D01*
X171713317Y-137524423D01*
X171884994Y-137431598D01*
X171936468Y-137396878D01*
X171988418Y-137362883D01*
X171995829Y-137356839D01*
X172146207Y-137232435D01*
X172189973Y-137188362D01*
X172234311Y-137144943D01*
X172240408Y-137137574D01*
X172363758Y-136986332D01*
X172398126Y-136934603D01*
X172433191Y-136883392D01*
X172437739Y-136874981D01*
X172437740Y-136874980D01*
X172437742Y-136874976D01*
X172529366Y-136702657D01*
X172553022Y-136645261D01*
X172577482Y-136588193D01*
X172580310Y-136579056D01*
X172636719Y-136392220D01*
X172648780Y-136331310D01*
X172661686Y-136270591D01*
X172662686Y-136261079D01*
X172681731Y-136066845D01*
X172681731Y-136066837D01*
X172685000Y-136033647D01*
X172685000Y-123966353D01*
X172682113Y-123937045D01*
X172682156Y-123930933D01*
X172681223Y-123921415D01*
X172660822Y-123727318D01*
X172648339Y-123666504D01*
X172636705Y-123605519D01*
X172633941Y-123596363D01*
X172576229Y-123409925D01*
X172552170Y-123352692D01*
X172528913Y-123295127D01*
X172524423Y-123286682D01*
X172431598Y-123115006D01*
X172396878Y-123063532D01*
X172362883Y-123011582D01*
X172356838Y-123004170D01*
X172232435Y-122853793D01*
X172188362Y-122810027D01*
X172144943Y-122765689D01*
X172137574Y-122759592D01*
X171986332Y-122636242D01*
X171934614Y-122601881D01*
X171883393Y-122566809D01*
X171874980Y-122562260D01*
X171702657Y-122470635D01*
X171645261Y-122446978D01*
X171588193Y-122422519D01*
X171579057Y-122419690D01*
X171392220Y-122363281D01*
X171331302Y-122351219D01*
X171270590Y-122338314D01*
X171261078Y-122337314D01*
X171066845Y-122318269D01*
X171066837Y-122318269D01*
X171033647Y-122315000D01*
X158966353Y-122315000D01*
X158937045Y-122317887D01*
X158930933Y-122317844D01*
X158921415Y-122318777D01*
X158727318Y-122339178D01*
X158666504Y-122351661D01*
X158605519Y-122363295D01*
X158596363Y-122366059D01*
X158409925Y-122423771D01*
X158352692Y-122447830D01*
X158295127Y-122471087D01*
X158286682Y-122475577D01*
X158115006Y-122568402D01*
X158063532Y-122603122D01*
X158011582Y-122637117D01*
X158004170Y-122643162D01*
X157853793Y-122767565D01*
X157810027Y-122811638D01*
X157765689Y-122855057D01*
X157759592Y-122862426D01*
X157636242Y-123013668D01*
X157601881Y-123065386D01*
X157566809Y-123116607D01*
X157562260Y-123125020D01*
X157470635Y-123297343D01*
X157446978Y-123354739D01*
X157422519Y-123411807D01*
X157419690Y-123420943D01*
X157363281Y-123607780D01*
X157351219Y-123668698D01*
X157338314Y-123729410D01*
X157337314Y-123738922D01*
X157318269Y-123933155D01*
X157318269Y-123933173D01*
X157315001Y-123966353D01*
X157315000Y-136033646D01*
X153685000Y-136033646D01*
X153685000Y-123966353D01*
X153682113Y-123937045D01*
X153682156Y-123930933D01*
X153681223Y-123921415D01*
X153660822Y-123727318D01*
X153648339Y-123666504D01*
X153636705Y-123605519D01*
X153633941Y-123596363D01*
X153576229Y-123409925D01*
X153552170Y-123352692D01*
X153528913Y-123295127D01*
X153524423Y-123286682D01*
X153431598Y-123115006D01*
X153396878Y-123063532D01*
X153362883Y-123011582D01*
X153356838Y-123004170D01*
X153232435Y-122853793D01*
X153188362Y-122810027D01*
X153144943Y-122765689D01*
X153137574Y-122759592D01*
X152986332Y-122636242D01*
X152934614Y-122601881D01*
X152883393Y-122566809D01*
X152874980Y-122562260D01*
X152702657Y-122470635D01*
X152645261Y-122446978D01*
X152588193Y-122422519D01*
X152579057Y-122419690D01*
X152392220Y-122363281D01*
X152331302Y-122351219D01*
X152270590Y-122338314D01*
X152261078Y-122337314D01*
X152066845Y-122318269D01*
X152066837Y-122318269D01*
X152033647Y-122315000D01*
X139966353Y-122315000D01*
X139937045Y-122317887D01*
X139930933Y-122317844D01*
X139921415Y-122318777D01*
X139727318Y-122339178D01*
X139666504Y-122351661D01*
X139605519Y-122363295D01*
X139596363Y-122366059D01*
X139409925Y-122423771D01*
X139352692Y-122447830D01*
X139295127Y-122471087D01*
X139286682Y-122475577D01*
X139115006Y-122568402D01*
X139063532Y-122603122D01*
X139011582Y-122637117D01*
X139004170Y-122643162D01*
X138853793Y-122767565D01*
X138810027Y-122811638D01*
X138765689Y-122855057D01*
X138759592Y-122862426D01*
X138636242Y-123013668D01*
X138601881Y-123065386D01*
X138566809Y-123116607D01*
X138562260Y-123125020D01*
X138470635Y-123297343D01*
X138446978Y-123354739D01*
X138422519Y-123411807D01*
X138419690Y-123420943D01*
X138363281Y-123607780D01*
X138351219Y-123668698D01*
X138338314Y-123729410D01*
X138337314Y-123738922D01*
X138318269Y-123933155D01*
X138318269Y-123933173D01*
X138315001Y-123966353D01*
X138315000Y-136033646D01*
X134685000Y-136033646D01*
X134685000Y-123966353D01*
X134682113Y-123937045D01*
X134682156Y-123930933D01*
X134681223Y-123921415D01*
X134660822Y-123727318D01*
X134648339Y-123666504D01*
X134636705Y-123605519D01*
X134633941Y-123596363D01*
X134576229Y-123409925D01*
X134552170Y-123352692D01*
X134528913Y-123295127D01*
X134524423Y-123286682D01*
X134431598Y-123115006D01*
X134396878Y-123063532D01*
X134362883Y-123011582D01*
X134356838Y-123004170D01*
X134232435Y-122853793D01*
X134188362Y-122810027D01*
X134144943Y-122765689D01*
X134137574Y-122759592D01*
X133986332Y-122636242D01*
X133934614Y-122601881D01*
X133883393Y-122566809D01*
X133874980Y-122562260D01*
X133702657Y-122470635D01*
X133645261Y-122446978D01*
X133588193Y-122422519D01*
X133579057Y-122419690D01*
X133392220Y-122363281D01*
X133331302Y-122351219D01*
X133270590Y-122338314D01*
X133261078Y-122337314D01*
X133066845Y-122318269D01*
X133066837Y-122318269D01*
X133033647Y-122315000D01*
X120966353Y-122315000D01*
X120937045Y-122317887D01*
X120930933Y-122317844D01*
X120921415Y-122318777D01*
X120727318Y-122339178D01*
X120666504Y-122351661D01*
X120605519Y-122363295D01*
X120596363Y-122366059D01*
X120409925Y-122423771D01*
X120352692Y-122447830D01*
X120295127Y-122471087D01*
X120286682Y-122475577D01*
X120115006Y-122568402D01*
X120063532Y-122603122D01*
X120011582Y-122637117D01*
X120004170Y-122643162D01*
X119853793Y-122767565D01*
X119810027Y-122811638D01*
X119765689Y-122855057D01*
X119759592Y-122862426D01*
X119636242Y-123013668D01*
X119601881Y-123065386D01*
X119566809Y-123116607D01*
X119562260Y-123125020D01*
X119470635Y-123297343D01*
X119446978Y-123354739D01*
X119422519Y-123411807D01*
X119419690Y-123420943D01*
X119363281Y-123607780D01*
X119351219Y-123668698D01*
X119338314Y-123729410D01*
X119337314Y-123738922D01*
X119318269Y-123933155D01*
X119318269Y-123933173D01*
X119315001Y-123966353D01*
X119315000Y-136033646D01*
X116685000Y-136033646D01*
X116685000Y-123966353D01*
X116682045Y-123936355D01*
X116682132Y-123923953D01*
X116681198Y-123914434D01*
X116640397Y-123526242D01*
X116627920Y-123465461D01*
X116616280Y-123404440D01*
X116613516Y-123395284D01*
X116498092Y-123022409D01*
X116474028Y-122965163D01*
X116450776Y-122907612D01*
X116446286Y-122899167D01*
X116260635Y-122555812D01*
X116225919Y-122504344D01*
X116191920Y-122452389D01*
X116185876Y-122444978D01*
X115937069Y-122144223D01*
X115892996Y-122100457D01*
X115849577Y-122056119D01*
X115842208Y-122050022D01*
X115539723Y-121803321D01*
X115488005Y-121768960D01*
X115436784Y-121733888D01*
X115428371Y-121729339D01*
X115083730Y-121546089D01*
X115026300Y-121522418D01*
X114969263Y-121497972D01*
X114960131Y-121495145D01*
X114960125Y-121495143D01*
X114586455Y-121382326D01*
X114525545Y-121370265D01*
X114464826Y-121357359D01*
X114455314Y-121356359D01*
X114066845Y-121318269D01*
X114066837Y-121318269D01*
X114033647Y-121315000D01*
X80033505Y-121315000D01*
X79745218Y-121286733D01*
X79500145Y-121212741D01*
X79274107Y-121092554D01*
X79075721Y-120930754D01*
X78912540Y-120733503D01*
X78790779Y-120508310D01*
X78730636Y-120314017D01*
X153761260Y-120314017D01*
X153761260Y-120655783D01*
X153827935Y-120990981D01*
X153958723Y-121306731D01*
X154148597Y-121590898D01*
X154390262Y-121832563D01*
X154674429Y-122022437D01*
X154990179Y-122153225D01*
X155325377Y-122219900D01*
X155667143Y-122219900D01*
X156002341Y-122153225D01*
X156318091Y-122022437D01*
X156602258Y-121832563D01*
X156843923Y-121590898D01*
X157033797Y-121306731D01*
X157164585Y-120990981D01*
X157231260Y-120655783D01*
X157231260Y-120314017D01*
X157164585Y-119978819D01*
X157033797Y-119663069D01*
X156843923Y-119378902D01*
X156602258Y-119137237D01*
X156318091Y-118947363D01*
X156002341Y-118816575D01*
X155667143Y-118749900D01*
X155325377Y-118749900D01*
X154990179Y-118816575D01*
X154674429Y-118947363D01*
X154390262Y-119137237D01*
X154148597Y-119378902D01*
X153958723Y-119663069D01*
X153827935Y-119978819D01*
X153761260Y-120314017D01*
X78730636Y-120314017D01*
X78715076Y-120263753D01*
X78685000Y-119977602D01*
X78685000Y-117033646D01*
X81315000Y-117033646D01*
X81317887Y-117062954D01*
X81317844Y-117069066D01*
X81318777Y-117078585D01*
X81339178Y-117272682D01*
X81351661Y-117333496D01*
X81363295Y-117394481D01*
X81366059Y-117403637D01*
X81423771Y-117590075D01*
X81447818Y-117647279D01*
X81471087Y-117704873D01*
X81475577Y-117713317D01*
X81568402Y-117884994D01*
X81603122Y-117936468D01*
X81637117Y-117988418D01*
X81643161Y-117995829D01*
X81767565Y-118146207D01*
X81811638Y-118189973D01*
X81855057Y-118234311D01*
X81862426Y-118240408D01*
X82013668Y-118363758D01*
X82065397Y-118398126D01*
X82116608Y-118433191D01*
X82125016Y-118437737D01*
X82125020Y-118437740D01*
X82125024Y-118437742D01*
X82297343Y-118529366D01*
X82354739Y-118553022D01*
X82411807Y-118577482D01*
X82420944Y-118580310D01*
X82607780Y-118636719D01*
X82668690Y-118648780D01*
X82729409Y-118661686D01*
X82738921Y-118662686D01*
X82933155Y-118681731D01*
X82933163Y-118681731D01*
X82966353Y-118685000D01*
X95033647Y-118685000D01*
X95062955Y-118682113D01*
X95069066Y-118682156D01*
X95078585Y-118681223D01*
X95272682Y-118660822D01*
X95333496Y-118648339D01*
X95394481Y-118636705D01*
X95403637Y-118633941D01*
X95590075Y-118576229D01*
X95647279Y-118552182D01*
X95704873Y-118528913D01*
X95713317Y-118524423D01*
X95884994Y-118431598D01*
X95936468Y-118396878D01*
X95988418Y-118362883D01*
X95995829Y-118356839D01*
X96146207Y-118232435D01*
X96189973Y-118188362D01*
X96234311Y-118144943D01*
X96240408Y-118137574D01*
X96363758Y-117986332D01*
X96398126Y-117934603D01*
X96433191Y-117883392D01*
X96437739Y-117874981D01*
X96437740Y-117874980D01*
X96437742Y-117874976D01*
X96529366Y-117702657D01*
X96553022Y-117645261D01*
X96577482Y-117588193D01*
X96580310Y-117579056D01*
X96636719Y-117392220D01*
X96648780Y-117331310D01*
X96661686Y-117270591D01*
X96662686Y-117261079D01*
X96681731Y-117066845D01*
X96681731Y-117066837D01*
X96685000Y-117033647D01*
X96685000Y-117033646D01*
X100315000Y-117033646D01*
X100317887Y-117062954D01*
X100317844Y-117069066D01*
X100318777Y-117078585D01*
X100339178Y-117272682D01*
X100351661Y-117333496D01*
X100363295Y-117394481D01*
X100366059Y-117403637D01*
X100423771Y-117590075D01*
X100447818Y-117647279D01*
X100471087Y-117704873D01*
X100475577Y-117713317D01*
X100568402Y-117884994D01*
X100603122Y-117936468D01*
X100637117Y-117988418D01*
X100643161Y-117995829D01*
X100767565Y-118146207D01*
X100811638Y-118189973D01*
X100855057Y-118234311D01*
X100862426Y-118240408D01*
X101013668Y-118363758D01*
X101065397Y-118398126D01*
X101116608Y-118433191D01*
X101125016Y-118437737D01*
X101125020Y-118437740D01*
X101125024Y-118437742D01*
X101297343Y-118529366D01*
X101354739Y-118553022D01*
X101411807Y-118577482D01*
X101420944Y-118580310D01*
X101607780Y-118636719D01*
X101668690Y-118648780D01*
X101729409Y-118661686D01*
X101738921Y-118662686D01*
X101933155Y-118681731D01*
X101933163Y-118681731D01*
X101966353Y-118685000D01*
X114033647Y-118685000D01*
X114062955Y-118682113D01*
X114069066Y-118682156D01*
X114078585Y-118681223D01*
X114272682Y-118660822D01*
X114333496Y-118648339D01*
X114394481Y-118636705D01*
X114403637Y-118633941D01*
X114590075Y-118576229D01*
X114647279Y-118552182D01*
X114704873Y-118528913D01*
X114713317Y-118524423D01*
X114884994Y-118431598D01*
X114936468Y-118396878D01*
X114988418Y-118362883D01*
X114995829Y-118356839D01*
X115146207Y-118232435D01*
X115189973Y-118188362D01*
X115234311Y-118144943D01*
X115240408Y-118137574D01*
X115363758Y-117986332D01*
X115398126Y-117934603D01*
X115433191Y-117883392D01*
X115437739Y-117874981D01*
X115437740Y-117874980D01*
X115437742Y-117874976D01*
X115529366Y-117702657D01*
X115553022Y-117645261D01*
X115577482Y-117588193D01*
X115580310Y-117579056D01*
X115636719Y-117392220D01*
X115648780Y-117331310D01*
X115661686Y-117270591D01*
X115662686Y-117261079D01*
X115681731Y-117066845D01*
X115681731Y-117066837D01*
X115685000Y-117033647D01*
X115685000Y-117033646D01*
X119315000Y-117033646D01*
X119317887Y-117062954D01*
X119317844Y-117069066D01*
X119318777Y-117078585D01*
X119339178Y-117272682D01*
X119351661Y-117333496D01*
X119363295Y-117394481D01*
X119366059Y-117403637D01*
X119423771Y-117590075D01*
X119447818Y-117647279D01*
X119471087Y-117704873D01*
X119475577Y-117713317D01*
X119568402Y-117884994D01*
X119603122Y-117936468D01*
X119637117Y-117988418D01*
X119643161Y-117995829D01*
X119767565Y-118146207D01*
X119811638Y-118189973D01*
X119855057Y-118234311D01*
X119862426Y-118240408D01*
X120013668Y-118363758D01*
X120065397Y-118398126D01*
X120116608Y-118433191D01*
X120125016Y-118437737D01*
X120125020Y-118437740D01*
X120125024Y-118437742D01*
X120297343Y-118529366D01*
X120354739Y-118553022D01*
X120411807Y-118577482D01*
X120420944Y-118580310D01*
X120607780Y-118636719D01*
X120668690Y-118648780D01*
X120729409Y-118661686D01*
X120738921Y-118662686D01*
X120933155Y-118681731D01*
X120933163Y-118681731D01*
X120966353Y-118685000D01*
X133033647Y-118685000D01*
X133062955Y-118682113D01*
X133069066Y-118682156D01*
X133078585Y-118681223D01*
X133272682Y-118660822D01*
X133333496Y-118648339D01*
X133394481Y-118636705D01*
X133403637Y-118633941D01*
X133590075Y-118576229D01*
X133647279Y-118552182D01*
X133704873Y-118528913D01*
X133713317Y-118524423D01*
X133884994Y-118431598D01*
X133936468Y-118396878D01*
X133988418Y-118362883D01*
X133995829Y-118356839D01*
X134146207Y-118232435D01*
X134189973Y-118188362D01*
X134234311Y-118144943D01*
X134240408Y-118137574D01*
X134363758Y-117986332D01*
X134398126Y-117934603D01*
X134433191Y-117883392D01*
X134437739Y-117874981D01*
X134437740Y-117874980D01*
X134437742Y-117874976D01*
X134529366Y-117702657D01*
X134553022Y-117645261D01*
X134577482Y-117588193D01*
X134580310Y-117579056D01*
X134636719Y-117392220D01*
X134648780Y-117331310D01*
X134661686Y-117270591D01*
X134662686Y-117261079D01*
X134681731Y-117066845D01*
X134681731Y-117066837D01*
X134685000Y-117033647D01*
X134685000Y-117033646D01*
X138315000Y-117033646D01*
X138317887Y-117062954D01*
X138317844Y-117069066D01*
X138318777Y-117078585D01*
X138339178Y-117272682D01*
X138351661Y-117333496D01*
X138363295Y-117394481D01*
X138366059Y-117403637D01*
X138423771Y-117590075D01*
X138447818Y-117647279D01*
X138471087Y-117704873D01*
X138475577Y-117713317D01*
X138568402Y-117884994D01*
X138603122Y-117936468D01*
X138637117Y-117988418D01*
X138643161Y-117995829D01*
X138767565Y-118146207D01*
X138811638Y-118189973D01*
X138855057Y-118234311D01*
X138862426Y-118240408D01*
X139013668Y-118363758D01*
X139065397Y-118398126D01*
X139116608Y-118433191D01*
X139125016Y-118437737D01*
X139125020Y-118437740D01*
X139125024Y-118437742D01*
X139297343Y-118529366D01*
X139354739Y-118553022D01*
X139411807Y-118577482D01*
X139420944Y-118580310D01*
X139607780Y-118636719D01*
X139668690Y-118648780D01*
X139729409Y-118661686D01*
X139738921Y-118662686D01*
X139933155Y-118681731D01*
X139933163Y-118681731D01*
X139966353Y-118685000D01*
X152033647Y-118685000D01*
X152062955Y-118682113D01*
X152069066Y-118682156D01*
X152078585Y-118681223D01*
X152272682Y-118660822D01*
X152333496Y-118648339D01*
X152394481Y-118636705D01*
X152403637Y-118633941D01*
X152590075Y-118576229D01*
X152647279Y-118552182D01*
X152704873Y-118528913D01*
X152713317Y-118524423D01*
X152884994Y-118431598D01*
X152936468Y-118396878D01*
X152988418Y-118362883D01*
X152995829Y-118356839D01*
X153146207Y-118232435D01*
X153189973Y-118188362D01*
X153234311Y-118144943D01*
X153240408Y-118137574D01*
X153363758Y-117986332D01*
X153398126Y-117934603D01*
X153433191Y-117883392D01*
X153437739Y-117874981D01*
X153437740Y-117874980D01*
X153437742Y-117874976D01*
X153529366Y-117702657D01*
X153553022Y-117645261D01*
X153577482Y-117588193D01*
X153580310Y-117579056D01*
X153636719Y-117392220D01*
X153648780Y-117331310D01*
X153661686Y-117270591D01*
X153662686Y-117261079D01*
X153681731Y-117066845D01*
X153681731Y-117066837D01*
X153685000Y-117033647D01*
X153685000Y-117033646D01*
X157315000Y-117033646D01*
X157317887Y-117062954D01*
X157317844Y-117069066D01*
X157318777Y-117078585D01*
X157339178Y-117272682D01*
X157351661Y-117333496D01*
X157363295Y-117394481D01*
X157366059Y-117403637D01*
X157423771Y-117590075D01*
X157447818Y-117647279D01*
X157471087Y-117704873D01*
X157475577Y-117713317D01*
X157568402Y-117884994D01*
X157603122Y-117936468D01*
X157637117Y-117988418D01*
X157643161Y-117995829D01*
X157767565Y-118146207D01*
X157811638Y-118189973D01*
X157855057Y-118234311D01*
X157862426Y-118240408D01*
X158013668Y-118363758D01*
X158065397Y-118398126D01*
X158116608Y-118433191D01*
X158125016Y-118437737D01*
X158125020Y-118437740D01*
X158125024Y-118437742D01*
X158297343Y-118529366D01*
X158354739Y-118553022D01*
X158411807Y-118577482D01*
X158420944Y-118580310D01*
X158607780Y-118636719D01*
X158668690Y-118648780D01*
X158729409Y-118661686D01*
X158738921Y-118662686D01*
X158933155Y-118681731D01*
X158933163Y-118681731D01*
X158966353Y-118685000D01*
X171033647Y-118685000D01*
X171062955Y-118682113D01*
X171069066Y-118682156D01*
X171078585Y-118681223D01*
X171272682Y-118660822D01*
X171333496Y-118648339D01*
X171394481Y-118636705D01*
X171403637Y-118633941D01*
X171590075Y-118576229D01*
X171647279Y-118552182D01*
X171704873Y-118528913D01*
X171713317Y-118524423D01*
X171884994Y-118431598D01*
X171936468Y-118396878D01*
X171988418Y-118362883D01*
X171995829Y-118356839D01*
X172146207Y-118232435D01*
X172189973Y-118188362D01*
X172234311Y-118144943D01*
X172240408Y-118137574D01*
X172363758Y-117986332D01*
X172398126Y-117934603D01*
X172433191Y-117883392D01*
X172437739Y-117874981D01*
X172437740Y-117874980D01*
X172437742Y-117874976D01*
X172529366Y-117702657D01*
X172553022Y-117645261D01*
X172577482Y-117588193D01*
X172580310Y-117579056D01*
X172636719Y-117392220D01*
X172648780Y-117331310D01*
X172661686Y-117270591D01*
X172662686Y-117261079D01*
X172681731Y-117066845D01*
X172681731Y-117066837D01*
X172685000Y-117033647D01*
X172685000Y-104966353D01*
X172682113Y-104937045D01*
X172682156Y-104930933D01*
X172681223Y-104921415D01*
X172660822Y-104727318D01*
X172648339Y-104666504D01*
X172636705Y-104605519D01*
X172633941Y-104596363D01*
X172576229Y-104409925D01*
X172552170Y-104352692D01*
X172528913Y-104295127D01*
X172524423Y-104286682D01*
X172431598Y-104115006D01*
X172396878Y-104063532D01*
X172362883Y-104011582D01*
X172356838Y-104004170D01*
X172232435Y-103853793D01*
X172188362Y-103810027D01*
X172144943Y-103765689D01*
X172137574Y-103759592D01*
X171986332Y-103636242D01*
X171934614Y-103601881D01*
X171883393Y-103566809D01*
X171874980Y-103562260D01*
X171702657Y-103470635D01*
X171645261Y-103446978D01*
X171588193Y-103422519D01*
X171579057Y-103419690D01*
X171392220Y-103363281D01*
X171331302Y-103351219D01*
X171270590Y-103338314D01*
X171261078Y-103337314D01*
X171066845Y-103318269D01*
X171066837Y-103318269D01*
X171033647Y-103315000D01*
X158966353Y-103315000D01*
X158937045Y-103317887D01*
X158930933Y-103317844D01*
X158921415Y-103318777D01*
X158727318Y-103339178D01*
X158666504Y-103351661D01*
X158605519Y-103363295D01*
X158596363Y-103366059D01*
X158409925Y-103423771D01*
X158352692Y-103447830D01*
X158295127Y-103471087D01*
X158286682Y-103475577D01*
X158115006Y-103568402D01*
X158063532Y-103603122D01*
X158011582Y-103637117D01*
X158004170Y-103643162D01*
X157853793Y-103767565D01*
X157810027Y-103811638D01*
X157765689Y-103855057D01*
X157759592Y-103862426D01*
X157636242Y-104013668D01*
X157601881Y-104065386D01*
X157566809Y-104116607D01*
X157562260Y-104125020D01*
X157470635Y-104297343D01*
X157446978Y-104354739D01*
X157422519Y-104411807D01*
X157419690Y-104420943D01*
X157363281Y-104607780D01*
X157351219Y-104668698D01*
X157338314Y-104729410D01*
X157337314Y-104738922D01*
X157318269Y-104933155D01*
X157318269Y-104933173D01*
X157315001Y-104966353D01*
X157315000Y-117033646D01*
X153685000Y-117033646D01*
X153685000Y-104966353D01*
X153682113Y-104937045D01*
X153682156Y-104930933D01*
X153681223Y-104921415D01*
X153660822Y-104727318D01*
X153648339Y-104666504D01*
X153636705Y-104605519D01*
X153633941Y-104596363D01*
X153576229Y-104409925D01*
X153552170Y-104352692D01*
X153528913Y-104295127D01*
X153524423Y-104286682D01*
X153431598Y-104115006D01*
X153396878Y-104063532D01*
X153362883Y-104011582D01*
X153356838Y-104004170D01*
X153232435Y-103853793D01*
X153188362Y-103810027D01*
X153144943Y-103765689D01*
X153137574Y-103759592D01*
X152986332Y-103636242D01*
X152934614Y-103601881D01*
X152883393Y-103566809D01*
X152874980Y-103562260D01*
X152702657Y-103470635D01*
X152645261Y-103446978D01*
X152588193Y-103422519D01*
X152579057Y-103419690D01*
X152392220Y-103363281D01*
X152331302Y-103351219D01*
X152270590Y-103338314D01*
X152261078Y-103337314D01*
X152066845Y-103318269D01*
X152066837Y-103318269D01*
X152033647Y-103315000D01*
X139966353Y-103315000D01*
X139937045Y-103317887D01*
X139930933Y-103317844D01*
X139921415Y-103318777D01*
X139727318Y-103339178D01*
X139666504Y-103351661D01*
X139605519Y-103363295D01*
X139596363Y-103366059D01*
X139409925Y-103423771D01*
X139352692Y-103447830D01*
X139295127Y-103471087D01*
X139286682Y-103475577D01*
X139115006Y-103568402D01*
X139063532Y-103603122D01*
X139011582Y-103637117D01*
X139004170Y-103643162D01*
X138853793Y-103767565D01*
X138810027Y-103811638D01*
X138765689Y-103855057D01*
X138759592Y-103862426D01*
X138636242Y-104013668D01*
X138601881Y-104065386D01*
X138566809Y-104116607D01*
X138562260Y-104125020D01*
X138470635Y-104297343D01*
X138446978Y-104354739D01*
X138422519Y-104411807D01*
X138419690Y-104420943D01*
X138363281Y-104607780D01*
X138351219Y-104668698D01*
X138338314Y-104729410D01*
X138337314Y-104738922D01*
X138318269Y-104933155D01*
X138318269Y-104933173D01*
X138315001Y-104966353D01*
X138315000Y-117033646D01*
X134685000Y-117033646D01*
X134685000Y-104966353D01*
X134682113Y-104937045D01*
X134682156Y-104930933D01*
X134681223Y-104921415D01*
X134660822Y-104727318D01*
X134648339Y-104666504D01*
X134636705Y-104605519D01*
X134633941Y-104596363D01*
X134576229Y-104409925D01*
X134552170Y-104352692D01*
X134528913Y-104295127D01*
X134524423Y-104286682D01*
X134431598Y-104115006D01*
X134396878Y-104063532D01*
X134362883Y-104011582D01*
X134356838Y-104004170D01*
X134232435Y-103853793D01*
X134188362Y-103810027D01*
X134144943Y-103765689D01*
X134137574Y-103759592D01*
X133986332Y-103636242D01*
X133934614Y-103601881D01*
X133883393Y-103566809D01*
X133874980Y-103562260D01*
X133702657Y-103470635D01*
X133645261Y-103446978D01*
X133588193Y-103422519D01*
X133579057Y-103419690D01*
X133392220Y-103363281D01*
X133331302Y-103351219D01*
X133270590Y-103338314D01*
X133261078Y-103337314D01*
X133066845Y-103318269D01*
X133066837Y-103318269D01*
X133033647Y-103315000D01*
X120966353Y-103315000D01*
X120937045Y-103317887D01*
X120930933Y-103317844D01*
X120921415Y-103318777D01*
X120727318Y-103339178D01*
X120666504Y-103351661D01*
X120605519Y-103363295D01*
X120596363Y-103366059D01*
X120409925Y-103423771D01*
X120352692Y-103447830D01*
X120295127Y-103471087D01*
X120286682Y-103475577D01*
X120115006Y-103568402D01*
X120063532Y-103603122D01*
X120011582Y-103637117D01*
X120004170Y-103643162D01*
X119853793Y-103767565D01*
X119810027Y-103811638D01*
X119765689Y-103855057D01*
X119759592Y-103862426D01*
X119636242Y-104013668D01*
X119601881Y-104065386D01*
X119566809Y-104116607D01*
X119562260Y-104125020D01*
X119470635Y-104297343D01*
X119446978Y-104354739D01*
X119422519Y-104411807D01*
X119419690Y-104420943D01*
X119363281Y-104607780D01*
X119351219Y-104668698D01*
X119338314Y-104729410D01*
X119337314Y-104738922D01*
X119318269Y-104933155D01*
X119318269Y-104933173D01*
X119315001Y-104966353D01*
X119315000Y-117033646D01*
X115685000Y-117033646D01*
X115685000Y-104966353D01*
X115682113Y-104937045D01*
X115682156Y-104930933D01*
X115681223Y-104921415D01*
X115660822Y-104727318D01*
X115648339Y-104666504D01*
X115636705Y-104605519D01*
X115633941Y-104596363D01*
X115576229Y-104409925D01*
X115552170Y-104352692D01*
X115528913Y-104295127D01*
X115524423Y-104286682D01*
X115431598Y-104115006D01*
X115396878Y-104063532D01*
X115362883Y-104011582D01*
X115356838Y-104004170D01*
X115232435Y-103853793D01*
X115188362Y-103810027D01*
X115144943Y-103765689D01*
X115137574Y-103759592D01*
X114986332Y-103636242D01*
X114934614Y-103601881D01*
X114883393Y-103566809D01*
X114874980Y-103562260D01*
X114702657Y-103470635D01*
X114645261Y-103446978D01*
X114588193Y-103422519D01*
X114579057Y-103419690D01*
X114392220Y-103363281D01*
X114331302Y-103351219D01*
X114270590Y-103338314D01*
X114261078Y-103337314D01*
X114066845Y-103318269D01*
X114066837Y-103318269D01*
X114033647Y-103315000D01*
X101966353Y-103315000D01*
X101937045Y-103317887D01*
X101930933Y-103317844D01*
X101921415Y-103318777D01*
X101727318Y-103339178D01*
X101666504Y-103351661D01*
X101605519Y-103363295D01*
X101596363Y-103366059D01*
X101409925Y-103423771D01*
X101352692Y-103447830D01*
X101295127Y-103471087D01*
X101286682Y-103475577D01*
X101115006Y-103568402D01*
X101063532Y-103603122D01*
X101011582Y-103637117D01*
X101004170Y-103643162D01*
X100853793Y-103767565D01*
X100810027Y-103811638D01*
X100765689Y-103855057D01*
X100759592Y-103862426D01*
X100636242Y-104013668D01*
X100601881Y-104065386D01*
X100566809Y-104116607D01*
X100562260Y-104125020D01*
X100470635Y-104297343D01*
X100446978Y-104354739D01*
X100422519Y-104411807D01*
X100419690Y-104420943D01*
X100363281Y-104607780D01*
X100351219Y-104668698D01*
X100338314Y-104729410D01*
X100337314Y-104738922D01*
X100318269Y-104933155D01*
X100318269Y-104933173D01*
X100315001Y-104966353D01*
X100315000Y-117033646D01*
X96685000Y-117033646D01*
X96685000Y-104966353D01*
X96682113Y-104937045D01*
X96682156Y-104930933D01*
X96681223Y-104921415D01*
X96660822Y-104727318D01*
X96648339Y-104666504D01*
X96636705Y-104605519D01*
X96633941Y-104596363D01*
X96576229Y-104409925D01*
X96552170Y-104352692D01*
X96528913Y-104295127D01*
X96524423Y-104286682D01*
X96431598Y-104115006D01*
X96396878Y-104063532D01*
X96362883Y-104011582D01*
X96356838Y-104004170D01*
X96232435Y-103853793D01*
X96188362Y-103810027D01*
X96144943Y-103765689D01*
X96137574Y-103759592D01*
X95986332Y-103636242D01*
X95934614Y-103601881D01*
X95883393Y-103566809D01*
X95874980Y-103562260D01*
X95702657Y-103470635D01*
X95645261Y-103446978D01*
X95588193Y-103422519D01*
X95579057Y-103419690D01*
X95392220Y-103363281D01*
X95331302Y-103351219D01*
X95270590Y-103338314D01*
X95261078Y-103337314D01*
X95066845Y-103318269D01*
X95066837Y-103318269D01*
X95033647Y-103315000D01*
X82966353Y-103315000D01*
X82937045Y-103317887D01*
X82930933Y-103317844D01*
X82921415Y-103318777D01*
X82727318Y-103339178D01*
X82666504Y-103351661D01*
X82605519Y-103363295D01*
X82596363Y-103366059D01*
X82409925Y-103423771D01*
X82352692Y-103447830D01*
X82295127Y-103471087D01*
X82286682Y-103475577D01*
X82115006Y-103568402D01*
X82063532Y-103603122D01*
X82011582Y-103637117D01*
X82004170Y-103643162D01*
X81853793Y-103767565D01*
X81810027Y-103811638D01*
X81765689Y-103855057D01*
X81759592Y-103862426D01*
X81636242Y-104013668D01*
X81601881Y-104065386D01*
X81566809Y-104116607D01*
X81562260Y-104125020D01*
X81470635Y-104297343D01*
X81446978Y-104354739D01*
X81422519Y-104411807D01*
X81419690Y-104420943D01*
X81363281Y-104607780D01*
X81351219Y-104668698D01*
X81338314Y-104729410D01*
X81337314Y-104738922D01*
X81318269Y-104933155D01*
X81318269Y-104933173D01*
X81315001Y-104966353D01*
X81315000Y-117033646D01*
X78685000Y-117033646D01*
X78685000Y-101329117D01*
X96765000Y-101329117D01*
X96765000Y-101670883D01*
X96831675Y-102006081D01*
X96962463Y-102321831D01*
X97152337Y-102605998D01*
X97394002Y-102847663D01*
X97678169Y-103037537D01*
X97993919Y-103168325D01*
X98329117Y-103235000D01*
X98670883Y-103235000D01*
X99006081Y-103168325D01*
X99321831Y-103037537D01*
X99605998Y-102847663D01*
X99847663Y-102605998D01*
X100037537Y-102321831D01*
X100168325Y-102006081D01*
X100235000Y-101670883D01*
X100235000Y-101329117D01*
X100168325Y-100993919D01*
X100037537Y-100678169D01*
X99847663Y-100394002D01*
X99605998Y-100152337D01*
X99321831Y-99962463D01*
X99006081Y-99831675D01*
X98670883Y-99765000D01*
X98329117Y-99765000D01*
X97993919Y-99831675D01*
X97678169Y-99962463D01*
X97394002Y-100152337D01*
X97152337Y-100394002D01*
X96962463Y-100678169D01*
X96831675Y-100993919D01*
X96765000Y-101329117D01*
X78685000Y-101329117D01*
X78685000Y-98033646D01*
X81315000Y-98033646D01*
X81317887Y-98062954D01*
X81317844Y-98069066D01*
X81318777Y-98078585D01*
X81339178Y-98272682D01*
X81351661Y-98333496D01*
X81363295Y-98394481D01*
X81366059Y-98403637D01*
X81423771Y-98590075D01*
X81447818Y-98647279D01*
X81471087Y-98704873D01*
X81475577Y-98713317D01*
X81568402Y-98884994D01*
X81603122Y-98936468D01*
X81637117Y-98988418D01*
X81643161Y-98995829D01*
X81767565Y-99146207D01*
X81811638Y-99189973D01*
X81855057Y-99234311D01*
X81862426Y-99240408D01*
X82013668Y-99363758D01*
X82065397Y-99398126D01*
X82116608Y-99433191D01*
X82125016Y-99437737D01*
X82125020Y-99437740D01*
X82125024Y-99437742D01*
X82297343Y-99529366D01*
X82354739Y-99553022D01*
X82411807Y-99577482D01*
X82420944Y-99580310D01*
X82607780Y-99636719D01*
X82668690Y-99648780D01*
X82729409Y-99661686D01*
X82738921Y-99662686D01*
X82933155Y-99681731D01*
X82933163Y-99681731D01*
X82966353Y-99685000D01*
X95033647Y-99685000D01*
X95062955Y-99682113D01*
X95069066Y-99682156D01*
X95078585Y-99681223D01*
X95272682Y-99660822D01*
X95333496Y-99648339D01*
X95394481Y-99636705D01*
X95403637Y-99633941D01*
X95590075Y-99576229D01*
X95647279Y-99552182D01*
X95704873Y-99528913D01*
X95713317Y-99524423D01*
X95884994Y-99431598D01*
X95936468Y-99396878D01*
X95988418Y-99362883D01*
X95995829Y-99356839D01*
X96146207Y-99232435D01*
X96189973Y-99188362D01*
X96234311Y-99144943D01*
X96240408Y-99137574D01*
X96363758Y-98986332D01*
X96398126Y-98934603D01*
X96433191Y-98883392D01*
X96437739Y-98874981D01*
X96437740Y-98874980D01*
X96437742Y-98874976D01*
X96529366Y-98702657D01*
X96553022Y-98645261D01*
X96577482Y-98588193D01*
X96580310Y-98579056D01*
X96636719Y-98392220D01*
X96648780Y-98331310D01*
X96661686Y-98270591D01*
X96662686Y-98261079D01*
X96681731Y-98066845D01*
X96681731Y-98066837D01*
X96685000Y-98033647D01*
X96685000Y-98033646D01*
X100315000Y-98033646D01*
X100317887Y-98062954D01*
X100317844Y-98069066D01*
X100318777Y-98078585D01*
X100339178Y-98272682D01*
X100351661Y-98333496D01*
X100363295Y-98394481D01*
X100366059Y-98403637D01*
X100423771Y-98590075D01*
X100447818Y-98647279D01*
X100471087Y-98704873D01*
X100475577Y-98713317D01*
X100568402Y-98884994D01*
X100603122Y-98936468D01*
X100637117Y-98988418D01*
X100643161Y-98995829D01*
X100767565Y-99146207D01*
X100811638Y-99189973D01*
X100855057Y-99234311D01*
X100862426Y-99240408D01*
X101013668Y-99363758D01*
X101065397Y-99398126D01*
X101116608Y-99433191D01*
X101125016Y-99437737D01*
X101125020Y-99437740D01*
X101125024Y-99437742D01*
X101297343Y-99529366D01*
X101354739Y-99553022D01*
X101411807Y-99577482D01*
X101420944Y-99580310D01*
X101607780Y-99636719D01*
X101668690Y-99648780D01*
X101729409Y-99661686D01*
X101738921Y-99662686D01*
X101933155Y-99681731D01*
X101933163Y-99681731D01*
X101966353Y-99685000D01*
X114033647Y-99685000D01*
X114062955Y-99682113D01*
X114069066Y-99682156D01*
X114078585Y-99681223D01*
X114272682Y-99660822D01*
X114333496Y-99648339D01*
X114394481Y-99636705D01*
X114403637Y-99633941D01*
X114590075Y-99576229D01*
X114647279Y-99552182D01*
X114704873Y-99528913D01*
X114713317Y-99524423D01*
X114884994Y-99431598D01*
X114936468Y-99396878D01*
X114988418Y-99362883D01*
X114995829Y-99356839D01*
X115146207Y-99232435D01*
X115189973Y-99188362D01*
X115234311Y-99144943D01*
X115240408Y-99137574D01*
X115363758Y-98986332D01*
X115398126Y-98934603D01*
X115433191Y-98883392D01*
X115437739Y-98874981D01*
X115437740Y-98874980D01*
X115437742Y-98874976D01*
X115529366Y-98702657D01*
X115553022Y-98645261D01*
X115577482Y-98588193D01*
X115580310Y-98579056D01*
X115636719Y-98392220D01*
X115648780Y-98331310D01*
X115661686Y-98270591D01*
X115662686Y-98261079D01*
X115681731Y-98066845D01*
X115681731Y-98066837D01*
X115685000Y-98033647D01*
X115685000Y-98033646D01*
X119315000Y-98033646D01*
X119317887Y-98062954D01*
X119317844Y-98069066D01*
X119318777Y-98078585D01*
X119339178Y-98272682D01*
X119351661Y-98333496D01*
X119363295Y-98394481D01*
X119366059Y-98403637D01*
X119423771Y-98590075D01*
X119447818Y-98647279D01*
X119471087Y-98704873D01*
X119475577Y-98713317D01*
X119568402Y-98884994D01*
X119603122Y-98936468D01*
X119637117Y-98988418D01*
X119643161Y-98995829D01*
X119767565Y-99146207D01*
X119811638Y-99189973D01*
X119855057Y-99234311D01*
X119862426Y-99240408D01*
X120013668Y-99363758D01*
X120065397Y-99398126D01*
X120116608Y-99433191D01*
X120125016Y-99437737D01*
X120125020Y-99437740D01*
X120125024Y-99437742D01*
X120297343Y-99529366D01*
X120354739Y-99553022D01*
X120411807Y-99577482D01*
X120420944Y-99580310D01*
X120607780Y-99636719D01*
X120668690Y-99648780D01*
X120729409Y-99661686D01*
X120738921Y-99662686D01*
X120933155Y-99681731D01*
X120933163Y-99681731D01*
X120966353Y-99685000D01*
X133033647Y-99685000D01*
X133062955Y-99682113D01*
X133069066Y-99682156D01*
X133078585Y-99681223D01*
X133272682Y-99660822D01*
X133333496Y-99648339D01*
X133394481Y-99636705D01*
X133403637Y-99633941D01*
X133590075Y-99576229D01*
X133647279Y-99552182D01*
X133704873Y-99528913D01*
X133713317Y-99524423D01*
X133884994Y-99431598D01*
X133936468Y-99396878D01*
X133988418Y-99362883D01*
X133995829Y-99356839D01*
X134146207Y-99232435D01*
X134189973Y-99188362D01*
X134234311Y-99144943D01*
X134240408Y-99137574D01*
X134363758Y-98986332D01*
X134398126Y-98934603D01*
X134433191Y-98883392D01*
X134437739Y-98874981D01*
X134437740Y-98874980D01*
X134437742Y-98874976D01*
X134529366Y-98702657D01*
X134553022Y-98645261D01*
X134577482Y-98588193D01*
X134580310Y-98579056D01*
X134636719Y-98392220D01*
X134648780Y-98331310D01*
X134661686Y-98270591D01*
X134662686Y-98261079D01*
X134681731Y-98066845D01*
X134681731Y-98066837D01*
X134685000Y-98033647D01*
X134685000Y-98033646D01*
X138315000Y-98033646D01*
X138317887Y-98062954D01*
X138317844Y-98069066D01*
X138318777Y-98078585D01*
X138339178Y-98272682D01*
X138351661Y-98333496D01*
X138363295Y-98394481D01*
X138366059Y-98403637D01*
X138423771Y-98590075D01*
X138447818Y-98647279D01*
X138471087Y-98704873D01*
X138475577Y-98713317D01*
X138568402Y-98884994D01*
X138603122Y-98936468D01*
X138637117Y-98988418D01*
X138643161Y-98995829D01*
X138767565Y-99146207D01*
X138811638Y-99189973D01*
X138855057Y-99234311D01*
X138862426Y-99240408D01*
X139013668Y-99363758D01*
X139065397Y-99398126D01*
X139116608Y-99433191D01*
X139125016Y-99437737D01*
X139125020Y-99437740D01*
X139125024Y-99437742D01*
X139297343Y-99529366D01*
X139354739Y-99553022D01*
X139411807Y-99577482D01*
X139420944Y-99580310D01*
X139607780Y-99636719D01*
X139668690Y-99648780D01*
X139729409Y-99661686D01*
X139738921Y-99662686D01*
X139933155Y-99681731D01*
X139933163Y-99681731D01*
X139966353Y-99685000D01*
X152033647Y-99685000D01*
X152062955Y-99682113D01*
X152069066Y-99682156D01*
X152078585Y-99681223D01*
X152272682Y-99660822D01*
X152333496Y-99648339D01*
X152394481Y-99636705D01*
X152403637Y-99633941D01*
X152590075Y-99576229D01*
X152647279Y-99552182D01*
X152704873Y-99528913D01*
X152713317Y-99524423D01*
X152884994Y-99431598D01*
X152936468Y-99396878D01*
X152988418Y-99362883D01*
X152995829Y-99356839D01*
X153146207Y-99232435D01*
X153189973Y-99188362D01*
X153234311Y-99144943D01*
X153240408Y-99137574D01*
X153363758Y-98986332D01*
X153398126Y-98934603D01*
X153433191Y-98883392D01*
X153437739Y-98874981D01*
X153437740Y-98874980D01*
X153437742Y-98874976D01*
X153529366Y-98702657D01*
X153553022Y-98645261D01*
X153577482Y-98588193D01*
X153580310Y-98579056D01*
X153636719Y-98392220D01*
X153648780Y-98331310D01*
X153661686Y-98270591D01*
X153662686Y-98261079D01*
X153681731Y-98066845D01*
X153681731Y-98066837D01*
X153685000Y-98033647D01*
X153685000Y-98033646D01*
X157315000Y-98033646D01*
X157317887Y-98062954D01*
X157317844Y-98069066D01*
X157318777Y-98078585D01*
X157339178Y-98272682D01*
X157351661Y-98333496D01*
X157363295Y-98394481D01*
X157366059Y-98403637D01*
X157423771Y-98590075D01*
X157447818Y-98647279D01*
X157471087Y-98704873D01*
X157475577Y-98713317D01*
X157568402Y-98884994D01*
X157603122Y-98936468D01*
X157637117Y-98988418D01*
X157643161Y-98995829D01*
X157767565Y-99146207D01*
X157811638Y-99189973D01*
X157855057Y-99234311D01*
X157862426Y-99240408D01*
X158013668Y-99363758D01*
X158065397Y-99398126D01*
X158116608Y-99433191D01*
X158125016Y-99437737D01*
X158125020Y-99437740D01*
X158125024Y-99437742D01*
X158297343Y-99529366D01*
X158354739Y-99553022D01*
X158411807Y-99577482D01*
X158420944Y-99580310D01*
X158607780Y-99636719D01*
X158668690Y-99648780D01*
X158729409Y-99661686D01*
X158738921Y-99662686D01*
X158933155Y-99681731D01*
X158933163Y-99681731D01*
X158966353Y-99685000D01*
X171033647Y-99685000D01*
X171062955Y-99682113D01*
X171069066Y-99682156D01*
X171078585Y-99681223D01*
X171272682Y-99660822D01*
X171333496Y-99648339D01*
X171394481Y-99636705D01*
X171403637Y-99633941D01*
X171590075Y-99576229D01*
X171647279Y-99552182D01*
X171704873Y-99528913D01*
X171713317Y-99524423D01*
X171884994Y-99431598D01*
X171936468Y-99396878D01*
X171988418Y-99362883D01*
X171995829Y-99356839D01*
X172146207Y-99232435D01*
X172189973Y-99188362D01*
X172234311Y-99144943D01*
X172240408Y-99137574D01*
X172363758Y-98986332D01*
X172398126Y-98934603D01*
X172433191Y-98883392D01*
X172437739Y-98874981D01*
X172437740Y-98874980D01*
X172437742Y-98874976D01*
X172529366Y-98702657D01*
X172553022Y-98645261D01*
X172577482Y-98588193D01*
X172580310Y-98579056D01*
X172636719Y-98392220D01*
X172648780Y-98331310D01*
X172661686Y-98270591D01*
X172662686Y-98261079D01*
X172681731Y-98066845D01*
X172681731Y-98066837D01*
X172685000Y-98033647D01*
X172685000Y-85966353D01*
X172682113Y-85937045D01*
X172682156Y-85930933D01*
X172681223Y-85921415D01*
X172660822Y-85727318D01*
X172648339Y-85666504D01*
X172636705Y-85605519D01*
X172633941Y-85596363D01*
X172576229Y-85409925D01*
X172552170Y-85352692D01*
X172528913Y-85295127D01*
X172524423Y-85286682D01*
X172431598Y-85115006D01*
X172396878Y-85063532D01*
X172362883Y-85011582D01*
X172356838Y-85004170D01*
X172232435Y-84853793D01*
X172188362Y-84810027D01*
X172144943Y-84765689D01*
X172137574Y-84759592D01*
X171986332Y-84636242D01*
X171934614Y-84601881D01*
X171883393Y-84566809D01*
X171874980Y-84562260D01*
X171702657Y-84470635D01*
X171645261Y-84446978D01*
X171588193Y-84422519D01*
X171579057Y-84419690D01*
X171392220Y-84363281D01*
X171331302Y-84351219D01*
X171270590Y-84338314D01*
X171261078Y-84337314D01*
X171066845Y-84318269D01*
X171066837Y-84318269D01*
X171033647Y-84315000D01*
X158966353Y-84315000D01*
X158937045Y-84317887D01*
X158930933Y-84317844D01*
X158921415Y-84318777D01*
X158727318Y-84339178D01*
X158666504Y-84351661D01*
X158605519Y-84363295D01*
X158596363Y-84366059D01*
X158409925Y-84423771D01*
X158352692Y-84447830D01*
X158295127Y-84471087D01*
X158286682Y-84475577D01*
X158115006Y-84568402D01*
X158063532Y-84603122D01*
X158011582Y-84637117D01*
X158004170Y-84643162D01*
X157853793Y-84767565D01*
X157810027Y-84811638D01*
X157765689Y-84855057D01*
X157759592Y-84862426D01*
X157636242Y-85013668D01*
X157601881Y-85065386D01*
X157566809Y-85116607D01*
X157562260Y-85125020D01*
X157470635Y-85297343D01*
X157446978Y-85354739D01*
X157422519Y-85411807D01*
X157419690Y-85420943D01*
X157363281Y-85607780D01*
X157351219Y-85668698D01*
X157338314Y-85729410D01*
X157337314Y-85738922D01*
X157318269Y-85933155D01*
X157318269Y-85933173D01*
X157315001Y-85966353D01*
X157315000Y-98033646D01*
X153685000Y-98033646D01*
X153685000Y-85966353D01*
X153682113Y-85937045D01*
X153682156Y-85930933D01*
X153681223Y-85921415D01*
X153660822Y-85727318D01*
X153648339Y-85666504D01*
X153636705Y-85605519D01*
X153633941Y-85596363D01*
X153576229Y-85409925D01*
X153552170Y-85352692D01*
X153528913Y-85295127D01*
X153524423Y-85286682D01*
X153431598Y-85115006D01*
X153396878Y-85063532D01*
X153362883Y-85011582D01*
X153356838Y-85004170D01*
X153232435Y-84853793D01*
X153188362Y-84810027D01*
X153144943Y-84765689D01*
X153137574Y-84759592D01*
X152986332Y-84636242D01*
X152934614Y-84601881D01*
X152883393Y-84566809D01*
X152874980Y-84562260D01*
X152702657Y-84470635D01*
X152645261Y-84446978D01*
X152588193Y-84422519D01*
X152579057Y-84419690D01*
X152392220Y-84363281D01*
X152331302Y-84351219D01*
X152270590Y-84338314D01*
X152261078Y-84337314D01*
X152066845Y-84318269D01*
X152066837Y-84318269D01*
X152033647Y-84315000D01*
X139966353Y-84315000D01*
X139937045Y-84317887D01*
X139930933Y-84317844D01*
X139921415Y-84318777D01*
X139727318Y-84339178D01*
X139666504Y-84351661D01*
X139605519Y-84363295D01*
X139596363Y-84366059D01*
X139409925Y-84423771D01*
X139352692Y-84447830D01*
X139295127Y-84471087D01*
X139286682Y-84475577D01*
X139115006Y-84568402D01*
X139063532Y-84603122D01*
X139011582Y-84637117D01*
X139004170Y-84643162D01*
X138853793Y-84767565D01*
X138810027Y-84811638D01*
X138765689Y-84855057D01*
X138759592Y-84862426D01*
X138636242Y-85013668D01*
X138601881Y-85065386D01*
X138566809Y-85116607D01*
X138562260Y-85125020D01*
X138470635Y-85297343D01*
X138446978Y-85354739D01*
X138422519Y-85411807D01*
X138419690Y-85420943D01*
X138363281Y-85607780D01*
X138351219Y-85668698D01*
X138338314Y-85729410D01*
X138337314Y-85738922D01*
X138318269Y-85933155D01*
X138318269Y-85933173D01*
X138315001Y-85966353D01*
X138315000Y-98033646D01*
X134685000Y-98033646D01*
X134685000Y-85966353D01*
X134682113Y-85937045D01*
X134682156Y-85930933D01*
X134681223Y-85921415D01*
X134660822Y-85727318D01*
X134648339Y-85666504D01*
X134636705Y-85605519D01*
X134633941Y-85596363D01*
X134576229Y-85409925D01*
X134552170Y-85352692D01*
X134528913Y-85295127D01*
X134524423Y-85286682D01*
X134431598Y-85115006D01*
X134396878Y-85063532D01*
X134362883Y-85011582D01*
X134356838Y-85004170D01*
X134232435Y-84853793D01*
X134188362Y-84810027D01*
X134144943Y-84765689D01*
X134137574Y-84759592D01*
X133986332Y-84636242D01*
X133934614Y-84601881D01*
X133883393Y-84566809D01*
X133874980Y-84562260D01*
X133702657Y-84470635D01*
X133645261Y-84446978D01*
X133588193Y-84422519D01*
X133579057Y-84419690D01*
X133392220Y-84363281D01*
X133331302Y-84351219D01*
X133270590Y-84338314D01*
X133261078Y-84337314D01*
X133066845Y-84318269D01*
X133066837Y-84318269D01*
X133033647Y-84315000D01*
X120966353Y-84315000D01*
X120937045Y-84317887D01*
X120930933Y-84317844D01*
X120921415Y-84318777D01*
X120727318Y-84339178D01*
X120666504Y-84351661D01*
X120605519Y-84363295D01*
X120596363Y-84366059D01*
X120409925Y-84423771D01*
X120352692Y-84447830D01*
X120295127Y-84471087D01*
X120286682Y-84475577D01*
X120115006Y-84568402D01*
X120063532Y-84603122D01*
X120011582Y-84637117D01*
X120004170Y-84643162D01*
X119853793Y-84767565D01*
X119810027Y-84811638D01*
X119765689Y-84855057D01*
X119759592Y-84862426D01*
X119636242Y-85013668D01*
X119601881Y-85065386D01*
X119566809Y-85116607D01*
X119562260Y-85125020D01*
X119470635Y-85297343D01*
X119446978Y-85354739D01*
X119422519Y-85411807D01*
X119419690Y-85420943D01*
X119363281Y-85607780D01*
X119351219Y-85668698D01*
X119338314Y-85729410D01*
X119337314Y-85738922D01*
X119318269Y-85933155D01*
X119318269Y-85933173D01*
X119315001Y-85966353D01*
X119315000Y-98033646D01*
X115685000Y-98033646D01*
X115685000Y-85966353D01*
X115682113Y-85937045D01*
X115682156Y-85930933D01*
X115681223Y-85921415D01*
X115660822Y-85727318D01*
X115648339Y-85666504D01*
X115636705Y-85605519D01*
X115633941Y-85596363D01*
X115576229Y-85409925D01*
X115552170Y-85352692D01*
X115528913Y-85295127D01*
X115524423Y-85286682D01*
X115431598Y-85115006D01*
X115396878Y-85063532D01*
X115362883Y-85011582D01*
X115356838Y-85004170D01*
X115232435Y-84853793D01*
X115188362Y-84810027D01*
X115144943Y-84765689D01*
X115137574Y-84759592D01*
X114986332Y-84636242D01*
X114934614Y-84601881D01*
X114883393Y-84566809D01*
X114874980Y-84562260D01*
X114702657Y-84470635D01*
X114645261Y-84446978D01*
X114588193Y-84422519D01*
X114579057Y-84419690D01*
X114392220Y-84363281D01*
X114331302Y-84351219D01*
X114270590Y-84338314D01*
X114261078Y-84337314D01*
X114066845Y-84318269D01*
X114066837Y-84318269D01*
X114033647Y-84315000D01*
X101966353Y-84315000D01*
X101937045Y-84317887D01*
X101930933Y-84317844D01*
X101921415Y-84318777D01*
X101727318Y-84339178D01*
X101666504Y-84351661D01*
X101605519Y-84363295D01*
X101596363Y-84366059D01*
X101409925Y-84423771D01*
X101352692Y-84447830D01*
X101295127Y-84471087D01*
X101286682Y-84475577D01*
X101115006Y-84568402D01*
X101063532Y-84603122D01*
X101011582Y-84637117D01*
X101004170Y-84643162D01*
X100853793Y-84767565D01*
X100810027Y-84811638D01*
X100765689Y-84855057D01*
X100759592Y-84862426D01*
X100636242Y-85013668D01*
X100601881Y-85065386D01*
X100566809Y-85116607D01*
X100562260Y-85125020D01*
X100470635Y-85297343D01*
X100446978Y-85354739D01*
X100422519Y-85411807D01*
X100419690Y-85420943D01*
X100363281Y-85607780D01*
X100351219Y-85668698D01*
X100338314Y-85729410D01*
X100337314Y-85738922D01*
X100318269Y-85933155D01*
X100318269Y-85933173D01*
X100315001Y-85966353D01*
X100315000Y-98033646D01*
X96685000Y-98033646D01*
X96685000Y-85966353D01*
X96682113Y-85937045D01*
X96682156Y-85930933D01*
X96681223Y-85921415D01*
X96660822Y-85727318D01*
X96648339Y-85666504D01*
X96636705Y-85605519D01*
X96633941Y-85596363D01*
X96576229Y-85409925D01*
X96552170Y-85352692D01*
X96528913Y-85295127D01*
X96524423Y-85286682D01*
X96431598Y-85115006D01*
X96396878Y-85063532D01*
X96362883Y-85011582D01*
X96356838Y-85004170D01*
X96232435Y-84853793D01*
X96188362Y-84810027D01*
X96144943Y-84765689D01*
X96137574Y-84759592D01*
X95986332Y-84636242D01*
X95934614Y-84601881D01*
X95883393Y-84566809D01*
X95874980Y-84562260D01*
X95702657Y-84470635D01*
X95645261Y-84446978D01*
X95588193Y-84422519D01*
X95579057Y-84419690D01*
X95392220Y-84363281D01*
X95331302Y-84351219D01*
X95270590Y-84338314D01*
X95261078Y-84337314D01*
X95066845Y-84318269D01*
X95066837Y-84318269D01*
X95033647Y-84315000D01*
X82966353Y-84315000D01*
X82937045Y-84317887D01*
X82930933Y-84317844D01*
X82921415Y-84318777D01*
X82727318Y-84339178D01*
X82666504Y-84351661D01*
X82605519Y-84363295D01*
X82596363Y-84366059D01*
X82409925Y-84423771D01*
X82352692Y-84447830D01*
X82295127Y-84471087D01*
X82286682Y-84475577D01*
X82115006Y-84568402D01*
X82063532Y-84603122D01*
X82011582Y-84637117D01*
X82004170Y-84643162D01*
X81853793Y-84767565D01*
X81810027Y-84811638D01*
X81765689Y-84855057D01*
X81759592Y-84862426D01*
X81636242Y-85013668D01*
X81601881Y-85065386D01*
X81566809Y-85116607D01*
X81562260Y-85125020D01*
X81470635Y-85297343D01*
X81446978Y-85354739D01*
X81422519Y-85411807D01*
X81419690Y-85420943D01*
X81363281Y-85607780D01*
X81351219Y-85668698D01*
X81338314Y-85729410D01*
X81337314Y-85738922D01*
X81318269Y-85933155D01*
X81318269Y-85933173D01*
X81315001Y-85966353D01*
X81315000Y-98033646D01*
X78685000Y-98033646D01*
X78685000Y-82778166D01*
X129401439Y-82778166D01*
X129436550Y-82991588D01*
X129640826Y-83082458D01*
X129858905Y-83131731D01*
X130082406Y-83137511D01*
X130302740Y-83099577D01*
X130511440Y-83019387D01*
X130563450Y-82991588D01*
X130598561Y-82778166D01*
X130000000Y-82179605D01*
X129401439Y-82778166D01*
X78685000Y-82778166D01*
X78685000Y-82082406D01*
X128862489Y-82082406D01*
X128900423Y-82302740D01*
X128980613Y-82511440D01*
X129008412Y-82563450D01*
X129221834Y-82598561D01*
X129820395Y-82000000D01*
X130179605Y-82000000D01*
X130778166Y-82598561D01*
X130991588Y-82563450D01*
X131082458Y-82359174D01*
X131131731Y-82141095D01*
X131137511Y-81917594D01*
X131099577Y-81697260D01*
X131019387Y-81488560D01*
X130991588Y-81436550D01*
X130778166Y-81401439D01*
X130179605Y-82000000D01*
X129820395Y-82000000D01*
X129221834Y-81401439D01*
X129008412Y-81436550D01*
X128917542Y-81640826D01*
X128868269Y-81858905D01*
X128862489Y-82082406D01*
X78685000Y-82082406D01*
X78685000Y-81221834D01*
X129401439Y-81221834D01*
X130000000Y-81820395D01*
X130598561Y-81221834D01*
X130563450Y-81008412D01*
X130359174Y-80917542D01*
X130141095Y-80868269D01*
X129917594Y-80862489D01*
X129697260Y-80900423D01*
X129488560Y-80980613D01*
X129436550Y-81008412D01*
X129401439Y-81221834D01*
X78685000Y-81221834D01*
X78685000Y-79033646D01*
X81315000Y-79033646D01*
X81317887Y-79062954D01*
X81317844Y-79069066D01*
X81318777Y-79078585D01*
X81339178Y-79272682D01*
X81351661Y-79333496D01*
X81363295Y-79394481D01*
X81366059Y-79403637D01*
X81423771Y-79590075D01*
X81447818Y-79647279D01*
X81471087Y-79704873D01*
X81475577Y-79713317D01*
X81568402Y-79884994D01*
X81603122Y-79936468D01*
X81637117Y-79988418D01*
X81643161Y-79995829D01*
X81767565Y-80146207D01*
X81811638Y-80189973D01*
X81855057Y-80234311D01*
X81862426Y-80240408D01*
X82013668Y-80363758D01*
X82065397Y-80398126D01*
X82116608Y-80433191D01*
X82125016Y-80437737D01*
X82125020Y-80437740D01*
X82125024Y-80437742D01*
X82297343Y-80529366D01*
X82354739Y-80553022D01*
X82411807Y-80577482D01*
X82420944Y-80580310D01*
X82607780Y-80636719D01*
X82668690Y-80648780D01*
X82729409Y-80661686D01*
X82738921Y-80662686D01*
X82933155Y-80681731D01*
X82933163Y-80681731D01*
X82966353Y-80685000D01*
X95033647Y-80685000D01*
X95062955Y-80682113D01*
X95069066Y-80682156D01*
X95078585Y-80681223D01*
X95272682Y-80660822D01*
X95333496Y-80648339D01*
X95394481Y-80636705D01*
X95403637Y-80633941D01*
X95590075Y-80576229D01*
X95647279Y-80552182D01*
X95704873Y-80528913D01*
X95713317Y-80524423D01*
X95884994Y-80431598D01*
X95936468Y-80396878D01*
X95988418Y-80362883D01*
X95995829Y-80356839D01*
X96146207Y-80232435D01*
X96189973Y-80188362D01*
X96234311Y-80144943D01*
X96240408Y-80137574D01*
X96363758Y-79986332D01*
X96398126Y-79934603D01*
X96433191Y-79883392D01*
X96437739Y-79874981D01*
X96437740Y-79874980D01*
X96437742Y-79874976D01*
X96529366Y-79702657D01*
X96553022Y-79645261D01*
X96577482Y-79588193D01*
X96580310Y-79579056D01*
X96636719Y-79392220D01*
X96648780Y-79331310D01*
X96661686Y-79270591D01*
X96662686Y-79261079D01*
X96681731Y-79066845D01*
X96681731Y-79066837D01*
X96685000Y-79033647D01*
X96685000Y-79033646D01*
X100315000Y-79033646D01*
X100317887Y-79062954D01*
X100317844Y-79069066D01*
X100318777Y-79078585D01*
X100339178Y-79272682D01*
X100351661Y-79333496D01*
X100363295Y-79394481D01*
X100366059Y-79403637D01*
X100423771Y-79590075D01*
X100447818Y-79647279D01*
X100471087Y-79704873D01*
X100475577Y-79713317D01*
X100568402Y-79884994D01*
X100603122Y-79936468D01*
X100637117Y-79988418D01*
X100643161Y-79995829D01*
X100767565Y-80146207D01*
X100811638Y-80189973D01*
X100855057Y-80234311D01*
X100862426Y-80240408D01*
X101013668Y-80363758D01*
X101065397Y-80398126D01*
X101116608Y-80433191D01*
X101125016Y-80437737D01*
X101125020Y-80437740D01*
X101125024Y-80437742D01*
X101297343Y-80529366D01*
X101354739Y-80553022D01*
X101411807Y-80577482D01*
X101420944Y-80580310D01*
X101607780Y-80636719D01*
X101668690Y-80648780D01*
X101729409Y-80661686D01*
X101738921Y-80662686D01*
X101933155Y-80681731D01*
X101933163Y-80681731D01*
X101966353Y-80685000D01*
X114033647Y-80685000D01*
X114062955Y-80682113D01*
X114069066Y-80682156D01*
X114078585Y-80681223D01*
X114272682Y-80660822D01*
X114333496Y-80648339D01*
X114394481Y-80636705D01*
X114403637Y-80633941D01*
X114590075Y-80576229D01*
X114647279Y-80552182D01*
X114704873Y-80528913D01*
X114713317Y-80524423D01*
X114884994Y-80431598D01*
X114936468Y-80396878D01*
X114988418Y-80362883D01*
X114995829Y-80356839D01*
X115146207Y-80232435D01*
X115189973Y-80188362D01*
X115234311Y-80144943D01*
X115240408Y-80137574D01*
X115363758Y-79986332D01*
X115398126Y-79934603D01*
X115433191Y-79883392D01*
X115437739Y-79874981D01*
X115437740Y-79874980D01*
X115437742Y-79874976D01*
X115529366Y-79702657D01*
X115553022Y-79645261D01*
X115577482Y-79588193D01*
X115580310Y-79579056D01*
X115636719Y-79392220D01*
X115648780Y-79331310D01*
X115661686Y-79270591D01*
X115662686Y-79261079D01*
X115681731Y-79066845D01*
X115681731Y-79066837D01*
X115685000Y-79033647D01*
X115685000Y-79033646D01*
X119315000Y-79033646D01*
X119317887Y-79062954D01*
X119317844Y-79069066D01*
X119318777Y-79078585D01*
X119339178Y-79272682D01*
X119351661Y-79333496D01*
X119363295Y-79394481D01*
X119366059Y-79403637D01*
X119423771Y-79590075D01*
X119447818Y-79647279D01*
X119471087Y-79704873D01*
X119475577Y-79713317D01*
X119568402Y-79884994D01*
X119603122Y-79936468D01*
X119637117Y-79988418D01*
X119643161Y-79995829D01*
X119767565Y-80146207D01*
X119811638Y-80189973D01*
X119855057Y-80234311D01*
X119862426Y-80240408D01*
X120013668Y-80363758D01*
X120065397Y-80398126D01*
X120116608Y-80433191D01*
X120125016Y-80437737D01*
X120125020Y-80437740D01*
X120125024Y-80437742D01*
X120297343Y-80529366D01*
X120354739Y-80553022D01*
X120411807Y-80577482D01*
X120420944Y-80580310D01*
X120607780Y-80636719D01*
X120668690Y-80648780D01*
X120729409Y-80661686D01*
X120738921Y-80662686D01*
X120933155Y-80681731D01*
X120933163Y-80681731D01*
X120966353Y-80685000D01*
X133033647Y-80685000D01*
X133062955Y-80682113D01*
X133069066Y-80682156D01*
X133078585Y-80681223D01*
X133272682Y-80660822D01*
X133333496Y-80648339D01*
X133394481Y-80636705D01*
X133403637Y-80633941D01*
X133590075Y-80576229D01*
X133647279Y-80552182D01*
X133704873Y-80528913D01*
X133713317Y-80524423D01*
X133884994Y-80431598D01*
X133936468Y-80396878D01*
X133988418Y-80362883D01*
X133995829Y-80356839D01*
X134146207Y-80232435D01*
X134189973Y-80188362D01*
X134234311Y-80144943D01*
X134240408Y-80137574D01*
X134363758Y-79986332D01*
X134398126Y-79934603D01*
X134433191Y-79883392D01*
X134437739Y-79874981D01*
X134437740Y-79874980D01*
X134437742Y-79874976D01*
X134529366Y-79702657D01*
X134553022Y-79645261D01*
X134577482Y-79588193D01*
X134580310Y-79579056D01*
X134636719Y-79392220D01*
X134648780Y-79331310D01*
X134661686Y-79270591D01*
X134662686Y-79261079D01*
X134681731Y-79066845D01*
X134681731Y-79066837D01*
X134685000Y-79033647D01*
X134685000Y-79033646D01*
X138315000Y-79033646D01*
X138317887Y-79062954D01*
X138317844Y-79069066D01*
X138318777Y-79078585D01*
X138339178Y-79272682D01*
X138351661Y-79333496D01*
X138363295Y-79394481D01*
X138366059Y-79403637D01*
X138423771Y-79590075D01*
X138447818Y-79647279D01*
X138471087Y-79704873D01*
X138475577Y-79713317D01*
X138568402Y-79884994D01*
X138603122Y-79936468D01*
X138637117Y-79988418D01*
X138643161Y-79995829D01*
X138767565Y-80146207D01*
X138811638Y-80189973D01*
X138855057Y-80234311D01*
X138862426Y-80240408D01*
X139013668Y-80363758D01*
X139065397Y-80398126D01*
X139116608Y-80433191D01*
X139125016Y-80437737D01*
X139125020Y-80437740D01*
X139125024Y-80437742D01*
X139297343Y-80529366D01*
X139354739Y-80553022D01*
X139411807Y-80577482D01*
X139420944Y-80580310D01*
X139607780Y-80636719D01*
X139668690Y-80648780D01*
X139729409Y-80661686D01*
X139738921Y-80662686D01*
X139933155Y-80681731D01*
X139933163Y-80681731D01*
X139966353Y-80685000D01*
X152033647Y-80685000D01*
X152062955Y-80682113D01*
X152069066Y-80682156D01*
X152078585Y-80681223D01*
X152272682Y-80660822D01*
X152333496Y-80648339D01*
X152394481Y-80636705D01*
X152403637Y-80633941D01*
X152590075Y-80576229D01*
X152647279Y-80552182D01*
X152704873Y-80528913D01*
X152713317Y-80524423D01*
X152884994Y-80431598D01*
X152936468Y-80396878D01*
X152988418Y-80362883D01*
X152995829Y-80356839D01*
X153146207Y-80232435D01*
X153189973Y-80188362D01*
X153234311Y-80144943D01*
X153240408Y-80137574D01*
X153363758Y-79986332D01*
X153398126Y-79934603D01*
X153433191Y-79883392D01*
X153437739Y-79874981D01*
X153437740Y-79874980D01*
X153437742Y-79874976D01*
X153529366Y-79702657D01*
X153553022Y-79645261D01*
X153577482Y-79588193D01*
X153580310Y-79579056D01*
X153636719Y-79392220D01*
X153648780Y-79331310D01*
X153661686Y-79270591D01*
X153662686Y-79261079D01*
X153681731Y-79066845D01*
X153681731Y-79066837D01*
X153685000Y-79033647D01*
X153685000Y-79033646D01*
X157315000Y-79033646D01*
X157317887Y-79062954D01*
X157317844Y-79069066D01*
X157318777Y-79078585D01*
X157339178Y-79272682D01*
X157351661Y-79333496D01*
X157363295Y-79394481D01*
X157366059Y-79403637D01*
X157423771Y-79590075D01*
X157447818Y-79647279D01*
X157471087Y-79704873D01*
X157475577Y-79713317D01*
X157568402Y-79884994D01*
X157603122Y-79936468D01*
X157637117Y-79988418D01*
X157643161Y-79995829D01*
X157767565Y-80146207D01*
X157811638Y-80189973D01*
X157855057Y-80234311D01*
X157862426Y-80240408D01*
X158013668Y-80363758D01*
X158065397Y-80398126D01*
X158116608Y-80433191D01*
X158125016Y-80437737D01*
X158125020Y-80437740D01*
X158125024Y-80437742D01*
X158297343Y-80529366D01*
X158354739Y-80553022D01*
X158411807Y-80577482D01*
X158420944Y-80580310D01*
X158607780Y-80636719D01*
X158668690Y-80648780D01*
X158729409Y-80661686D01*
X158738921Y-80662686D01*
X158933155Y-80681731D01*
X158933163Y-80681731D01*
X158966353Y-80685000D01*
X171033647Y-80685000D01*
X171062955Y-80682113D01*
X171069066Y-80682156D01*
X171078585Y-80681223D01*
X171272682Y-80660822D01*
X171333496Y-80648339D01*
X171394481Y-80636705D01*
X171403637Y-80633941D01*
X171590075Y-80576229D01*
X171647279Y-80552182D01*
X171704873Y-80528913D01*
X171713317Y-80524423D01*
X171884994Y-80431598D01*
X171936468Y-80396878D01*
X171988418Y-80362883D01*
X171995829Y-80356839D01*
X172146207Y-80232435D01*
X172189973Y-80188362D01*
X172234311Y-80144943D01*
X172240408Y-80137574D01*
X172363758Y-79986332D01*
X172398126Y-79934603D01*
X172433191Y-79883392D01*
X172437739Y-79874981D01*
X172437740Y-79874980D01*
X172437742Y-79874976D01*
X172529366Y-79702657D01*
X172553022Y-79645261D01*
X172577482Y-79588193D01*
X172580310Y-79579056D01*
X172636719Y-79392220D01*
X172648780Y-79331310D01*
X172661686Y-79270591D01*
X172662686Y-79261079D01*
X172681731Y-79066845D01*
X172681731Y-79066837D01*
X172685000Y-79033647D01*
X172685000Y-66966353D01*
X172682113Y-66937045D01*
X172682156Y-66930933D01*
X172681223Y-66921415D01*
X172660822Y-66727318D01*
X172648339Y-66666504D01*
X172636705Y-66605519D01*
X172633941Y-66596363D01*
X172576229Y-66409925D01*
X172552170Y-66352692D01*
X172528913Y-66295127D01*
X172524423Y-66286682D01*
X172431598Y-66115006D01*
X172396878Y-66063532D01*
X172362883Y-66011582D01*
X172356838Y-66004170D01*
X172232435Y-65853793D01*
X172188362Y-65810027D01*
X172144943Y-65765689D01*
X172137574Y-65759592D01*
X171986332Y-65636242D01*
X171934614Y-65601881D01*
X171883393Y-65566809D01*
X171874980Y-65562260D01*
X171702657Y-65470635D01*
X171645261Y-65446978D01*
X171588193Y-65422519D01*
X171579057Y-65419690D01*
X171392220Y-65363281D01*
X171331302Y-65351219D01*
X171270590Y-65338314D01*
X171261078Y-65337314D01*
X171066845Y-65318269D01*
X171066837Y-65318269D01*
X171033647Y-65315000D01*
X158966353Y-65315000D01*
X158937045Y-65317887D01*
X158930933Y-65317844D01*
X158921415Y-65318777D01*
X158727318Y-65339178D01*
X158666504Y-65351661D01*
X158605519Y-65363295D01*
X158596363Y-65366059D01*
X158409925Y-65423771D01*
X158352692Y-65447830D01*
X158295127Y-65471087D01*
X158286682Y-65475577D01*
X158115006Y-65568402D01*
X158063532Y-65603122D01*
X158011582Y-65637117D01*
X158004170Y-65643162D01*
X157853793Y-65767565D01*
X157810027Y-65811638D01*
X157765689Y-65855057D01*
X157759592Y-65862426D01*
X157636242Y-66013668D01*
X157601881Y-66065386D01*
X157566809Y-66116607D01*
X157562260Y-66125020D01*
X157470635Y-66297343D01*
X157446978Y-66354739D01*
X157422519Y-66411807D01*
X157419690Y-66420943D01*
X157363281Y-66607780D01*
X157351219Y-66668698D01*
X157338314Y-66729410D01*
X157337314Y-66738922D01*
X157318269Y-66933155D01*
X157318269Y-66933173D01*
X157315001Y-66966353D01*
X157315000Y-79033646D01*
X153685000Y-79033646D01*
X153685000Y-66966353D01*
X153682113Y-66937045D01*
X153682156Y-66930933D01*
X153681223Y-66921415D01*
X153660822Y-66727318D01*
X153648339Y-66666504D01*
X153636705Y-66605519D01*
X153633941Y-66596363D01*
X153576229Y-66409925D01*
X153552170Y-66352692D01*
X153528913Y-66295127D01*
X153524423Y-66286682D01*
X153431598Y-66115006D01*
X153396878Y-66063532D01*
X153362883Y-66011582D01*
X153356838Y-66004170D01*
X153232435Y-65853793D01*
X153188362Y-65810027D01*
X153144943Y-65765689D01*
X153137574Y-65759592D01*
X152986332Y-65636242D01*
X152934614Y-65601881D01*
X152883393Y-65566809D01*
X152874980Y-65562260D01*
X152702657Y-65470635D01*
X152645261Y-65446978D01*
X152588193Y-65422519D01*
X152579057Y-65419690D01*
X152392220Y-65363281D01*
X152331302Y-65351219D01*
X152270590Y-65338314D01*
X152261078Y-65337314D01*
X152066845Y-65318269D01*
X152066837Y-65318269D01*
X152033647Y-65315000D01*
X139966353Y-65315000D01*
X139937045Y-65317887D01*
X139930933Y-65317844D01*
X139921415Y-65318777D01*
X139727318Y-65339178D01*
X139666504Y-65351661D01*
X139605519Y-65363295D01*
X139596363Y-65366059D01*
X139409925Y-65423771D01*
X139352692Y-65447830D01*
X139295127Y-65471087D01*
X139286682Y-65475577D01*
X139115006Y-65568402D01*
X139063532Y-65603122D01*
X139011582Y-65637117D01*
X139004170Y-65643162D01*
X138853793Y-65767565D01*
X138810027Y-65811638D01*
X138765689Y-65855057D01*
X138759592Y-65862426D01*
X138636242Y-66013668D01*
X138601881Y-66065386D01*
X138566809Y-66116607D01*
X138562260Y-66125020D01*
X138470635Y-66297343D01*
X138446978Y-66354739D01*
X138422519Y-66411807D01*
X138419690Y-66420943D01*
X138363281Y-66607780D01*
X138351219Y-66668698D01*
X138338314Y-66729410D01*
X138337314Y-66738922D01*
X138318269Y-66933155D01*
X138318269Y-66933173D01*
X138315001Y-66966353D01*
X138315000Y-79033646D01*
X134685000Y-79033646D01*
X134685000Y-66966353D01*
X134682113Y-66937045D01*
X134682156Y-66930933D01*
X134681223Y-66921415D01*
X134660822Y-66727318D01*
X134648339Y-66666504D01*
X134636705Y-66605519D01*
X134633941Y-66596363D01*
X134576229Y-66409925D01*
X134552170Y-66352692D01*
X134528913Y-66295127D01*
X134524423Y-66286682D01*
X134431598Y-66115006D01*
X134396878Y-66063532D01*
X134362883Y-66011582D01*
X134356838Y-66004170D01*
X134232435Y-65853793D01*
X134188362Y-65810027D01*
X134144943Y-65765689D01*
X134137574Y-65759592D01*
X133986332Y-65636242D01*
X133934614Y-65601881D01*
X133883393Y-65566809D01*
X133874980Y-65562260D01*
X133702657Y-65470635D01*
X133645261Y-65446978D01*
X133588193Y-65422519D01*
X133579057Y-65419690D01*
X133392220Y-65363281D01*
X133331302Y-65351219D01*
X133270590Y-65338314D01*
X133261078Y-65337314D01*
X133066845Y-65318269D01*
X133066837Y-65318269D01*
X133033647Y-65315000D01*
X120966353Y-65315000D01*
X120937045Y-65317887D01*
X120930933Y-65317844D01*
X120921415Y-65318777D01*
X120727318Y-65339178D01*
X120666504Y-65351661D01*
X120605519Y-65363295D01*
X120596363Y-65366059D01*
X120409925Y-65423771D01*
X120352692Y-65447830D01*
X120295127Y-65471087D01*
X120286682Y-65475577D01*
X120115006Y-65568402D01*
X120063532Y-65603122D01*
X120011582Y-65637117D01*
X120004170Y-65643162D01*
X119853793Y-65767565D01*
X119810027Y-65811638D01*
X119765689Y-65855057D01*
X119759592Y-65862426D01*
X119636242Y-66013668D01*
X119601881Y-66065386D01*
X119566809Y-66116607D01*
X119562260Y-66125020D01*
X119470635Y-66297343D01*
X119446978Y-66354739D01*
X119422519Y-66411807D01*
X119419690Y-66420943D01*
X119363281Y-66607780D01*
X119351219Y-66668698D01*
X119338314Y-66729410D01*
X119337314Y-66738922D01*
X119318269Y-66933155D01*
X119318269Y-66933173D01*
X119315001Y-66966353D01*
X119315000Y-79033646D01*
X115685000Y-79033646D01*
X115685000Y-66966353D01*
X115682113Y-66937045D01*
X115682156Y-66930933D01*
X115681223Y-66921415D01*
X115660822Y-66727318D01*
X115648339Y-66666504D01*
X115636705Y-66605519D01*
X115633941Y-66596363D01*
X115576229Y-66409925D01*
X115552170Y-66352692D01*
X115528913Y-66295127D01*
X115524423Y-66286682D01*
X115431598Y-66115006D01*
X115396878Y-66063532D01*
X115362883Y-66011582D01*
X115356838Y-66004170D01*
X115232435Y-65853793D01*
X115188362Y-65810027D01*
X115144943Y-65765689D01*
X115137574Y-65759592D01*
X114986332Y-65636242D01*
X114934614Y-65601881D01*
X114883393Y-65566809D01*
X114874980Y-65562260D01*
X114702657Y-65470635D01*
X114645261Y-65446978D01*
X114588193Y-65422519D01*
X114579057Y-65419690D01*
X114392220Y-65363281D01*
X114331302Y-65351219D01*
X114270590Y-65338314D01*
X114261078Y-65337314D01*
X114066845Y-65318269D01*
X114066837Y-65318269D01*
X114033647Y-65315000D01*
X101966353Y-65315000D01*
X101937045Y-65317887D01*
X101930933Y-65317844D01*
X101921415Y-65318777D01*
X101727318Y-65339178D01*
X101666504Y-65351661D01*
X101605519Y-65363295D01*
X101596363Y-65366059D01*
X101409925Y-65423771D01*
X101352692Y-65447830D01*
X101295127Y-65471087D01*
X101286682Y-65475577D01*
X101115006Y-65568402D01*
X101063532Y-65603122D01*
X101011582Y-65637117D01*
X101004170Y-65643162D01*
X100853793Y-65767565D01*
X100810027Y-65811638D01*
X100765689Y-65855057D01*
X100759592Y-65862426D01*
X100636242Y-66013668D01*
X100601881Y-66065386D01*
X100566809Y-66116607D01*
X100562260Y-66125020D01*
X100470635Y-66297343D01*
X100446978Y-66354739D01*
X100422519Y-66411807D01*
X100419690Y-66420943D01*
X100363281Y-66607780D01*
X100351219Y-66668698D01*
X100338314Y-66729410D01*
X100337314Y-66738922D01*
X100318269Y-66933155D01*
X100318269Y-66933173D01*
X100315001Y-66966353D01*
X100315000Y-79033646D01*
X96685000Y-79033646D01*
X96685000Y-66966353D01*
X96682113Y-66937045D01*
X96682156Y-66930933D01*
X96681223Y-66921415D01*
X96660822Y-66727318D01*
X96648339Y-66666504D01*
X96636705Y-66605519D01*
X96633941Y-66596363D01*
X96576229Y-66409925D01*
X96552170Y-66352692D01*
X96528913Y-66295127D01*
X96524423Y-66286682D01*
X96431598Y-66115006D01*
X96396878Y-66063532D01*
X96362883Y-66011582D01*
X96356838Y-66004170D01*
X96232435Y-65853793D01*
X96188362Y-65810027D01*
X96144943Y-65765689D01*
X96137574Y-65759592D01*
X95986332Y-65636242D01*
X95934614Y-65601881D01*
X95883393Y-65566809D01*
X95874980Y-65562260D01*
X95702657Y-65470635D01*
X95645261Y-65446978D01*
X95588193Y-65422519D01*
X95579057Y-65419690D01*
X95392220Y-65363281D01*
X95331302Y-65351219D01*
X95270590Y-65338314D01*
X95261078Y-65337314D01*
X95066845Y-65318269D01*
X95066837Y-65318269D01*
X95033647Y-65315000D01*
X82966353Y-65315000D01*
X82937045Y-65317887D01*
X82930933Y-65317844D01*
X82921415Y-65318777D01*
X82727318Y-65339178D01*
X82666504Y-65351661D01*
X82605519Y-65363295D01*
X82596363Y-65366059D01*
X82409925Y-65423771D01*
X82352692Y-65447830D01*
X82295127Y-65471087D01*
X82286682Y-65475577D01*
X82115006Y-65568402D01*
X82063532Y-65603122D01*
X82011582Y-65637117D01*
X82004170Y-65643162D01*
X81853793Y-65767565D01*
X81810027Y-65811638D01*
X81765689Y-65855057D01*
X81759592Y-65862426D01*
X81636242Y-66013668D01*
X81601881Y-66065386D01*
X81566809Y-66116607D01*
X81562260Y-66125020D01*
X81470635Y-66297343D01*
X81446978Y-66354739D01*
X81422519Y-66411807D01*
X81419690Y-66420943D01*
X81363281Y-66607780D01*
X81351219Y-66668698D01*
X81338314Y-66729410D01*
X81337314Y-66738922D01*
X81318269Y-66933155D01*
X81318269Y-66933173D01*
X81315001Y-66966353D01*
X81315000Y-79033646D01*
X78685000Y-79033646D01*
X78685000Y-63329117D01*
X96765000Y-63329117D01*
X96765000Y-63670883D01*
X96831675Y-64006081D01*
X96962463Y-64321831D01*
X97152337Y-64605998D01*
X97394002Y-64847663D01*
X97678169Y-65037537D01*
X97993919Y-65168325D01*
X98329117Y-65235000D01*
X98670883Y-65235000D01*
X99006081Y-65168325D01*
X99321831Y-65037537D01*
X99605998Y-64847663D01*
X99847663Y-64605998D01*
X100037537Y-64321831D01*
X100168325Y-64006081D01*
X100235000Y-63670883D01*
X100235000Y-63329117D01*
X153765000Y-63329117D01*
X153765000Y-63670883D01*
X153831675Y-64006081D01*
X153962463Y-64321831D01*
X154152337Y-64605998D01*
X154394002Y-64847663D01*
X154678169Y-65037537D01*
X154993919Y-65168325D01*
X155329117Y-65235000D01*
X155670883Y-65235000D01*
X156006081Y-65168325D01*
X156321831Y-65037537D01*
X156605998Y-64847663D01*
X156847663Y-64605998D01*
X157037537Y-64321831D01*
X157168325Y-64006081D01*
X157235000Y-63670883D01*
X157235000Y-63329117D01*
X157168325Y-62993919D01*
X157037537Y-62678169D01*
X156847663Y-62394002D01*
X156605998Y-62152337D01*
X156321831Y-61962463D01*
X156006081Y-61831675D01*
X155670883Y-61765000D01*
X155329117Y-61765000D01*
X154993919Y-61831675D01*
X154678169Y-61962463D01*
X154394002Y-62152337D01*
X154152337Y-62394002D01*
X153962463Y-62678169D01*
X153831675Y-62993919D01*
X153765000Y-63329117D01*
X100235000Y-63329117D01*
X100168325Y-62993919D01*
X100037537Y-62678169D01*
X99847663Y-62394002D01*
X99605998Y-62152337D01*
X99321831Y-61962463D01*
X99006081Y-61831675D01*
X98670883Y-61765000D01*
X98329117Y-61765000D01*
X97993919Y-61831675D01*
X97678169Y-61962463D01*
X97394002Y-62152337D01*
X97152337Y-62394002D01*
X96962463Y-62678169D01*
X96831675Y-62993919D01*
X96765000Y-63329117D01*
X78685000Y-63329117D01*
X78685000Y-60033646D01*
X81315000Y-60033646D01*
X81317887Y-60062954D01*
X81317844Y-60069066D01*
X81318777Y-60078585D01*
X81339178Y-60272682D01*
X81351661Y-60333496D01*
X81363295Y-60394481D01*
X81366059Y-60403637D01*
X81423771Y-60590075D01*
X81447818Y-60647279D01*
X81471087Y-60704873D01*
X81475577Y-60713317D01*
X81568402Y-60884994D01*
X81603122Y-60936468D01*
X81637117Y-60988418D01*
X81643161Y-60995829D01*
X81767565Y-61146207D01*
X81811638Y-61189973D01*
X81855057Y-61234311D01*
X81862426Y-61240408D01*
X82013668Y-61363758D01*
X82065397Y-61398126D01*
X82116608Y-61433191D01*
X82125016Y-61437737D01*
X82125020Y-61437740D01*
X82125024Y-61437742D01*
X82297343Y-61529366D01*
X82354739Y-61553022D01*
X82411807Y-61577482D01*
X82420944Y-61580310D01*
X82607780Y-61636719D01*
X82668690Y-61648780D01*
X82729409Y-61661686D01*
X82738921Y-61662686D01*
X82933155Y-61681731D01*
X82933163Y-61681731D01*
X82966353Y-61685000D01*
X95033647Y-61685000D01*
X95062955Y-61682113D01*
X95069066Y-61682156D01*
X95078585Y-61681223D01*
X95272682Y-61660822D01*
X95333496Y-61648339D01*
X95394481Y-61636705D01*
X95403637Y-61633941D01*
X95590075Y-61576229D01*
X95647279Y-61552182D01*
X95704873Y-61528913D01*
X95713317Y-61524423D01*
X95884994Y-61431598D01*
X95936468Y-61396878D01*
X95988418Y-61362883D01*
X95995829Y-61356839D01*
X96146207Y-61232435D01*
X96189973Y-61188362D01*
X96234311Y-61144943D01*
X96240408Y-61137574D01*
X96363758Y-60986332D01*
X96398126Y-60934603D01*
X96433191Y-60883392D01*
X96437739Y-60874981D01*
X96437740Y-60874980D01*
X96437742Y-60874976D01*
X96529366Y-60702657D01*
X96553022Y-60645261D01*
X96577482Y-60588193D01*
X96580310Y-60579056D01*
X96636719Y-60392220D01*
X96648780Y-60331310D01*
X96661686Y-60270591D01*
X96662686Y-60261079D01*
X96681731Y-60066845D01*
X96681731Y-60066837D01*
X96685000Y-60033647D01*
X96685000Y-60033646D01*
X100315000Y-60033646D01*
X100317887Y-60062954D01*
X100317844Y-60069066D01*
X100318777Y-60078585D01*
X100339178Y-60272682D01*
X100351661Y-60333496D01*
X100363295Y-60394481D01*
X100366059Y-60403637D01*
X100423771Y-60590075D01*
X100447818Y-60647279D01*
X100471087Y-60704873D01*
X100475577Y-60713317D01*
X100568402Y-60884994D01*
X100603122Y-60936468D01*
X100637117Y-60988418D01*
X100643161Y-60995829D01*
X100767565Y-61146207D01*
X100811638Y-61189973D01*
X100855057Y-61234311D01*
X100862426Y-61240408D01*
X101013668Y-61363758D01*
X101065397Y-61398126D01*
X101116608Y-61433191D01*
X101125016Y-61437737D01*
X101125020Y-61437740D01*
X101125024Y-61437742D01*
X101297343Y-61529366D01*
X101354739Y-61553022D01*
X101411807Y-61577482D01*
X101420944Y-61580310D01*
X101607780Y-61636719D01*
X101668690Y-61648780D01*
X101729409Y-61661686D01*
X101738921Y-61662686D01*
X101933155Y-61681731D01*
X101933163Y-61681731D01*
X101966353Y-61685000D01*
X114033647Y-61685000D01*
X114062955Y-61682113D01*
X114069066Y-61682156D01*
X114078585Y-61681223D01*
X114272682Y-61660822D01*
X114333496Y-61648339D01*
X114394481Y-61636705D01*
X114403637Y-61633941D01*
X114590075Y-61576229D01*
X114647279Y-61552182D01*
X114704873Y-61528913D01*
X114713317Y-61524423D01*
X114884994Y-61431598D01*
X114936468Y-61396878D01*
X114988418Y-61362883D01*
X114995829Y-61356839D01*
X115146207Y-61232435D01*
X115189973Y-61188362D01*
X115234311Y-61144943D01*
X115240408Y-61137574D01*
X115363758Y-60986332D01*
X115398126Y-60934603D01*
X115433191Y-60883392D01*
X115437739Y-60874981D01*
X115437740Y-60874980D01*
X115437742Y-60874976D01*
X115529366Y-60702657D01*
X115553022Y-60645261D01*
X115577482Y-60588193D01*
X115580310Y-60579056D01*
X115636719Y-60392220D01*
X115648780Y-60331310D01*
X115661686Y-60270591D01*
X115662686Y-60261079D01*
X115681731Y-60066845D01*
X115681731Y-60066837D01*
X115685000Y-60033647D01*
X115685000Y-60033646D01*
X119315000Y-60033646D01*
X119317887Y-60062954D01*
X119317844Y-60069066D01*
X119318777Y-60078585D01*
X119339178Y-60272682D01*
X119351661Y-60333496D01*
X119363295Y-60394481D01*
X119366059Y-60403637D01*
X119423771Y-60590075D01*
X119447818Y-60647279D01*
X119471087Y-60704873D01*
X119475577Y-60713317D01*
X119568402Y-60884994D01*
X119603122Y-60936468D01*
X119637117Y-60988418D01*
X119643161Y-60995829D01*
X119767565Y-61146207D01*
X119811638Y-61189973D01*
X119855057Y-61234311D01*
X119862426Y-61240408D01*
X120013668Y-61363758D01*
X120065397Y-61398126D01*
X120116608Y-61433191D01*
X120125016Y-61437737D01*
X120125020Y-61437740D01*
X120125024Y-61437742D01*
X120297343Y-61529366D01*
X120354739Y-61553022D01*
X120411807Y-61577482D01*
X120420944Y-61580310D01*
X120607780Y-61636719D01*
X120668690Y-61648780D01*
X120729409Y-61661686D01*
X120738921Y-61662686D01*
X120933155Y-61681731D01*
X120933163Y-61681731D01*
X120966353Y-61685000D01*
X133033647Y-61685000D01*
X133062955Y-61682113D01*
X133069066Y-61682156D01*
X133078585Y-61681223D01*
X133272682Y-61660822D01*
X133333496Y-61648339D01*
X133394481Y-61636705D01*
X133403637Y-61633941D01*
X133590075Y-61576229D01*
X133647279Y-61552182D01*
X133704873Y-61528913D01*
X133713317Y-61524423D01*
X133884994Y-61431598D01*
X133936468Y-61396878D01*
X133988418Y-61362883D01*
X133995829Y-61356839D01*
X134146207Y-61232435D01*
X134189973Y-61188362D01*
X134234311Y-61144943D01*
X134240408Y-61137574D01*
X134363758Y-60986332D01*
X134398126Y-60934603D01*
X134433191Y-60883392D01*
X134437739Y-60874981D01*
X134437740Y-60874980D01*
X134437742Y-60874976D01*
X134529366Y-60702657D01*
X134553022Y-60645261D01*
X134577482Y-60588193D01*
X134580310Y-60579056D01*
X134636719Y-60392220D01*
X134648780Y-60331310D01*
X134661686Y-60270591D01*
X134662686Y-60261079D01*
X134681731Y-60066845D01*
X134681731Y-60066837D01*
X134685000Y-60033647D01*
X134685000Y-60033646D01*
X138315000Y-60033646D01*
X138317887Y-60062954D01*
X138317844Y-60069066D01*
X138318777Y-60078585D01*
X138339178Y-60272682D01*
X138351661Y-60333496D01*
X138363295Y-60394481D01*
X138366059Y-60403637D01*
X138423771Y-60590075D01*
X138447818Y-60647279D01*
X138471087Y-60704873D01*
X138475577Y-60713317D01*
X138568402Y-60884994D01*
X138603122Y-60936468D01*
X138637117Y-60988418D01*
X138643161Y-60995829D01*
X138767565Y-61146207D01*
X138811638Y-61189973D01*
X138855057Y-61234311D01*
X138862426Y-61240408D01*
X139013668Y-61363758D01*
X139065397Y-61398126D01*
X139116608Y-61433191D01*
X139125016Y-61437737D01*
X139125020Y-61437740D01*
X139125024Y-61437742D01*
X139297343Y-61529366D01*
X139354739Y-61553022D01*
X139411807Y-61577482D01*
X139420944Y-61580310D01*
X139607780Y-61636719D01*
X139668690Y-61648780D01*
X139729409Y-61661686D01*
X139738921Y-61662686D01*
X139933155Y-61681731D01*
X139933163Y-61681731D01*
X139966353Y-61685000D01*
X152033647Y-61685000D01*
X152062955Y-61682113D01*
X152069066Y-61682156D01*
X152078585Y-61681223D01*
X152272682Y-61660822D01*
X152333496Y-61648339D01*
X152394481Y-61636705D01*
X152403637Y-61633941D01*
X152590075Y-61576229D01*
X152647279Y-61552182D01*
X152704873Y-61528913D01*
X152713317Y-61524423D01*
X152884994Y-61431598D01*
X152936468Y-61396878D01*
X152988418Y-61362883D01*
X152995829Y-61356839D01*
X153146207Y-61232435D01*
X153189973Y-61188362D01*
X153234311Y-61144943D01*
X153240408Y-61137574D01*
X153363758Y-60986332D01*
X153398126Y-60934603D01*
X153433191Y-60883392D01*
X153437739Y-60874981D01*
X153437740Y-60874980D01*
X153437742Y-60874976D01*
X153529366Y-60702657D01*
X153553022Y-60645261D01*
X153577482Y-60588193D01*
X153580310Y-60579056D01*
X153636719Y-60392220D01*
X153648780Y-60331310D01*
X153661686Y-60270591D01*
X153662686Y-60261079D01*
X153681731Y-60066845D01*
X153681731Y-60066837D01*
X153685000Y-60033647D01*
X153685000Y-60033646D01*
X157315000Y-60033646D01*
X157317887Y-60062954D01*
X157317844Y-60069066D01*
X157318777Y-60078585D01*
X157339178Y-60272682D01*
X157351661Y-60333496D01*
X157363295Y-60394481D01*
X157366059Y-60403637D01*
X157423771Y-60590075D01*
X157447818Y-60647279D01*
X157471087Y-60704873D01*
X157475577Y-60713317D01*
X157568402Y-60884994D01*
X157603122Y-60936468D01*
X157637117Y-60988418D01*
X157643161Y-60995829D01*
X157767565Y-61146207D01*
X157811638Y-61189973D01*
X157855057Y-61234311D01*
X157862426Y-61240408D01*
X158013668Y-61363758D01*
X158065397Y-61398126D01*
X158116608Y-61433191D01*
X158125016Y-61437737D01*
X158125020Y-61437740D01*
X158125024Y-61437742D01*
X158297343Y-61529366D01*
X158354739Y-61553022D01*
X158411807Y-61577482D01*
X158420944Y-61580310D01*
X158607780Y-61636719D01*
X158668690Y-61648780D01*
X158729409Y-61661686D01*
X158738921Y-61662686D01*
X158933155Y-61681731D01*
X158933163Y-61681731D01*
X158966353Y-61685000D01*
X171033647Y-61685000D01*
X171062955Y-61682113D01*
X171069066Y-61682156D01*
X171078585Y-61681223D01*
X171272682Y-61660822D01*
X171333496Y-61648339D01*
X171394481Y-61636705D01*
X171403637Y-61633941D01*
X171590075Y-61576229D01*
X171647279Y-61552182D01*
X171704873Y-61528913D01*
X171713317Y-61524423D01*
X171884994Y-61431598D01*
X171936468Y-61396878D01*
X171988418Y-61362883D01*
X171995829Y-61356839D01*
X172146207Y-61232435D01*
X172189973Y-61188362D01*
X172234311Y-61144943D01*
X172240408Y-61137574D01*
X172363758Y-60986332D01*
X172398126Y-60934603D01*
X172433191Y-60883392D01*
X172437739Y-60874981D01*
X172437740Y-60874980D01*
X172437742Y-60874976D01*
X172529366Y-60702657D01*
X172553022Y-60645261D01*
X172577482Y-60588193D01*
X172580310Y-60579056D01*
X172636719Y-60392220D01*
X172648780Y-60331310D01*
X172661686Y-60270591D01*
X172662686Y-60261079D01*
X172681731Y-60066845D01*
X172681731Y-60066837D01*
X172685000Y-60033647D01*
X172685000Y-47966353D01*
X172682113Y-47937045D01*
X172682156Y-47930933D01*
X172681223Y-47921415D01*
X172660822Y-47727318D01*
X172648339Y-47666504D01*
X172636705Y-47605519D01*
X172633941Y-47596363D01*
X172576229Y-47409925D01*
X172552170Y-47352692D01*
X172528913Y-47295127D01*
X172524423Y-47286682D01*
X172431598Y-47115006D01*
X172396878Y-47063532D01*
X172362883Y-47011582D01*
X172356838Y-47004170D01*
X172232435Y-46853793D01*
X172188362Y-46810027D01*
X172144943Y-46765689D01*
X172137574Y-46759592D01*
X171986332Y-46636242D01*
X171934614Y-46601881D01*
X171883393Y-46566809D01*
X171874980Y-46562260D01*
X171702657Y-46470635D01*
X171645261Y-46446978D01*
X171588193Y-46422519D01*
X171579057Y-46419690D01*
X171392220Y-46363281D01*
X171331302Y-46351219D01*
X171270590Y-46338314D01*
X171261078Y-46337314D01*
X171066845Y-46318269D01*
X171066837Y-46318269D01*
X171033647Y-46315000D01*
X158966353Y-46315000D01*
X158937045Y-46317887D01*
X158930933Y-46317844D01*
X158921415Y-46318777D01*
X158727318Y-46339178D01*
X158666504Y-46351661D01*
X158605519Y-46363295D01*
X158596363Y-46366059D01*
X158409925Y-46423771D01*
X158352692Y-46447830D01*
X158295127Y-46471087D01*
X158286682Y-46475577D01*
X158115006Y-46568402D01*
X158063532Y-46603122D01*
X158011582Y-46637117D01*
X158004170Y-46643162D01*
X157853793Y-46767565D01*
X157810027Y-46811638D01*
X157765689Y-46855057D01*
X157759592Y-46862426D01*
X157636242Y-47013668D01*
X157601881Y-47065386D01*
X157566809Y-47116607D01*
X157562260Y-47125020D01*
X157470635Y-47297343D01*
X157446978Y-47354739D01*
X157422519Y-47411807D01*
X157419690Y-47420943D01*
X157363281Y-47607780D01*
X157351219Y-47668698D01*
X157338314Y-47729410D01*
X157337314Y-47738922D01*
X157318269Y-47933155D01*
X157318269Y-47933173D01*
X157315001Y-47966353D01*
X157315000Y-60033646D01*
X153685000Y-60033646D01*
X153685000Y-47966353D01*
X153682113Y-47937045D01*
X153682156Y-47930933D01*
X153681223Y-47921415D01*
X153660822Y-47727318D01*
X153648339Y-47666504D01*
X153636705Y-47605519D01*
X153633941Y-47596363D01*
X153576229Y-47409925D01*
X153552170Y-47352692D01*
X153528913Y-47295127D01*
X153524423Y-47286682D01*
X153431598Y-47115006D01*
X153396878Y-47063532D01*
X153362883Y-47011582D01*
X153356838Y-47004170D01*
X153232435Y-46853793D01*
X153188362Y-46810027D01*
X153144943Y-46765689D01*
X153137574Y-46759592D01*
X152986332Y-46636242D01*
X152934614Y-46601881D01*
X152883393Y-46566809D01*
X152874980Y-46562260D01*
X152702657Y-46470635D01*
X152645261Y-46446978D01*
X152588193Y-46422519D01*
X152579057Y-46419690D01*
X152392220Y-46363281D01*
X152331302Y-46351219D01*
X152270590Y-46338314D01*
X152261078Y-46337314D01*
X152066845Y-46318269D01*
X152066837Y-46318269D01*
X152033647Y-46315000D01*
X139966353Y-46315000D01*
X139937045Y-46317887D01*
X139930933Y-46317844D01*
X139921415Y-46318777D01*
X139727318Y-46339178D01*
X139666504Y-46351661D01*
X139605519Y-46363295D01*
X139596363Y-46366059D01*
X139409925Y-46423771D01*
X139352692Y-46447830D01*
X139295127Y-46471087D01*
X139286682Y-46475577D01*
X139115006Y-46568402D01*
X139063532Y-46603122D01*
X139011582Y-46637117D01*
X139004170Y-46643162D01*
X138853793Y-46767565D01*
X138810027Y-46811638D01*
X138765689Y-46855057D01*
X138759592Y-46862426D01*
X138636242Y-47013668D01*
X138601881Y-47065386D01*
X138566809Y-47116607D01*
X138562260Y-47125020D01*
X138470635Y-47297343D01*
X138446978Y-47354739D01*
X138422519Y-47411807D01*
X138419690Y-47420943D01*
X138363281Y-47607780D01*
X138351219Y-47668698D01*
X138338314Y-47729410D01*
X138337314Y-47738922D01*
X138318269Y-47933155D01*
X138318269Y-47933173D01*
X138315001Y-47966353D01*
X138315000Y-60033646D01*
X134685000Y-60033646D01*
X134685000Y-47966353D01*
X134682113Y-47937045D01*
X134682156Y-47930933D01*
X134681223Y-47921415D01*
X134660822Y-47727318D01*
X134648339Y-47666504D01*
X134636705Y-47605519D01*
X134633941Y-47596363D01*
X134576229Y-47409925D01*
X134552170Y-47352692D01*
X134528913Y-47295127D01*
X134524423Y-47286682D01*
X134431598Y-47115006D01*
X134396878Y-47063532D01*
X134362883Y-47011582D01*
X134356838Y-47004170D01*
X134232435Y-46853793D01*
X134188362Y-46810027D01*
X134144943Y-46765689D01*
X134137574Y-46759592D01*
X133986332Y-46636242D01*
X133934614Y-46601881D01*
X133883393Y-46566809D01*
X133874980Y-46562260D01*
X133702657Y-46470635D01*
X133645261Y-46446978D01*
X133588193Y-46422519D01*
X133579057Y-46419690D01*
X133392220Y-46363281D01*
X133331302Y-46351219D01*
X133270590Y-46338314D01*
X133261078Y-46337314D01*
X133066845Y-46318269D01*
X133066837Y-46318269D01*
X133033647Y-46315000D01*
X120966353Y-46315000D01*
X120937045Y-46317887D01*
X120930933Y-46317844D01*
X120921415Y-46318777D01*
X120727318Y-46339178D01*
X120666504Y-46351661D01*
X120605519Y-46363295D01*
X120596363Y-46366059D01*
X120409925Y-46423771D01*
X120352692Y-46447830D01*
X120295127Y-46471087D01*
X120286682Y-46475577D01*
X120115006Y-46568402D01*
X120063532Y-46603122D01*
X120011582Y-46637117D01*
X120004170Y-46643162D01*
X119853793Y-46767565D01*
X119810027Y-46811638D01*
X119765689Y-46855057D01*
X119759592Y-46862426D01*
X119636242Y-47013668D01*
X119601881Y-47065386D01*
X119566809Y-47116607D01*
X119562260Y-47125020D01*
X119470635Y-47297343D01*
X119446978Y-47354739D01*
X119422519Y-47411807D01*
X119419690Y-47420943D01*
X119363281Y-47607780D01*
X119351219Y-47668698D01*
X119338314Y-47729410D01*
X119337314Y-47738922D01*
X119318269Y-47933155D01*
X119318269Y-47933173D01*
X119315001Y-47966353D01*
X119315000Y-60033646D01*
X115685000Y-60033646D01*
X115685000Y-47966353D01*
X115682113Y-47937045D01*
X115682156Y-47930933D01*
X115681223Y-47921415D01*
X115660822Y-47727318D01*
X115648339Y-47666504D01*
X115636705Y-47605519D01*
X115633941Y-47596363D01*
X115576229Y-47409925D01*
X115552170Y-47352692D01*
X115528913Y-47295127D01*
X115524423Y-47286682D01*
X115431598Y-47115006D01*
X115396878Y-47063532D01*
X115362883Y-47011582D01*
X115356838Y-47004170D01*
X115232435Y-46853793D01*
X115188362Y-46810027D01*
X115144943Y-46765689D01*
X115137574Y-46759592D01*
X114986332Y-46636242D01*
X114934614Y-46601881D01*
X114883393Y-46566809D01*
X114874980Y-46562260D01*
X114702657Y-46470635D01*
X114645261Y-46446978D01*
X114588193Y-46422519D01*
X114579057Y-46419690D01*
X114392220Y-46363281D01*
X114331302Y-46351219D01*
X114270590Y-46338314D01*
X114261078Y-46337314D01*
X114066845Y-46318269D01*
X114066837Y-46318269D01*
X114033647Y-46315000D01*
X101966353Y-46315000D01*
X101937045Y-46317887D01*
X101930933Y-46317844D01*
X101921415Y-46318777D01*
X101727318Y-46339178D01*
X101666504Y-46351661D01*
X101605519Y-46363295D01*
X101596363Y-46366059D01*
X101409925Y-46423771D01*
X101352692Y-46447830D01*
X101295127Y-46471087D01*
X101286682Y-46475577D01*
X101115006Y-46568402D01*
X101063532Y-46603122D01*
X101011582Y-46637117D01*
X101004170Y-46643162D01*
X100853793Y-46767565D01*
X100810027Y-46811638D01*
X100765689Y-46855057D01*
X100759592Y-46862426D01*
X100636242Y-47013668D01*
X100601881Y-47065386D01*
X100566809Y-47116607D01*
X100562260Y-47125020D01*
X100470635Y-47297343D01*
X100446978Y-47354739D01*
X100422519Y-47411807D01*
X100419690Y-47420943D01*
X100363281Y-47607780D01*
X100351219Y-47668698D01*
X100338314Y-47729410D01*
X100337314Y-47738922D01*
X100318269Y-47933155D01*
X100318269Y-47933173D01*
X100315001Y-47966353D01*
X100315000Y-60033646D01*
X96685000Y-60033646D01*
X96685000Y-47966353D01*
X96682113Y-47937045D01*
X96682156Y-47930933D01*
X96681223Y-47921415D01*
X96660822Y-47727318D01*
X96648339Y-47666504D01*
X96636705Y-47605519D01*
X96633941Y-47596363D01*
X96576229Y-47409925D01*
X96552170Y-47352692D01*
X96528913Y-47295127D01*
X96524423Y-47286682D01*
X96431598Y-47115006D01*
X96396878Y-47063532D01*
X96362883Y-47011582D01*
X96356838Y-47004170D01*
X96232435Y-46853793D01*
X96188362Y-46810027D01*
X96144943Y-46765689D01*
X96137574Y-46759592D01*
X95986332Y-46636242D01*
X95934614Y-46601881D01*
X95883393Y-46566809D01*
X95874980Y-46562260D01*
X95702657Y-46470635D01*
X95645261Y-46446978D01*
X95588193Y-46422519D01*
X95579057Y-46419690D01*
X95392220Y-46363281D01*
X95331302Y-46351219D01*
X95270590Y-46338314D01*
X95261078Y-46337314D01*
X95066845Y-46318269D01*
X95066837Y-46318269D01*
X95033647Y-46315000D01*
X82966353Y-46315000D01*
X82937045Y-46317887D01*
X82930933Y-46317844D01*
X82921415Y-46318777D01*
X82727318Y-46339178D01*
X82666504Y-46351661D01*
X82605519Y-46363295D01*
X82596363Y-46366059D01*
X82409925Y-46423771D01*
X82352692Y-46447830D01*
X82295127Y-46471087D01*
X82286682Y-46475577D01*
X82115006Y-46568402D01*
X82063532Y-46603122D01*
X82011582Y-46637117D01*
X82004170Y-46643162D01*
X81853793Y-46767565D01*
X81810027Y-46811638D01*
X81765689Y-46855057D01*
X81759592Y-46862426D01*
X81636242Y-47013668D01*
X81601881Y-47065386D01*
X81566809Y-47116607D01*
X81562260Y-47125020D01*
X81470635Y-47297343D01*
X81446978Y-47354739D01*
X81422519Y-47411807D01*
X81419690Y-47420943D01*
X81363281Y-47607780D01*
X81351219Y-47668698D01*
X81338314Y-47729410D01*
X81337314Y-47738922D01*
X81318269Y-47933155D01*
X81318269Y-47933173D01*
X81315001Y-47966353D01*
X81315000Y-60033646D01*
X78685000Y-60033646D01*
X78685000Y-45033505D01*
X78713267Y-44745218D01*
X78787259Y-44500145D01*
X78907443Y-44274110D01*
X79069248Y-44075719D01*
X79266497Y-43912540D01*
X79491687Y-43790780D01*
X79736247Y-43715076D01*
X80022398Y-43685000D01*
X173966495Y-43685000D01*
X174254782Y-43713267D01*
G04 #@! TA.AperFunction,Conductor*
D12*
G36*
X174254782Y-43713267D02*
G01*
X174499855Y-43787259D01*
X174725890Y-43907443D01*
X174924281Y-44069248D01*
X175087460Y-44266497D01*
X175209220Y-44491687D01*
X175284924Y-44736247D01*
X175315000Y-45022398D01*
X175315001Y-138966484D01*
X175286733Y-139254782D01*
X175212741Y-139499855D01*
X175092554Y-139725893D01*
X174930754Y-139924279D01*
X174733503Y-140087460D01*
X174508310Y-140209221D01*
X174263753Y-140284924D01*
X173977602Y-140315000D01*
X118033505Y-140315000D01*
X117745218Y-140286733D01*
X117500145Y-140212741D01*
X117274107Y-140092554D01*
X117075721Y-139930754D01*
X116912540Y-139733503D01*
X116790779Y-139508310D01*
X116715076Y-139263753D01*
X116685000Y-138977602D01*
X116685000Y-136033646D01*
X119315000Y-136033646D01*
X119317887Y-136062954D01*
X119317844Y-136069066D01*
X119318777Y-136078585D01*
X119339178Y-136272682D01*
X119351661Y-136333496D01*
X119363295Y-136394481D01*
X119366059Y-136403637D01*
X119423771Y-136590075D01*
X119447818Y-136647279D01*
X119471087Y-136704873D01*
X119475577Y-136713317D01*
X119568402Y-136884994D01*
X119603122Y-136936468D01*
X119637117Y-136988418D01*
X119643161Y-136995829D01*
X119767565Y-137146207D01*
X119811638Y-137189973D01*
X119855057Y-137234311D01*
X119862426Y-137240408D01*
X120013668Y-137363758D01*
X120065397Y-137398126D01*
X120116608Y-137433191D01*
X120125016Y-137437737D01*
X120125020Y-137437740D01*
X120125024Y-137437742D01*
X120297343Y-137529366D01*
X120354739Y-137553022D01*
X120411807Y-137577482D01*
X120420944Y-137580310D01*
X120607780Y-137636719D01*
X120668690Y-137648780D01*
X120729409Y-137661686D01*
X120738921Y-137662686D01*
X120933155Y-137681731D01*
X120933163Y-137681731D01*
X120966353Y-137685000D01*
X133033647Y-137685000D01*
X133062955Y-137682113D01*
X133069066Y-137682156D01*
X133078585Y-137681223D01*
X133272682Y-137660822D01*
X133333496Y-137648339D01*
X133394481Y-137636705D01*
X133403637Y-137633941D01*
X133590075Y-137576229D01*
X133647279Y-137552182D01*
X133704873Y-137528913D01*
X133713317Y-137524423D01*
X133884994Y-137431598D01*
X133936468Y-137396878D01*
X133988418Y-137362883D01*
X133995829Y-137356839D01*
X134146207Y-137232435D01*
X134189973Y-137188362D01*
X134234311Y-137144943D01*
X134240408Y-137137574D01*
X134363758Y-136986332D01*
X134398126Y-136934603D01*
X134433191Y-136883392D01*
X134437739Y-136874981D01*
X134437740Y-136874980D01*
X134437742Y-136874976D01*
X134529366Y-136702657D01*
X134553022Y-136645261D01*
X134577482Y-136588193D01*
X134580310Y-136579056D01*
X134636719Y-136392220D01*
X134648780Y-136331310D01*
X134661686Y-136270591D01*
X134662686Y-136261079D01*
X134681731Y-136066845D01*
X134681731Y-136066837D01*
X134685000Y-136033647D01*
X134685000Y-136033646D01*
X138315000Y-136033646D01*
X138317887Y-136062954D01*
X138317844Y-136069066D01*
X138318777Y-136078585D01*
X138339178Y-136272682D01*
X138351661Y-136333496D01*
X138363295Y-136394481D01*
X138366059Y-136403637D01*
X138423771Y-136590075D01*
X138447818Y-136647279D01*
X138471087Y-136704873D01*
X138475577Y-136713317D01*
X138568402Y-136884994D01*
X138603122Y-136936468D01*
X138637117Y-136988418D01*
X138643161Y-136995829D01*
X138767565Y-137146207D01*
X138811638Y-137189973D01*
X138855057Y-137234311D01*
X138862426Y-137240408D01*
X139013668Y-137363758D01*
X139065397Y-137398126D01*
X139116608Y-137433191D01*
X139125016Y-137437737D01*
X139125020Y-137437740D01*
X139125024Y-137437742D01*
X139297343Y-137529366D01*
X139354739Y-137553022D01*
X139411807Y-137577482D01*
X139420944Y-137580310D01*
X139607780Y-137636719D01*
X139668690Y-137648780D01*
X139729409Y-137661686D01*
X139738921Y-137662686D01*
X139933155Y-137681731D01*
X139933163Y-137681731D01*
X139966353Y-137685000D01*
X152033647Y-137685000D01*
X152062955Y-137682113D01*
X152069066Y-137682156D01*
X152078585Y-137681223D01*
X152272682Y-137660822D01*
X152333496Y-137648339D01*
X152394481Y-137636705D01*
X152403637Y-137633941D01*
X152590075Y-137576229D01*
X152647279Y-137552182D01*
X152704873Y-137528913D01*
X152713317Y-137524423D01*
X152884994Y-137431598D01*
X152936468Y-137396878D01*
X152988418Y-137362883D01*
X152995829Y-137356839D01*
X153146207Y-137232435D01*
X153189973Y-137188362D01*
X153234311Y-137144943D01*
X153240408Y-137137574D01*
X153363758Y-136986332D01*
X153398126Y-136934603D01*
X153433191Y-136883392D01*
X153437739Y-136874981D01*
X153437740Y-136874980D01*
X153437742Y-136874976D01*
X153529366Y-136702657D01*
X153553022Y-136645261D01*
X153577482Y-136588193D01*
X153580310Y-136579056D01*
X153636719Y-136392220D01*
X153648780Y-136331310D01*
X153661686Y-136270591D01*
X153662686Y-136261079D01*
X153681731Y-136066845D01*
X153681731Y-136066837D01*
X153685000Y-136033647D01*
X153685000Y-136033646D01*
X157315000Y-136033646D01*
X157317887Y-136062954D01*
X157317844Y-136069066D01*
X157318777Y-136078585D01*
X157339178Y-136272682D01*
X157351661Y-136333496D01*
X157363295Y-136394481D01*
X157366059Y-136403637D01*
X157423771Y-136590075D01*
X157447818Y-136647279D01*
X157471087Y-136704873D01*
X157475577Y-136713317D01*
X157568402Y-136884994D01*
X157603122Y-136936468D01*
X157637117Y-136988418D01*
X157643161Y-136995829D01*
X157767565Y-137146207D01*
X157811638Y-137189973D01*
X157855057Y-137234311D01*
X157862426Y-137240408D01*
X158013668Y-137363758D01*
X158065397Y-137398126D01*
X158116608Y-137433191D01*
X158125016Y-137437737D01*
X158125020Y-137437740D01*
X158125024Y-137437742D01*
X158297343Y-137529366D01*
X158354739Y-137553022D01*
X158411807Y-137577482D01*
X158420944Y-137580310D01*
X158607780Y-137636719D01*
X158668690Y-137648780D01*
X158729409Y-137661686D01*
X158738921Y-137662686D01*
X158933155Y-137681731D01*
X158933163Y-137681731D01*
X158966353Y-137685000D01*
X171033647Y-137685000D01*
X171062955Y-137682113D01*
X171069066Y-137682156D01*
X171078585Y-137681223D01*
X171272682Y-137660822D01*
X171333496Y-137648339D01*
X171394481Y-137636705D01*
X171403637Y-137633941D01*
X171590075Y-137576229D01*
X171647279Y-137552182D01*
X171704873Y-137528913D01*
X171713317Y-137524423D01*
X171884994Y-137431598D01*
X171936468Y-137396878D01*
X171988418Y-137362883D01*
X171995829Y-137356839D01*
X172146207Y-137232435D01*
X172189973Y-137188362D01*
X172234311Y-137144943D01*
X172240408Y-137137574D01*
X172363758Y-136986332D01*
X172398126Y-136934603D01*
X172433191Y-136883392D01*
X172437739Y-136874981D01*
X172437740Y-136874980D01*
X172437742Y-136874976D01*
X172529366Y-136702657D01*
X172553022Y-136645261D01*
X172577482Y-136588193D01*
X172580310Y-136579056D01*
X172636719Y-136392220D01*
X172648780Y-136331310D01*
X172661686Y-136270591D01*
X172662686Y-136261079D01*
X172681731Y-136066845D01*
X172681731Y-136066837D01*
X172685000Y-136033647D01*
X172685000Y-123966353D01*
X172682113Y-123937045D01*
X172682156Y-123930933D01*
X172681223Y-123921415D01*
X172660822Y-123727318D01*
X172648339Y-123666504D01*
X172636705Y-123605519D01*
X172633941Y-123596363D01*
X172576229Y-123409925D01*
X172552170Y-123352692D01*
X172528913Y-123295127D01*
X172524423Y-123286682D01*
X172431598Y-123115006D01*
X172396878Y-123063532D01*
X172362883Y-123011582D01*
X172356838Y-123004170D01*
X172232435Y-122853793D01*
X172188362Y-122810027D01*
X172144943Y-122765689D01*
X172137574Y-122759592D01*
X171986332Y-122636242D01*
X171934614Y-122601881D01*
X171883393Y-122566809D01*
X171874980Y-122562260D01*
X171702657Y-122470635D01*
X171645261Y-122446978D01*
X171588193Y-122422519D01*
X171579057Y-122419690D01*
X171392220Y-122363281D01*
X171331302Y-122351219D01*
X171270590Y-122338314D01*
X171261078Y-122337314D01*
X171066845Y-122318269D01*
X171066837Y-122318269D01*
X171033647Y-122315000D01*
X158966353Y-122315000D01*
X158937045Y-122317887D01*
X158930933Y-122317844D01*
X158921415Y-122318777D01*
X158727318Y-122339178D01*
X158666504Y-122351661D01*
X158605519Y-122363295D01*
X158596363Y-122366059D01*
X158409925Y-122423771D01*
X158352692Y-122447830D01*
X158295127Y-122471087D01*
X158286682Y-122475577D01*
X158115006Y-122568402D01*
X158063532Y-122603122D01*
X158011582Y-122637117D01*
X158004170Y-122643162D01*
X157853793Y-122767565D01*
X157810027Y-122811638D01*
X157765689Y-122855057D01*
X157759592Y-122862426D01*
X157636242Y-123013668D01*
X157601881Y-123065386D01*
X157566809Y-123116607D01*
X157562260Y-123125020D01*
X157470635Y-123297343D01*
X157446978Y-123354739D01*
X157422519Y-123411807D01*
X157419690Y-123420943D01*
X157363281Y-123607780D01*
X157351219Y-123668698D01*
X157338314Y-123729410D01*
X157337314Y-123738922D01*
X157318269Y-123933155D01*
X157318269Y-123933173D01*
X157315001Y-123966353D01*
X157315000Y-136033646D01*
X153685000Y-136033646D01*
X153685000Y-123966353D01*
X153682113Y-123937045D01*
X153682156Y-123930933D01*
X153681223Y-123921415D01*
X153660822Y-123727318D01*
X153648339Y-123666504D01*
X153636705Y-123605519D01*
X153633941Y-123596363D01*
X153576229Y-123409925D01*
X153552170Y-123352692D01*
X153528913Y-123295127D01*
X153524423Y-123286682D01*
X153431598Y-123115006D01*
X153396878Y-123063532D01*
X153362883Y-123011582D01*
X153356838Y-123004170D01*
X153232435Y-122853793D01*
X153188362Y-122810027D01*
X153144943Y-122765689D01*
X153137574Y-122759592D01*
X152986332Y-122636242D01*
X152934614Y-122601881D01*
X152883393Y-122566809D01*
X152874980Y-122562260D01*
X152702657Y-122470635D01*
X152645261Y-122446978D01*
X152588193Y-122422519D01*
X152579057Y-122419690D01*
X152392220Y-122363281D01*
X152331302Y-122351219D01*
X152270590Y-122338314D01*
X152261078Y-122337314D01*
X152066845Y-122318269D01*
X152066837Y-122318269D01*
X152033647Y-122315000D01*
X139966353Y-122315000D01*
X139937045Y-122317887D01*
X139930933Y-122317844D01*
X139921415Y-122318777D01*
X139727318Y-122339178D01*
X139666504Y-122351661D01*
X139605519Y-122363295D01*
X139596363Y-122366059D01*
X139409925Y-122423771D01*
X139352692Y-122447830D01*
X139295127Y-122471087D01*
X139286682Y-122475577D01*
X139115006Y-122568402D01*
X139063532Y-122603122D01*
X139011582Y-122637117D01*
X139004170Y-122643162D01*
X138853793Y-122767565D01*
X138810027Y-122811638D01*
X138765689Y-122855057D01*
X138759592Y-122862426D01*
X138636242Y-123013668D01*
X138601881Y-123065386D01*
X138566809Y-123116607D01*
X138562260Y-123125020D01*
X138470635Y-123297343D01*
X138446978Y-123354739D01*
X138422519Y-123411807D01*
X138419690Y-123420943D01*
X138363281Y-123607780D01*
X138351219Y-123668698D01*
X138338314Y-123729410D01*
X138337314Y-123738922D01*
X138318269Y-123933155D01*
X138318269Y-123933173D01*
X138315001Y-123966353D01*
X138315000Y-136033646D01*
X134685000Y-136033646D01*
X134685000Y-123966353D01*
X134682113Y-123937045D01*
X134682156Y-123930933D01*
X134681223Y-123921415D01*
X134660822Y-123727318D01*
X134648339Y-123666504D01*
X134636705Y-123605519D01*
X134633941Y-123596363D01*
X134576229Y-123409925D01*
X134552170Y-123352692D01*
X134528913Y-123295127D01*
X134524423Y-123286682D01*
X134431598Y-123115006D01*
X134396878Y-123063532D01*
X134362883Y-123011582D01*
X134356838Y-123004170D01*
X134232435Y-122853793D01*
X134188362Y-122810027D01*
X134144943Y-122765689D01*
X134137574Y-122759592D01*
X133986332Y-122636242D01*
X133934614Y-122601881D01*
X133883393Y-122566809D01*
X133874980Y-122562260D01*
X133702657Y-122470635D01*
X133645261Y-122446978D01*
X133588193Y-122422519D01*
X133579057Y-122419690D01*
X133392220Y-122363281D01*
X133331302Y-122351219D01*
X133270590Y-122338314D01*
X133261078Y-122337314D01*
X133066845Y-122318269D01*
X133066837Y-122318269D01*
X133033647Y-122315000D01*
X120966353Y-122315000D01*
X120937045Y-122317887D01*
X120930933Y-122317844D01*
X120921415Y-122318777D01*
X120727318Y-122339178D01*
X120666504Y-122351661D01*
X120605519Y-122363295D01*
X120596363Y-122366059D01*
X120409925Y-122423771D01*
X120352692Y-122447830D01*
X120295127Y-122471087D01*
X120286682Y-122475577D01*
X120115006Y-122568402D01*
X120063532Y-122603122D01*
X120011582Y-122637117D01*
X120004170Y-122643162D01*
X119853793Y-122767565D01*
X119810027Y-122811638D01*
X119765689Y-122855057D01*
X119759592Y-122862426D01*
X119636242Y-123013668D01*
X119601881Y-123065386D01*
X119566809Y-123116607D01*
X119562260Y-123125020D01*
X119470635Y-123297343D01*
X119446978Y-123354739D01*
X119422519Y-123411807D01*
X119419690Y-123420943D01*
X119363281Y-123607780D01*
X119351219Y-123668698D01*
X119338314Y-123729410D01*
X119337314Y-123738922D01*
X119318269Y-123933155D01*
X119318269Y-123933173D01*
X119315001Y-123966353D01*
X119315000Y-136033646D01*
X116685000Y-136033646D01*
X116685000Y-123966353D01*
X116682045Y-123936355D01*
X116682132Y-123923953D01*
X116681198Y-123914434D01*
X116640397Y-123526242D01*
X116627920Y-123465461D01*
X116616280Y-123404440D01*
X116613516Y-123395284D01*
X116498092Y-123022409D01*
X116474028Y-122965163D01*
X116450776Y-122907612D01*
X116446286Y-122899167D01*
X116260635Y-122555812D01*
X116225919Y-122504344D01*
X116191920Y-122452389D01*
X116185876Y-122444978D01*
X115937069Y-122144223D01*
X115892996Y-122100457D01*
X115849577Y-122056119D01*
X115842208Y-122050022D01*
X115539723Y-121803321D01*
X115488005Y-121768960D01*
X115436784Y-121733888D01*
X115428371Y-121729339D01*
X115083730Y-121546089D01*
X115026300Y-121522418D01*
X114969263Y-121497972D01*
X114960131Y-121495145D01*
X114960125Y-121495143D01*
X114586455Y-121382326D01*
X114525545Y-121370265D01*
X114464826Y-121357359D01*
X114455314Y-121356359D01*
X114066845Y-121318269D01*
X114066837Y-121318269D01*
X114033647Y-121315000D01*
X80033505Y-121315000D01*
X79745218Y-121286733D01*
X79500145Y-121212741D01*
X79274107Y-121092554D01*
X79075721Y-120930754D01*
X78912540Y-120733503D01*
X78790779Y-120508310D01*
X78730636Y-120314017D01*
X153761260Y-120314017D01*
X153761260Y-120655783D01*
X153827935Y-120990981D01*
X153958723Y-121306731D01*
X154148597Y-121590898D01*
X154390262Y-121832563D01*
X154674429Y-122022437D01*
X154990179Y-122153225D01*
X155325377Y-122219900D01*
X155667143Y-122219900D01*
X156002341Y-122153225D01*
X156318091Y-122022437D01*
X156602258Y-121832563D01*
X156843923Y-121590898D01*
X157033797Y-121306731D01*
X157164585Y-120990981D01*
X157231260Y-120655783D01*
X157231260Y-120314017D01*
X157164585Y-119978819D01*
X157033797Y-119663069D01*
X156843923Y-119378902D01*
X156602258Y-119137237D01*
X156318091Y-118947363D01*
X156002341Y-118816575D01*
X155667143Y-118749900D01*
X155325377Y-118749900D01*
X154990179Y-118816575D01*
X154674429Y-118947363D01*
X154390262Y-119137237D01*
X154148597Y-119378902D01*
X153958723Y-119663069D01*
X153827935Y-119978819D01*
X153761260Y-120314017D01*
X78730636Y-120314017D01*
X78715076Y-120263753D01*
X78685000Y-119977602D01*
X78685000Y-117033646D01*
X81315000Y-117033646D01*
X81317887Y-117062954D01*
X81317844Y-117069066D01*
X81318777Y-117078585D01*
X81339178Y-117272682D01*
X81351661Y-117333496D01*
X81363295Y-117394481D01*
X81366059Y-117403637D01*
X81423771Y-117590075D01*
X81447818Y-117647279D01*
X81471087Y-117704873D01*
X81475577Y-117713317D01*
X81568402Y-117884994D01*
X81603122Y-117936468D01*
X81637117Y-117988418D01*
X81643161Y-117995829D01*
X81767565Y-118146207D01*
X81811638Y-118189973D01*
X81855057Y-118234311D01*
X81862426Y-118240408D01*
X82013668Y-118363758D01*
X82065397Y-118398126D01*
X82116608Y-118433191D01*
X82125016Y-118437737D01*
X82125020Y-118437740D01*
X82125024Y-118437742D01*
X82297343Y-118529366D01*
X82354739Y-118553022D01*
X82411807Y-118577482D01*
X82420944Y-118580310D01*
X82607780Y-118636719D01*
X82668690Y-118648780D01*
X82729409Y-118661686D01*
X82738921Y-118662686D01*
X82933155Y-118681731D01*
X82933163Y-118681731D01*
X82966353Y-118685000D01*
X95033647Y-118685000D01*
X95062955Y-118682113D01*
X95069066Y-118682156D01*
X95078585Y-118681223D01*
X95272682Y-118660822D01*
X95333496Y-118648339D01*
X95394481Y-118636705D01*
X95403637Y-118633941D01*
X95590075Y-118576229D01*
X95647279Y-118552182D01*
X95704873Y-118528913D01*
X95713317Y-118524423D01*
X95884994Y-118431598D01*
X95936468Y-118396878D01*
X95988418Y-118362883D01*
X95995829Y-118356839D01*
X96146207Y-118232435D01*
X96189973Y-118188362D01*
X96234311Y-118144943D01*
X96240408Y-118137574D01*
X96363758Y-117986332D01*
X96398126Y-117934603D01*
X96433191Y-117883392D01*
X96437739Y-117874981D01*
X96437740Y-117874980D01*
X96437742Y-117874976D01*
X96529366Y-117702657D01*
X96553022Y-117645261D01*
X96577482Y-117588193D01*
X96580310Y-117579056D01*
X96636719Y-117392220D01*
X96648780Y-117331310D01*
X96661686Y-117270591D01*
X96662686Y-117261079D01*
X96681731Y-117066845D01*
X96681731Y-117066837D01*
X96685000Y-117033647D01*
X96685000Y-117033646D01*
X100315000Y-117033646D01*
X100317887Y-117062954D01*
X100317844Y-117069066D01*
X100318777Y-117078585D01*
X100339178Y-117272682D01*
X100351661Y-117333496D01*
X100363295Y-117394481D01*
X100366059Y-117403637D01*
X100423771Y-117590075D01*
X100447818Y-117647279D01*
X100471087Y-117704873D01*
X100475577Y-117713317D01*
X100568402Y-117884994D01*
X100603122Y-117936468D01*
X100637117Y-117988418D01*
X100643161Y-117995829D01*
X100767565Y-118146207D01*
X100811638Y-118189973D01*
X100855057Y-118234311D01*
X100862426Y-118240408D01*
X101013668Y-118363758D01*
X101065397Y-118398126D01*
X101116608Y-118433191D01*
X101125016Y-118437737D01*
X101125020Y-118437740D01*
X101125024Y-118437742D01*
X101297343Y-118529366D01*
X101354739Y-118553022D01*
X101411807Y-118577482D01*
X101420944Y-118580310D01*
X101607780Y-118636719D01*
X101668690Y-118648780D01*
X101729409Y-118661686D01*
X101738921Y-118662686D01*
X101933155Y-118681731D01*
X101933163Y-118681731D01*
X101966353Y-118685000D01*
X114033647Y-118685000D01*
X114062955Y-118682113D01*
X114069066Y-118682156D01*
X114078585Y-118681223D01*
X114272682Y-118660822D01*
X114333496Y-118648339D01*
X114394481Y-118636705D01*
X114403637Y-118633941D01*
X114590075Y-118576229D01*
X114647279Y-118552182D01*
X114704873Y-118528913D01*
X114713317Y-118524423D01*
X114884994Y-118431598D01*
X114936468Y-118396878D01*
X114988418Y-118362883D01*
X114995829Y-118356839D01*
X115146207Y-118232435D01*
X115189973Y-118188362D01*
X115234311Y-118144943D01*
X115240408Y-118137574D01*
X115363758Y-117986332D01*
X115398126Y-117934603D01*
X115433191Y-117883392D01*
X115437739Y-117874981D01*
X115437740Y-117874980D01*
X115437742Y-117874976D01*
X115529366Y-117702657D01*
X115553022Y-117645261D01*
X115577482Y-117588193D01*
X115580310Y-117579056D01*
X115636719Y-117392220D01*
X115648780Y-117331310D01*
X115661686Y-117270591D01*
X115662686Y-117261079D01*
X115681731Y-117066845D01*
X115681731Y-117066837D01*
X115685000Y-117033647D01*
X115685000Y-117033646D01*
X119315000Y-117033646D01*
X119317887Y-117062954D01*
X119317844Y-117069066D01*
X119318777Y-117078585D01*
X119339178Y-117272682D01*
X119351661Y-117333496D01*
X119363295Y-117394481D01*
X119366059Y-117403637D01*
X119423771Y-117590075D01*
X119447818Y-117647279D01*
X119471087Y-117704873D01*
X119475577Y-117713317D01*
X119568402Y-117884994D01*
X119603122Y-117936468D01*
X119637117Y-117988418D01*
X119643161Y-117995829D01*
X119767565Y-118146207D01*
X119811638Y-118189973D01*
X119855057Y-118234311D01*
X119862426Y-118240408D01*
X120013668Y-118363758D01*
X120065397Y-118398126D01*
X120116608Y-118433191D01*
X120125016Y-118437737D01*
X120125020Y-118437740D01*
X120125024Y-118437742D01*
X120297343Y-118529366D01*
X120354739Y-118553022D01*
X120411807Y-118577482D01*
X120420944Y-118580310D01*
X120607780Y-118636719D01*
X120668690Y-118648780D01*
X120729409Y-118661686D01*
X120738921Y-118662686D01*
X120933155Y-118681731D01*
X120933163Y-118681731D01*
X120966353Y-118685000D01*
X133033647Y-118685000D01*
X133062955Y-118682113D01*
X133069066Y-118682156D01*
X133078585Y-118681223D01*
X133272682Y-118660822D01*
X133333496Y-118648339D01*
X133394481Y-118636705D01*
X133403637Y-118633941D01*
X133590075Y-118576229D01*
X133647279Y-118552182D01*
X133704873Y-118528913D01*
X133713317Y-118524423D01*
X133884994Y-118431598D01*
X133936468Y-118396878D01*
X133988418Y-118362883D01*
X133995829Y-118356839D01*
X134146207Y-118232435D01*
X134189973Y-118188362D01*
X134234311Y-118144943D01*
X134240408Y-118137574D01*
X134363758Y-117986332D01*
X134398126Y-117934603D01*
X134433191Y-117883392D01*
X134437739Y-117874981D01*
X134437740Y-117874980D01*
X134437742Y-117874976D01*
X134529366Y-117702657D01*
X134553022Y-117645261D01*
X134577482Y-117588193D01*
X134580310Y-117579056D01*
X134636719Y-117392220D01*
X134648780Y-117331310D01*
X134661686Y-117270591D01*
X134662686Y-117261079D01*
X134681731Y-117066845D01*
X134681731Y-117066837D01*
X134685000Y-117033647D01*
X134685000Y-117033646D01*
X138315000Y-117033646D01*
X138317887Y-117062954D01*
X138317844Y-117069066D01*
X138318777Y-117078585D01*
X138339178Y-117272682D01*
X138351661Y-117333496D01*
X138363295Y-117394481D01*
X138366059Y-117403637D01*
X138423771Y-117590075D01*
X138447818Y-117647279D01*
X138471087Y-117704873D01*
X138475577Y-117713317D01*
X138568402Y-117884994D01*
X138603122Y-117936468D01*
X138637117Y-117988418D01*
X138643161Y-117995829D01*
X138767565Y-118146207D01*
X138811638Y-118189973D01*
X138855057Y-118234311D01*
X138862426Y-118240408D01*
X139013668Y-118363758D01*
X139065397Y-118398126D01*
X139116608Y-118433191D01*
X139125016Y-118437737D01*
X139125020Y-118437740D01*
X139125024Y-118437742D01*
X139297343Y-118529366D01*
X139354739Y-118553022D01*
X139411807Y-118577482D01*
X139420944Y-118580310D01*
X139607780Y-118636719D01*
X139668690Y-118648780D01*
X139729409Y-118661686D01*
X139738921Y-118662686D01*
X139933155Y-118681731D01*
X139933163Y-118681731D01*
X139966353Y-118685000D01*
X152033647Y-118685000D01*
X152062955Y-118682113D01*
X152069066Y-118682156D01*
X152078585Y-118681223D01*
X152272682Y-118660822D01*
X152333496Y-118648339D01*
X152394481Y-118636705D01*
X152403637Y-118633941D01*
X152590075Y-118576229D01*
X152647279Y-118552182D01*
X152704873Y-118528913D01*
X152713317Y-118524423D01*
X152884994Y-118431598D01*
X152936468Y-118396878D01*
X152988418Y-118362883D01*
X152995829Y-118356839D01*
X153146207Y-118232435D01*
X153189973Y-118188362D01*
X153234311Y-118144943D01*
X153240408Y-118137574D01*
X153363758Y-117986332D01*
X153398126Y-117934603D01*
X153433191Y-117883392D01*
X153437739Y-117874981D01*
X153437740Y-117874980D01*
X153437742Y-117874976D01*
X153529366Y-117702657D01*
X153553022Y-117645261D01*
X153577482Y-117588193D01*
X153580310Y-117579056D01*
X153636719Y-117392220D01*
X153648780Y-117331310D01*
X153661686Y-117270591D01*
X153662686Y-117261079D01*
X153681731Y-117066845D01*
X153681731Y-117066837D01*
X153685000Y-117033647D01*
X153685000Y-117033646D01*
X157315000Y-117033646D01*
X157317887Y-117062954D01*
X157317844Y-117069066D01*
X157318777Y-117078585D01*
X157339178Y-117272682D01*
X157351661Y-117333496D01*
X157363295Y-117394481D01*
X157366059Y-117403637D01*
X157423771Y-117590075D01*
X157447818Y-117647279D01*
X157471087Y-117704873D01*
X157475577Y-117713317D01*
X157568402Y-117884994D01*
X157603122Y-117936468D01*
X157637117Y-117988418D01*
X157643161Y-117995829D01*
X157767565Y-118146207D01*
X157811638Y-118189973D01*
X157855057Y-118234311D01*
X157862426Y-118240408D01*
X158013668Y-118363758D01*
X158065397Y-118398126D01*
X158116608Y-118433191D01*
X158125016Y-118437737D01*
X158125020Y-118437740D01*
X158125024Y-118437742D01*
X158297343Y-118529366D01*
X158354739Y-118553022D01*
X158411807Y-118577482D01*
X158420944Y-118580310D01*
X158607780Y-118636719D01*
X158668690Y-118648780D01*
X158729409Y-118661686D01*
X158738921Y-118662686D01*
X158933155Y-118681731D01*
X158933163Y-118681731D01*
X158966353Y-118685000D01*
X171033647Y-118685000D01*
X171062955Y-118682113D01*
X171069066Y-118682156D01*
X171078585Y-118681223D01*
X171272682Y-118660822D01*
X171333496Y-118648339D01*
X171394481Y-118636705D01*
X171403637Y-118633941D01*
X171590075Y-118576229D01*
X171647279Y-118552182D01*
X171704873Y-118528913D01*
X171713317Y-118524423D01*
X171884994Y-118431598D01*
X171936468Y-118396878D01*
X171988418Y-118362883D01*
X171995829Y-118356839D01*
X172146207Y-118232435D01*
X172189973Y-118188362D01*
X172234311Y-118144943D01*
X172240408Y-118137574D01*
X172363758Y-117986332D01*
X172398126Y-117934603D01*
X172433191Y-117883392D01*
X172437739Y-117874981D01*
X172437740Y-117874980D01*
X172437742Y-117874976D01*
X172529366Y-117702657D01*
X172553022Y-117645261D01*
X172577482Y-117588193D01*
X172580310Y-117579056D01*
X172636719Y-117392220D01*
X172648780Y-117331310D01*
X172661686Y-117270591D01*
X172662686Y-117261079D01*
X172681731Y-117066845D01*
X172681731Y-117066837D01*
X172685000Y-117033647D01*
X172685000Y-104966353D01*
X172682113Y-104937045D01*
X172682156Y-104930933D01*
X172681223Y-104921415D01*
X172660822Y-104727318D01*
X172648339Y-104666504D01*
X172636705Y-104605519D01*
X172633941Y-104596363D01*
X172576229Y-104409925D01*
X172552170Y-104352692D01*
X172528913Y-104295127D01*
X172524423Y-104286682D01*
X172431598Y-104115006D01*
X172396878Y-104063532D01*
X172362883Y-104011582D01*
X172356838Y-104004170D01*
X172232435Y-103853793D01*
X172188362Y-103810027D01*
X172144943Y-103765689D01*
X172137574Y-103759592D01*
X171986332Y-103636242D01*
X171934614Y-103601881D01*
X171883393Y-103566809D01*
X171874980Y-103562260D01*
X171702657Y-103470635D01*
X171645261Y-103446978D01*
X171588193Y-103422519D01*
X171579057Y-103419690D01*
X171392220Y-103363281D01*
X171331302Y-103351219D01*
X171270590Y-103338314D01*
X171261078Y-103337314D01*
X171066845Y-103318269D01*
X171066837Y-103318269D01*
X171033647Y-103315000D01*
X158966353Y-103315000D01*
X158937045Y-103317887D01*
X158930933Y-103317844D01*
X158921415Y-103318777D01*
X158727318Y-103339178D01*
X158666504Y-103351661D01*
X158605519Y-103363295D01*
X158596363Y-103366059D01*
X158409925Y-103423771D01*
X158352692Y-103447830D01*
X158295127Y-103471087D01*
X158286682Y-103475577D01*
X158115006Y-103568402D01*
X158063532Y-103603122D01*
X158011582Y-103637117D01*
X158004170Y-103643162D01*
X157853793Y-103767565D01*
X157810027Y-103811638D01*
X157765689Y-103855057D01*
X157759592Y-103862426D01*
X157636242Y-104013668D01*
X157601881Y-104065386D01*
X157566809Y-104116607D01*
X157562260Y-104125020D01*
X157470635Y-104297343D01*
X157446978Y-104354739D01*
X157422519Y-104411807D01*
X157419690Y-104420943D01*
X157363281Y-104607780D01*
X157351219Y-104668698D01*
X157338314Y-104729410D01*
X157337314Y-104738922D01*
X157318269Y-104933155D01*
X157318269Y-104933173D01*
X157315001Y-104966353D01*
X157315000Y-117033646D01*
X153685000Y-117033646D01*
X153685000Y-104966353D01*
X153682113Y-104937045D01*
X153682156Y-104930933D01*
X153681223Y-104921415D01*
X153660822Y-104727318D01*
X153648339Y-104666504D01*
X153636705Y-104605519D01*
X153633941Y-104596363D01*
X153576229Y-104409925D01*
X153552170Y-104352692D01*
X153528913Y-104295127D01*
X153524423Y-104286682D01*
X153431598Y-104115006D01*
X153396878Y-104063532D01*
X153362883Y-104011582D01*
X153356838Y-104004170D01*
X153232435Y-103853793D01*
X153188362Y-103810027D01*
X153144943Y-103765689D01*
X153137574Y-103759592D01*
X152986332Y-103636242D01*
X152934614Y-103601881D01*
X152883393Y-103566809D01*
X152874980Y-103562260D01*
X152702657Y-103470635D01*
X152645261Y-103446978D01*
X152588193Y-103422519D01*
X152579057Y-103419690D01*
X152392220Y-103363281D01*
X152331302Y-103351219D01*
X152270590Y-103338314D01*
X152261078Y-103337314D01*
X152066845Y-103318269D01*
X152066837Y-103318269D01*
X152033647Y-103315000D01*
X139966353Y-103315000D01*
X139937045Y-103317887D01*
X139930933Y-103317844D01*
X139921415Y-103318777D01*
X139727318Y-103339178D01*
X139666504Y-103351661D01*
X139605519Y-103363295D01*
X139596363Y-103366059D01*
X139409925Y-103423771D01*
X139352692Y-103447830D01*
X139295127Y-103471087D01*
X139286682Y-103475577D01*
X139115006Y-103568402D01*
X139063532Y-103603122D01*
X139011582Y-103637117D01*
X139004170Y-103643162D01*
X138853793Y-103767565D01*
X138810027Y-103811638D01*
X138765689Y-103855057D01*
X138759592Y-103862426D01*
X138636242Y-104013668D01*
X138601881Y-104065386D01*
X138566809Y-104116607D01*
X138562260Y-104125020D01*
X138470635Y-104297343D01*
X138446978Y-104354739D01*
X138422519Y-104411807D01*
X138419690Y-104420943D01*
X138363281Y-104607780D01*
X138351219Y-104668698D01*
X138338314Y-104729410D01*
X138337314Y-104738922D01*
X138318269Y-104933155D01*
X138318269Y-104933173D01*
X138315001Y-104966353D01*
X138315000Y-117033646D01*
X134685000Y-117033646D01*
X134685000Y-104966353D01*
X134682113Y-104937045D01*
X134682156Y-104930933D01*
X134681223Y-104921415D01*
X134660822Y-104727318D01*
X134648339Y-104666504D01*
X134636705Y-104605519D01*
X134633941Y-104596363D01*
X134576229Y-104409925D01*
X134552170Y-104352692D01*
X134528913Y-104295127D01*
X134524423Y-104286682D01*
X134431598Y-104115006D01*
X134396878Y-104063532D01*
X134362883Y-104011582D01*
X134356838Y-104004170D01*
X134232435Y-103853793D01*
X134188362Y-103810027D01*
X134144943Y-103765689D01*
X134137574Y-103759592D01*
X133986332Y-103636242D01*
X133934614Y-103601881D01*
X133883393Y-103566809D01*
X133874980Y-103562260D01*
X133702657Y-103470635D01*
X133645261Y-103446978D01*
X133588193Y-103422519D01*
X133579057Y-103419690D01*
X133392220Y-103363281D01*
X133331302Y-103351219D01*
X133270590Y-103338314D01*
X133261078Y-103337314D01*
X133066845Y-103318269D01*
X133066837Y-103318269D01*
X133033647Y-103315000D01*
X120966353Y-103315000D01*
X120937045Y-103317887D01*
X120930933Y-103317844D01*
X120921415Y-103318777D01*
X120727318Y-103339178D01*
X120666504Y-103351661D01*
X120605519Y-103363295D01*
X120596363Y-103366059D01*
X120409925Y-103423771D01*
X120352692Y-103447830D01*
X120295127Y-103471087D01*
X120286682Y-103475577D01*
X120115006Y-103568402D01*
X120063532Y-103603122D01*
X120011582Y-103637117D01*
X120004170Y-103643162D01*
X119853793Y-103767565D01*
X119810027Y-103811638D01*
X119765689Y-103855057D01*
X119759592Y-103862426D01*
X119636242Y-104013668D01*
X119601881Y-104065386D01*
X119566809Y-104116607D01*
X119562260Y-104125020D01*
X119470635Y-104297343D01*
X119446978Y-104354739D01*
X119422519Y-104411807D01*
X119419690Y-104420943D01*
X119363281Y-104607780D01*
X119351219Y-104668698D01*
X119338314Y-104729410D01*
X119337314Y-104738922D01*
X119318269Y-104933155D01*
X119318269Y-104933173D01*
X119315001Y-104966353D01*
X119315000Y-117033646D01*
X115685000Y-117033646D01*
X115685000Y-104966353D01*
X115682113Y-104937045D01*
X115682156Y-104930933D01*
X115681223Y-104921415D01*
X115660822Y-104727318D01*
X115648339Y-104666504D01*
X115636705Y-104605519D01*
X115633941Y-104596363D01*
X115576229Y-104409925D01*
X115552170Y-104352692D01*
X115528913Y-104295127D01*
X115524423Y-104286682D01*
X115431598Y-104115006D01*
X115396878Y-104063532D01*
X115362883Y-104011582D01*
X115356838Y-104004170D01*
X115232435Y-103853793D01*
X115188362Y-103810027D01*
X115144943Y-103765689D01*
X115137574Y-103759592D01*
X114986332Y-103636242D01*
X114934614Y-103601881D01*
X114883393Y-103566809D01*
X114874980Y-103562260D01*
X114702657Y-103470635D01*
X114645261Y-103446978D01*
X114588193Y-103422519D01*
X114579057Y-103419690D01*
X114392220Y-103363281D01*
X114331302Y-103351219D01*
X114270590Y-103338314D01*
X114261078Y-103337314D01*
X114066845Y-103318269D01*
X114066837Y-103318269D01*
X114033647Y-103315000D01*
X101966353Y-103315000D01*
X101937045Y-103317887D01*
X101930933Y-103317844D01*
X101921415Y-103318777D01*
X101727318Y-103339178D01*
X101666504Y-103351661D01*
X101605519Y-103363295D01*
X101596363Y-103366059D01*
X101409925Y-103423771D01*
X101352692Y-103447830D01*
X101295127Y-103471087D01*
X101286682Y-103475577D01*
X101115006Y-103568402D01*
X101063532Y-103603122D01*
X101011582Y-103637117D01*
X101004170Y-103643162D01*
X100853793Y-103767565D01*
X100810027Y-103811638D01*
X100765689Y-103855057D01*
X100759592Y-103862426D01*
X100636242Y-104013668D01*
X100601881Y-104065386D01*
X100566809Y-104116607D01*
X100562260Y-104125020D01*
X100470635Y-104297343D01*
X100446978Y-104354739D01*
X100422519Y-104411807D01*
X100419690Y-104420943D01*
X100363281Y-104607780D01*
X100351219Y-104668698D01*
X100338314Y-104729410D01*
X100337314Y-104738922D01*
X100318269Y-104933155D01*
X100318269Y-104933173D01*
X100315001Y-104966353D01*
X100315000Y-117033646D01*
X96685000Y-117033646D01*
X96685000Y-104966353D01*
X96682113Y-104937045D01*
X96682156Y-104930933D01*
X96681223Y-104921415D01*
X96660822Y-104727318D01*
X96648339Y-104666504D01*
X96636705Y-104605519D01*
X96633941Y-104596363D01*
X96576229Y-104409925D01*
X96552170Y-104352692D01*
X96528913Y-104295127D01*
X96524423Y-104286682D01*
X96431598Y-104115006D01*
X96396878Y-104063532D01*
X96362883Y-104011582D01*
X96356838Y-104004170D01*
X96232435Y-103853793D01*
X96188362Y-103810027D01*
X96144943Y-103765689D01*
X96137574Y-103759592D01*
X95986332Y-103636242D01*
X95934614Y-103601881D01*
X95883393Y-103566809D01*
X95874980Y-103562260D01*
X95702657Y-103470635D01*
X95645261Y-103446978D01*
X95588193Y-103422519D01*
X95579057Y-103419690D01*
X95392220Y-103363281D01*
X95331302Y-103351219D01*
X95270590Y-103338314D01*
X95261078Y-103337314D01*
X95066845Y-103318269D01*
X95066837Y-103318269D01*
X95033647Y-103315000D01*
X82966353Y-103315000D01*
X82937045Y-103317887D01*
X82930933Y-103317844D01*
X82921415Y-103318777D01*
X82727318Y-103339178D01*
X82666504Y-103351661D01*
X82605519Y-103363295D01*
X82596363Y-103366059D01*
X82409925Y-103423771D01*
X82352692Y-103447830D01*
X82295127Y-103471087D01*
X82286682Y-103475577D01*
X82115006Y-103568402D01*
X82063532Y-103603122D01*
X82011582Y-103637117D01*
X82004170Y-103643162D01*
X81853793Y-103767565D01*
X81810027Y-103811638D01*
X81765689Y-103855057D01*
X81759592Y-103862426D01*
X81636242Y-104013668D01*
X81601881Y-104065386D01*
X81566809Y-104116607D01*
X81562260Y-104125020D01*
X81470635Y-104297343D01*
X81446978Y-104354739D01*
X81422519Y-104411807D01*
X81419690Y-104420943D01*
X81363281Y-104607780D01*
X81351219Y-104668698D01*
X81338314Y-104729410D01*
X81337314Y-104738922D01*
X81318269Y-104933155D01*
X81318269Y-104933173D01*
X81315001Y-104966353D01*
X81315000Y-117033646D01*
X78685000Y-117033646D01*
X78685000Y-101329117D01*
X96765000Y-101329117D01*
X96765000Y-101670883D01*
X96831675Y-102006081D01*
X96962463Y-102321831D01*
X97152337Y-102605998D01*
X97394002Y-102847663D01*
X97678169Y-103037537D01*
X97993919Y-103168325D01*
X98329117Y-103235000D01*
X98670883Y-103235000D01*
X99006081Y-103168325D01*
X99321831Y-103037537D01*
X99605998Y-102847663D01*
X99847663Y-102605998D01*
X100037537Y-102321831D01*
X100168325Y-102006081D01*
X100235000Y-101670883D01*
X100235000Y-101329117D01*
X100168325Y-100993919D01*
X100037537Y-100678169D01*
X99847663Y-100394002D01*
X99605998Y-100152337D01*
X99321831Y-99962463D01*
X99006081Y-99831675D01*
X98670883Y-99765000D01*
X98329117Y-99765000D01*
X97993919Y-99831675D01*
X97678169Y-99962463D01*
X97394002Y-100152337D01*
X97152337Y-100394002D01*
X96962463Y-100678169D01*
X96831675Y-100993919D01*
X96765000Y-101329117D01*
X78685000Y-101329117D01*
X78685000Y-98033646D01*
X81315000Y-98033646D01*
X81317887Y-98062954D01*
X81317844Y-98069066D01*
X81318777Y-98078585D01*
X81339178Y-98272682D01*
X81351661Y-98333496D01*
X81363295Y-98394481D01*
X81366059Y-98403637D01*
X81423771Y-98590075D01*
X81447818Y-98647279D01*
X81471087Y-98704873D01*
X81475577Y-98713317D01*
X81568402Y-98884994D01*
X81603122Y-98936468D01*
X81637117Y-98988418D01*
X81643161Y-98995829D01*
X81767565Y-99146207D01*
X81811638Y-99189973D01*
X81855057Y-99234311D01*
X81862426Y-99240408D01*
X82013668Y-99363758D01*
X82065397Y-99398126D01*
X82116608Y-99433191D01*
X82125016Y-99437737D01*
X82125020Y-99437740D01*
X82125024Y-99437742D01*
X82297343Y-99529366D01*
X82354739Y-99553022D01*
X82411807Y-99577482D01*
X82420944Y-99580310D01*
X82607780Y-99636719D01*
X82668690Y-99648780D01*
X82729409Y-99661686D01*
X82738921Y-99662686D01*
X82933155Y-99681731D01*
X82933163Y-99681731D01*
X82966353Y-99685000D01*
X95033647Y-99685000D01*
X95062955Y-99682113D01*
X95069066Y-99682156D01*
X95078585Y-99681223D01*
X95272682Y-99660822D01*
X95333496Y-99648339D01*
X95394481Y-99636705D01*
X95403637Y-99633941D01*
X95590075Y-99576229D01*
X95647279Y-99552182D01*
X95704873Y-99528913D01*
X95713317Y-99524423D01*
X95884994Y-99431598D01*
X95936468Y-99396878D01*
X95988418Y-99362883D01*
X95995829Y-99356839D01*
X96146207Y-99232435D01*
X96189973Y-99188362D01*
X96234311Y-99144943D01*
X96240408Y-99137574D01*
X96363758Y-98986332D01*
X96398126Y-98934603D01*
X96433191Y-98883392D01*
X96437739Y-98874981D01*
X96437740Y-98874980D01*
X96437742Y-98874976D01*
X96529366Y-98702657D01*
X96553022Y-98645261D01*
X96577482Y-98588193D01*
X96580310Y-98579056D01*
X96636719Y-98392220D01*
X96648780Y-98331310D01*
X96661686Y-98270591D01*
X96662686Y-98261079D01*
X96681731Y-98066845D01*
X96681731Y-98066837D01*
X96685000Y-98033647D01*
X96685000Y-98033646D01*
X100315000Y-98033646D01*
X100317887Y-98062954D01*
X100317844Y-98069066D01*
X100318777Y-98078585D01*
X100339178Y-98272682D01*
X100351661Y-98333496D01*
X100363295Y-98394481D01*
X100366059Y-98403637D01*
X100423771Y-98590075D01*
X100447818Y-98647279D01*
X100471087Y-98704873D01*
X100475577Y-98713317D01*
X100568402Y-98884994D01*
X100603122Y-98936468D01*
X100637117Y-98988418D01*
X100643161Y-98995829D01*
X100767565Y-99146207D01*
X100811638Y-99189973D01*
X100855057Y-99234311D01*
X100862426Y-99240408D01*
X101013668Y-99363758D01*
X101065397Y-99398126D01*
X101116608Y-99433191D01*
X101125016Y-99437737D01*
X101125020Y-99437740D01*
X101125024Y-99437742D01*
X101297343Y-99529366D01*
X101354739Y-99553022D01*
X101411807Y-99577482D01*
X101420944Y-99580310D01*
X101607780Y-99636719D01*
X101668690Y-99648780D01*
X101729409Y-99661686D01*
X101738921Y-99662686D01*
X101933155Y-99681731D01*
X101933163Y-99681731D01*
X101966353Y-99685000D01*
X114033647Y-99685000D01*
X114062955Y-99682113D01*
X114069066Y-99682156D01*
X114078585Y-99681223D01*
X114272682Y-99660822D01*
X114333496Y-99648339D01*
X114394481Y-99636705D01*
X114403637Y-99633941D01*
X114590075Y-99576229D01*
X114647279Y-99552182D01*
X114704873Y-99528913D01*
X114713317Y-99524423D01*
X114884994Y-99431598D01*
X114936468Y-99396878D01*
X114988418Y-99362883D01*
X114995829Y-99356839D01*
X115146207Y-99232435D01*
X115189973Y-99188362D01*
X115234311Y-99144943D01*
X115240408Y-99137574D01*
X115363758Y-98986332D01*
X115398126Y-98934603D01*
X115433191Y-98883392D01*
X115437739Y-98874981D01*
X115437740Y-98874980D01*
X115437742Y-98874976D01*
X115529366Y-98702657D01*
X115553022Y-98645261D01*
X115577482Y-98588193D01*
X115580310Y-98579056D01*
X115636719Y-98392220D01*
X115648780Y-98331310D01*
X115661686Y-98270591D01*
X115662686Y-98261079D01*
X115681731Y-98066845D01*
X115681731Y-98066837D01*
X115685000Y-98033647D01*
X115685000Y-98033646D01*
X119315000Y-98033646D01*
X119317887Y-98062954D01*
X119317844Y-98069066D01*
X119318777Y-98078585D01*
X119339178Y-98272682D01*
X119351661Y-98333496D01*
X119363295Y-98394481D01*
X119366059Y-98403637D01*
X119423771Y-98590075D01*
X119447818Y-98647279D01*
X119471087Y-98704873D01*
X119475577Y-98713317D01*
X119568402Y-98884994D01*
X119603122Y-98936468D01*
X119637117Y-98988418D01*
X119643161Y-98995829D01*
X119767565Y-99146207D01*
X119811638Y-99189973D01*
X119855057Y-99234311D01*
X119862426Y-99240408D01*
X120013668Y-99363758D01*
X120065397Y-99398126D01*
X120116608Y-99433191D01*
X120125016Y-99437737D01*
X120125020Y-99437740D01*
X120125024Y-99437742D01*
X120297343Y-99529366D01*
X120354739Y-99553022D01*
X120411807Y-99577482D01*
X120420944Y-99580310D01*
X120607780Y-99636719D01*
X120668690Y-99648780D01*
X120729409Y-99661686D01*
X120738921Y-99662686D01*
X120933155Y-99681731D01*
X120933163Y-99681731D01*
X120966353Y-99685000D01*
X133033647Y-99685000D01*
X133062955Y-99682113D01*
X133069066Y-99682156D01*
X133078585Y-99681223D01*
X133272682Y-99660822D01*
X133333496Y-99648339D01*
X133394481Y-99636705D01*
X133403637Y-99633941D01*
X133590075Y-99576229D01*
X133647279Y-99552182D01*
X133704873Y-99528913D01*
X133713317Y-99524423D01*
X133884994Y-99431598D01*
X133936468Y-99396878D01*
X133988418Y-99362883D01*
X133995829Y-99356839D01*
X134146207Y-99232435D01*
X134189973Y-99188362D01*
X134234311Y-99144943D01*
X134240408Y-99137574D01*
X134363758Y-98986332D01*
X134398126Y-98934603D01*
X134433191Y-98883392D01*
X134437739Y-98874981D01*
X134437740Y-98874980D01*
X134437742Y-98874976D01*
X134529366Y-98702657D01*
X134553022Y-98645261D01*
X134577482Y-98588193D01*
X134580310Y-98579056D01*
X134636719Y-98392220D01*
X134648780Y-98331310D01*
X134661686Y-98270591D01*
X134662686Y-98261079D01*
X134681731Y-98066845D01*
X134681731Y-98066837D01*
X134685000Y-98033647D01*
X134685000Y-98033646D01*
X138315000Y-98033646D01*
X138317887Y-98062954D01*
X138317844Y-98069066D01*
X138318777Y-98078585D01*
X138339178Y-98272682D01*
X138351661Y-98333496D01*
X138363295Y-98394481D01*
X138366059Y-98403637D01*
X138423771Y-98590075D01*
X138447818Y-98647279D01*
X138471087Y-98704873D01*
X138475577Y-98713317D01*
X138568402Y-98884994D01*
X138603122Y-98936468D01*
X138637117Y-98988418D01*
X138643161Y-98995829D01*
X138767565Y-99146207D01*
X138811638Y-99189973D01*
X138855057Y-99234311D01*
X138862426Y-99240408D01*
X139013668Y-99363758D01*
X139065397Y-99398126D01*
X139116608Y-99433191D01*
X139125016Y-99437737D01*
X139125020Y-99437740D01*
X139125024Y-99437742D01*
X139297343Y-99529366D01*
X139354739Y-99553022D01*
X139411807Y-99577482D01*
X139420944Y-99580310D01*
X139607780Y-99636719D01*
X139668690Y-99648780D01*
X139729409Y-99661686D01*
X139738921Y-99662686D01*
X139933155Y-99681731D01*
X139933163Y-99681731D01*
X139966353Y-99685000D01*
X152033647Y-99685000D01*
X152062955Y-99682113D01*
X152069066Y-99682156D01*
X152078585Y-99681223D01*
X152272682Y-99660822D01*
X152333496Y-99648339D01*
X152394481Y-99636705D01*
X152403637Y-99633941D01*
X152590075Y-99576229D01*
X152647279Y-99552182D01*
X152704873Y-99528913D01*
X152713317Y-99524423D01*
X152884994Y-99431598D01*
X152936468Y-99396878D01*
X152988418Y-99362883D01*
X152995829Y-99356839D01*
X153146207Y-99232435D01*
X153189973Y-99188362D01*
X153234311Y-99144943D01*
X153240408Y-99137574D01*
X153363758Y-98986332D01*
X153398126Y-98934603D01*
X153433191Y-98883392D01*
X153437739Y-98874981D01*
X153437740Y-98874980D01*
X153437742Y-98874976D01*
X153529366Y-98702657D01*
X153553022Y-98645261D01*
X153577482Y-98588193D01*
X153580310Y-98579056D01*
X153636719Y-98392220D01*
X153648780Y-98331310D01*
X153661686Y-98270591D01*
X153662686Y-98261079D01*
X153681731Y-98066845D01*
X153681731Y-98066837D01*
X153685000Y-98033647D01*
X153685000Y-98033646D01*
X157315000Y-98033646D01*
X157317887Y-98062954D01*
X157317844Y-98069066D01*
X157318777Y-98078585D01*
X157339178Y-98272682D01*
X157351661Y-98333496D01*
X157363295Y-98394481D01*
X157366059Y-98403637D01*
X157423771Y-98590075D01*
X157447818Y-98647279D01*
X157471087Y-98704873D01*
X157475577Y-98713317D01*
X157568402Y-98884994D01*
X157603122Y-98936468D01*
X157637117Y-98988418D01*
X157643161Y-98995829D01*
X157767565Y-99146207D01*
X157811638Y-99189973D01*
X157855057Y-99234311D01*
X157862426Y-99240408D01*
X158013668Y-99363758D01*
X158065397Y-99398126D01*
X158116608Y-99433191D01*
X158125016Y-99437737D01*
X158125020Y-99437740D01*
X158125024Y-99437742D01*
X158297343Y-99529366D01*
X158354739Y-99553022D01*
X158411807Y-99577482D01*
X158420944Y-99580310D01*
X158607780Y-99636719D01*
X158668690Y-99648780D01*
X158729409Y-99661686D01*
X158738921Y-99662686D01*
X158933155Y-99681731D01*
X158933163Y-99681731D01*
X158966353Y-99685000D01*
X171033647Y-99685000D01*
X171062955Y-99682113D01*
X171069066Y-99682156D01*
X171078585Y-99681223D01*
X171272682Y-99660822D01*
X171333496Y-99648339D01*
X171394481Y-99636705D01*
X171403637Y-99633941D01*
X171590075Y-99576229D01*
X171647279Y-99552182D01*
X171704873Y-99528913D01*
X171713317Y-99524423D01*
X171884994Y-99431598D01*
X171936468Y-99396878D01*
X171988418Y-99362883D01*
X171995829Y-99356839D01*
X172146207Y-99232435D01*
X172189973Y-99188362D01*
X172234311Y-99144943D01*
X172240408Y-99137574D01*
X172363758Y-98986332D01*
X172398126Y-98934603D01*
X172433191Y-98883392D01*
X172437739Y-98874981D01*
X172437740Y-98874980D01*
X172437742Y-98874976D01*
X172529366Y-98702657D01*
X172553022Y-98645261D01*
X172577482Y-98588193D01*
X172580310Y-98579056D01*
X172636719Y-98392220D01*
X172648780Y-98331310D01*
X172661686Y-98270591D01*
X172662686Y-98261079D01*
X172681731Y-98066845D01*
X172681731Y-98066837D01*
X172685000Y-98033647D01*
X172685000Y-85966353D01*
X172682113Y-85937045D01*
X172682156Y-85930933D01*
X172681223Y-85921415D01*
X172660822Y-85727318D01*
X172648339Y-85666504D01*
X172636705Y-85605519D01*
X172633941Y-85596363D01*
X172576229Y-85409925D01*
X172552170Y-85352692D01*
X172528913Y-85295127D01*
X172524423Y-85286682D01*
X172431598Y-85115006D01*
X172396878Y-85063532D01*
X172362883Y-85011582D01*
X172356838Y-85004170D01*
X172232435Y-84853793D01*
X172188362Y-84810027D01*
X172144943Y-84765689D01*
X172137574Y-84759592D01*
X171986332Y-84636242D01*
X171934614Y-84601881D01*
X171883393Y-84566809D01*
X171874980Y-84562260D01*
X171702657Y-84470635D01*
X171645261Y-84446978D01*
X171588193Y-84422519D01*
X171579057Y-84419690D01*
X171392220Y-84363281D01*
X171331302Y-84351219D01*
X171270590Y-84338314D01*
X171261078Y-84337314D01*
X171066845Y-84318269D01*
X171066837Y-84318269D01*
X171033647Y-84315000D01*
X158966353Y-84315000D01*
X158937045Y-84317887D01*
X158930933Y-84317844D01*
X158921415Y-84318777D01*
X158727318Y-84339178D01*
X158666504Y-84351661D01*
X158605519Y-84363295D01*
X158596363Y-84366059D01*
X158409925Y-84423771D01*
X158352692Y-84447830D01*
X158295127Y-84471087D01*
X158286682Y-84475577D01*
X158115006Y-84568402D01*
X158063532Y-84603122D01*
X158011582Y-84637117D01*
X158004170Y-84643162D01*
X157853793Y-84767565D01*
X157810027Y-84811638D01*
X157765689Y-84855057D01*
X157759592Y-84862426D01*
X157636242Y-85013668D01*
X157601881Y-85065386D01*
X157566809Y-85116607D01*
X157562260Y-85125020D01*
X157470635Y-85297343D01*
X157446978Y-85354739D01*
X157422519Y-85411807D01*
X157419690Y-85420943D01*
X157363281Y-85607780D01*
X157351219Y-85668698D01*
X157338314Y-85729410D01*
X157337314Y-85738922D01*
X157318269Y-85933155D01*
X157318269Y-85933173D01*
X157315001Y-85966353D01*
X157315000Y-98033646D01*
X153685000Y-98033646D01*
X153685000Y-85966353D01*
X153682113Y-85937045D01*
X153682156Y-85930933D01*
X153681223Y-85921415D01*
X153660822Y-85727318D01*
X153648339Y-85666504D01*
X153636705Y-85605519D01*
X153633941Y-85596363D01*
X153576229Y-85409925D01*
X153552170Y-85352692D01*
X153528913Y-85295127D01*
X153524423Y-85286682D01*
X153431598Y-85115006D01*
X153396878Y-85063532D01*
X153362883Y-85011582D01*
X153356838Y-85004170D01*
X153232435Y-84853793D01*
X153188362Y-84810027D01*
X153144943Y-84765689D01*
X153137574Y-84759592D01*
X152986332Y-84636242D01*
X152934614Y-84601881D01*
X152883393Y-84566809D01*
X152874980Y-84562260D01*
X152702657Y-84470635D01*
X152645261Y-84446978D01*
X152588193Y-84422519D01*
X152579057Y-84419690D01*
X152392220Y-84363281D01*
X152331302Y-84351219D01*
X152270590Y-84338314D01*
X152261078Y-84337314D01*
X152066845Y-84318269D01*
X152066837Y-84318269D01*
X152033647Y-84315000D01*
X139966353Y-84315000D01*
X139937045Y-84317887D01*
X139930933Y-84317844D01*
X139921415Y-84318777D01*
X139727318Y-84339178D01*
X139666504Y-84351661D01*
X139605519Y-84363295D01*
X139596363Y-84366059D01*
X139409925Y-84423771D01*
X139352692Y-84447830D01*
X139295127Y-84471087D01*
X139286682Y-84475577D01*
X139115006Y-84568402D01*
X139063532Y-84603122D01*
X139011582Y-84637117D01*
X139004170Y-84643162D01*
X138853793Y-84767565D01*
X138810027Y-84811638D01*
X138765689Y-84855057D01*
X138759592Y-84862426D01*
X138636242Y-85013668D01*
X138601881Y-85065386D01*
X138566809Y-85116607D01*
X138562260Y-85125020D01*
X138470635Y-85297343D01*
X138446978Y-85354739D01*
X138422519Y-85411807D01*
X138419690Y-85420943D01*
X138363281Y-85607780D01*
X138351219Y-85668698D01*
X138338314Y-85729410D01*
X138337314Y-85738922D01*
X138318269Y-85933155D01*
X138318269Y-85933173D01*
X138315001Y-85966353D01*
X138315000Y-98033646D01*
X134685000Y-98033646D01*
X134685000Y-85966353D01*
X134682113Y-85937045D01*
X134682156Y-85930933D01*
X134681223Y-85921415D01*
X134660822Y-85727318D01*
X134648339Y-85666504D01*
X134636705Y-85605519D01*
X134633941Y-85596363D01*
X134576229Y-85409925D01*
X134552170Y-85352692D01*
X134528913Y-85295127D01*
X134524423Y-85286682D01*
X134431598Y-85115006D01*
X134396878Y-85063532D01*
X134362883Y-85011582D01*
X134356838Y-85004170D01*
X134232435Y-84853793D01*
X134188362Y-84810027D01*
X134144943Y-84765689D01*
X134137574Y-84759592D01*
X133986332Y-84636242D01*
X133934614Y-84601881D01*
X133883393Y-84566809D01*
X133874980Y-84562260D01*
X133702657Y-84470635D01*
X133645261Y-84446978D01*
X133588193Y-84422519D01*
X133579057Y-84419690D01*
X133392220Y-84363281D01*
X133331302Y-84351219D01*
X133270590Y-84338314D01*
X133261078Y-84337314D01*
X133066845Y-84318269D01*
X133066837Y-84318269D01*
X133033647Y-84315000D01*
X120966353Y-84315000D01*
X120937045Y-84317887D01*
X120930933Y-84317844D01*
X120921415Y-84318777D01*
X120727318Y-84339178D01*
X120666504Y-84351661D01*
X120605519Y-84363295D01*
X120596363Y-84366059D01*
X120409925Y-84423771D01*
X120352692Y-84447830D01*
X120295127Y-84471087D01*
X120286682Y-84475577D01*
X120115006Y-84568402D01*
X120063532Y-84603122D01*
X120011582Y-84637117D01*
X120004170Y-84643162D01*
X119853793Y-84767565D01*
X119810027Y-84811638D01*
X119765689Y-84855057D01*
X119759592Y-84862426D01*
X119636242Y-85013668D01*
X119601881Y-85065386D01*
X119566809Y-85116607D01*
X119562260Y-85125020D01*
X119470635Y-85297343D01*
X119446978Y-85354739D01*
X119422519Y-85411807D01*
X119419690Y-85420943D01*
X119363281Y-85607780D01*
X119351219Y-85668698D01*
X119338314Y-85729410D01*
X119337314Y-85738922D01*
X119318269Y-85933155D01*
X119318269Y-85933173D01*
X119315001Y-85966353D01*
X119315000Y-98033646D01*
X115685000Y-98033646D01*
X115685000Y-85966353D01*
X115682113Y-85937045D01*
X115682156Y-85930933D01*
X115681223Y-85921415D01*
X115660822Y-85727318D01*
X115648339Y-85666504D01*
X115636705Y-85605519D01*
X115633941Y-85596363D01*
X115576229Y-85409925D01*
X115552170Y-85352692D01*
X115528913Y-85295127D01*
X115524423Y-85286682D01*
X115431598Y-85115006D01*
X115396878Y-85063532D01*
X115362883Y-85011582D01*
X115356838Y-85004170D01*
X115232435Y-84853793D01*
X115188362Y-84810027D01*
X115144943Y-84765689D01*
X115137574Y-84759592D01*
X114986332Y-84636242D01*
X114934614Y-84601881D01*
X114883393Y-84566809D01*
X114874980Y-84562260D01*
X114702657Y-84470635D01*
X114645261Y-84446978D01*
X114588193Y-84422519D01*
X114579057Y-84419690D01*
X114392220Y-84363281D01*
X114331302Y-84351219D01*
X114270590Y-84338314D01*
X114261078Y-84337314D01*
X114066845Y-84318269D01*
X114066837Y-84318269D01*
X114033647Y-84315000D01*
X101966353Y-84315000D01*
X101937045Y-84317887D01*
X101930933Y-84317844D01*
X101921415Y-84318777D01*
X101727318Y-84339178D01*
X101666504Y-84351661D01*
X101605519Y-84363295D01*
X101596363Y-84366059D01*
X101409925Y-84423771D01*
X101352692Y-84447830D01*
X101295127Y-84471087D01*
X101286682Y-84475577D01*
X101115006Y-84568402D01*
X101063532Y-84603122D01*
X101011582Y-84637117D01*
X101004170Y-84643162D01*
X100853793Y-84767565D01*
X100810027Y-84811638D01*
X100765689Y-84855057D01*
X100759592Y-84862426D01*
X100636242Y-85013668D01*
X100601881Y-85065386D01*
X100566809Y-85116607D01*
X100562260Y-85125020D01*
X100470635Y-85297343D01*
X100446978Y-85354739D01*
X100422519Y-85411807D01*
X100419690Y-85420943D01*
X100363281Y-85607780D01*
X100351219Y-85668698D01*
X100338314Y-85729410D01*
X100337314Y-85738922D01*
X100318269Y-85933155D01*
X100318269Y-85933173D01*
X100315001Y-85966353D01*
X100315000Y-98033646D01*
X96685000Y-98033646D01*
X96685000Y-85966353D01*
X96682113Y-85937045D01*
X96682156Y-85930933D01*
X96681223Y-85921415D01*
X96660822Y-85727318D01*
X96648339Y-85666504D01*
X96636705Y-85605519D01*
X96633941Y-85596363D01*
X96576229Y-85409925D01*
X96552170Y-85352692D01*
X96528913Y-85295127D01*
X96524423Y-85286682D01*
X96431598Y-85115006D01*
X96396878Y-85063532D01*
X96362883Y-85011582D01*
X96356838Y-85004170D01*
X96232435Y-84853793D01*
X96188362Y-84810027D01*
X96144943Y-84765689D01*
X96137574Y-84759592D01*
X95986332Y-84636242D01*
X95934614Y-84601881D01*
X95883393Y-84566809D01*
X95874980Y-84562260D01*
X95702657Y-84470635D01*
X95645261Y-84446978D01*
X95588193Y-84422519D01*
X95579057Y-84419690D01*
X95392220Y-84363281D01*
X95331302Y-84351219D01*
X95270590Y-84338314D01*
X95261078Y-84337314D01*
X95066845Y-84318269D01*
X95066837Y-84318269D01*
X95033647Y-84315000D01*
X82966353Y-84315000D01*
X82937045Y-84317887D01*
X82930933Y-84317844D01*
X82921415Y-84318777D01*
X82727318Y-84339178D01*
X82666504Y-84351661D01*
X82605519Y-84363295D01*
X82596363Y-84366059D01*
X82409925Y-84423771D01*
X82352692Y-84447830D01*
X82295127Y-84471087D01*
X82286682Y-84475577D01*
X82115006Y-84568402D01*
X82063532Y-84603122D01*
X82011582Y-84637117D01*
X82004170Y-84643162D01*
X81853793Y-84767565D01*
X81810027Y-84811638D01*
X81765689Y-84855057D01*
X81759592Y-84862426D01*
X81636242Y-85013668D01*
X81601881Y-85065386D01*
X81566809Y-85116607D01*
X81562260Y-85125020D01*
X81470635Y-85297343D01*
X81446978Y-85354739D01*
X81422519Y-85411807D01*
X81419690Y-85420943D01*
X81363281Y-85607780D01*
X81351219Y-85668698D01*
X81338314Y-85729410D01*
X81337314Y-85738922D01*
X81318269Y-85933155D01*
X81318269Y-85933173D01*
X81315001Y-85966353D01*
X81315000Y-98033646D01*
X78685000Y-98033646D01*
X78685000Y-82778166D01*
X129401439Y-82778166D01*
X129436550Y-82991588D01*
X129640826Y-83082458D01*
X129858905Y-83131731D01*
X130082406Y-83137511D01*
X130302740Y-83099577D01*
X130511440Y-83019387D01*
X130563450Y-82991588D01*
X130598561Y-82778166D01*
X130000000Y-82179605D01*
X129401439Y-82778166D01*
X78685000Y-82778166D01*
X78685000Y-82082406D01*
X128862489Y-82082406D01*
X128900423Y-82302740D01*
X128980613Y-82511440D01*
X129008412Y-82563450D01*
X129221834Y-82598561D01*
X129820395Y-82000000D01*
X130179605Y-82000000D01*
X130778166Y-82598561D01*
X130991588Y-82563450D01*
X131082458Y-82359174D01*
X131131731Y-82141095D01*
X131137511Y-81917594D01*
X131099577Y-81697260D01*
X131019387Y-81488560D01*
X130991588Y-81436550D01*
X130778166Y-81401439D01*
X130179605Y-82000000D01*
X129820395Y-82000000D01*
X129221834Y-81401439D01*
X129008412Y-81436550D01*
X128917542Y-81640826D01*
X128868269Y-81858905D01*
X128862489Y-82082406D01*
X78685000Y-82082406D01*
X78685000Y-81221834D01*
X129401439Y-81221834D01*
X130000000Y-81820395D01*
X130598561Y-81221834D01*
X130563450Y-81008412D01*
X130359174Y-80917542D01*
X130141095Y-80868269D01*
X129917594Y-80862489D01*
X129697260Y-80900423D01*
X129488560Y-80980613D01*
X129436550Y-81008412D01*
X129401439Y-81221834D01*
X78685000Y-81221834D01*
X78685000Y-79033646D01*
X81315000Y-79033646D01*
X81317887Y-79062954D01*
X81317844Y-79069066D01*
X81318777Y-79078585D01*
X81339178Y-79272682D01*
X81351661Y-79333496D01*
X81363295Y-79394481D01*
X81366059Y-79403637D01*
X81423771Y-79590075D01*
X81447818Y-79647279D01*
X81471087Y-79704873D01*
X81475577Y-79713317D01*
X81568402Y-79884994D01*
X81603122Y-79936468D01*
X81637117Y-79988418D01*
X81643161Y-79995829D01*
X81767565Y-80146207D01*
X81811638Y-80189973D01*
X81855057Y-80234311D01*
X81862426Y-80240408D01*
X82013668Y-80363758D01*
X82065397Y-80398126D01*
X82116608Y-80433191D01*
X82125016Y-80437737D01*
X82125020Y-80437740D01*
X82125024Y-80437742D01*
X82297343Y-80529366D01*
X82354739Y-80553022D01*
X82411807Y-80577482D01*
X82420944Y-80580310D01*
X82607780Y-80636719D01*
X82668690Y-80648780D01*
X82729409Y-80661686D01*
X82738921Y-80662686D01*
X82933155Y-80681731D01*
X82933163Y-80681731D01*
X82966353Y-80685000D01*
X95033647Y-80685000D01*
X95062955Y-80682113D01*
X95069066Y-80682156D01*
X95078585Y-80681223D01*
X95272682Y-80660822D01*
X95333496Y-80648339D01*
X95394481Y-80636705D01*
X95403637Y-80633941D01*
X95590075Y-80576229D01*
X95647279Y-80552182D01*
X95704873Y-80528913D01*
X95713317Y-80524423D01*
X95884994Y-80431598D01*
X95936468Y-80396878D01*
X95988418Y-80362883D01*
X95995829Y-80356839D01*
X96146207Y-80232435D01*
X96189973Y-80188362D01*
X96234311Y-80144943D01*
X96240408Y-80137574D01*
X96363758Y-79986332D01*
X96398126Y-79934603D01*
X96433191Y-79883392D01*
X96437739Y-79874981D01*
X96437740Y-79874980D01*
X96437742Y-79874976D01*
X96529366Y-79702657D01*
X96553022Y-79645261D01*
X96577482Y-79588193D01*
X96580310Y-79579056D01*
X96636719Y-79392220D01*
X96648780Y-79331310D01*
X96661686Y-79270591D01*
X96662686Y-79261079D01*
X96681731Y-79066845D01*
X96681731Y-79066837D01*
X96685000Y-79033647D01*
X96685000Y-79033646D01*
X100315000Y-79033646D01*
X100317887Y-79062954D01*
X100317844Y-79069066D01*
X100318777Y-79078585D01*
X100339178Y-79272682D01*
X100351661Y-79333496D01*
X100363295Y-79394481D01*
X100366059Y-79403637D01*
X100423771Y-79590075D01*
X100447818Y-79647279D01*
X100471087Y-79704873D01*
X100475577Y-79713317D01*
X100568402Y-79884994D01*
X100603122Y-79936468D01*
X100637117Y-79988418D01*
X100643161Y-79995829D01*
X100767565Y-80146207D01*
X100811638Y-80189973D01*
X100855057Y-80234311D01*
X100862426Y-80240408D01*
X101013668Y-80363758D01*
X101065397Y-80398126D01*
X101116608Y-80433191D01*
X101125016Y-80437737D01*
X101125020Y-80437740D01*
X101125024Y-80437742D01*
X101297343Y-80529366D01*
X101354739Y-80553022D01*
X101411807Y-80577482D01*
X101420944Y-80580310D01*
X101607780Y-80636719D01*
X101668690Y-80648780D01*
X101729409Y-80661686D01*
X101738921Y-80662686D01*
X101933155Y-80681731D01*
X101933163Y-80681731D01*
X101966353Y-80685000D01*
X114033647Y-80685000D01*
X114062955Y-80682113D01*
X114069066Y-80682156D01*
X114078585Y-80681223D01*
X114272682Y-80660822D01*
X114333496Y-80648339D01*
X114394481Y-80636705D01*
X114403637Y-80633941D01*
X114590075Y-80576229D01*
X114647279Y-80552182D01*
X114704873Y-80528913D01*
X114713317Y-80524423D01*
X114884994Y-80431598D01*
X114936468Y-80396878D01*
X114988418Y-80362883D01*
X114995829Y-80356839D01*
X115146207Y-80232435D01*
X115189973Y-80188362D01*
X115234311Y-80144943D01*
X115240408Y-80137574D01*
X115363758Y-79986332D01*
X115398126Y-79934603D01*
X115433191Y-79883392D01*
X115437739Y-79874981D01*
X115437740Y-79874980D01*
X115437742Y-79874976D01*
X115529366Y-79702657D01*
X115553022Y-79645261D01*
X115577482Y-79588193D01*
X115580310Y-79579056D01*
X115636719Y-79392220D01*
X115648780Y-79331310D01*
X115661686Y-79270591D01*
X115662686Y-79261079D01*
X115681731Y-79066845D01*
X115681731Y-79066837D01*
X115685000Y-79033647D01*
X115685000Y-79033646D01*
X119315000Y-79033646D01*
X119317887Y-79062954D01*
X119317844Y-79069066D01*
X119318777Y-79078585D01*
X119339178Y-79272682D01*
X119351661Y-79333496D01*
X119363295Y-79394481D01*
X119366059Y-79403637D01*
X119423771Y-79590075D01*
X119447818Y-79647279D01*
X119471087Y-79704873D01*
X119475577Y-79713317D01*
X119568402Y-79884994D01*
X119603122Y-79936468D01*
X119637117Y-79988418D01*
X119643161Y-79995829D01*
X119767565Y-80146207D01*
X119811638Y-80189973D01*
X119855057Y-80234311D01*
X119862426Y-80240408D01*
X120013668Y-80363758D01*
X120065397Y-80398126D01*
X120116608Y-80433191D01*
X120125016Y-80437737D01*
X120125020Y-80437740D01*
X120125024Y-80437742D01*
X120297343Y-80529366D01*
X120354739Y-80553022D01*
X120411807Y-80577482D01*
X120420944Y-80580310D01*
X120607780Y-80636719D01*
X120668690Y-80648780D01*
X120729409Y-80661686D01*
X120738921Y-80662686D01*
X120933155Y-80681731D01*
X120933163Y-80681731D01*
X120966353Y-80685000D01*
X133033647Y-80685000D01*
X133062955Y-80682113D01*
X133069066Y-80682156D01*
X133078585Y-80681223D01*
X133272682Y-80660822D01*
X133333496Y-80648339D01*
X133394481Y-80636705D01*
X133403637Y-80633941D01*
X133590075Y-80576229D01*
X133647279Y-80552182D01*
X133704873Y-80528913D01*
X133713317Y-80524423D01*
X133884994Y-80431598D01*
X133936468Y-80396878D01*
X133988418Y-80362883D01*
X133995829Y-80356839D01*
X134146207Y-80232435D01*
X134189973Y-80188362D01*
X134234311Y-80144943D01*
X134240408Y-80137574D01*
X134363758Y-79986332D01*
X134398126Y-79934603D01*
X134433191Y-79883392D01*
X134437739Y-79874981D01*
X134437740Y-79874980D01*
X134437742Y-79874976D01*
X134529366Y-79702657D01*
X134553022Y-79645261D01*
X134577482Y-79588193D01*
X134580310Y-79579056D01*
X134636719Y-79392220D01*
X134648780Y-79331310D01*
X134661686Y-79270591D01*
X134662686Y-79261079D01*
X134681731Y-79066845D01*
X134681731Y-79066837D01*
X134685000Y-79033647D01*
X134685000Y-79033646D01*
X138315000Y-79033646D01*
X138317887Y-79062954D01*
X138317844Y-79069066D01*
X138318777Y-79078585D01*
X138339178Y-79272682D01*
X138351661Y-79333496D01*
X138363295Y-79394481D01*
X138366059Y-79403637D01*
X138423771Y-79590075D01*
X138447818Y-79647279D01*
X138471087Y-79704873D01*
X138475577Y-79713317D01*
X138568402Y-79884994D01*
X138603122Y-79936468D01*
X138637117Y-79988418D01*
X138643161Y-79995829D01*
X138767565Y-80146207D01*
X138811638Y-80189973D01*
X138855057Y-80234311D01*
X138862426Y-80240408D01*
X139013668Y-80363758D01*
X139065397Y-80398126D01*
X139116608Y-80433191D01*
X139125016Y-80437737D01*
X139125020Y-80437740D01*
X139125024Y-80437742D01*
X139297343Y-80529366D01*
X139354739Y-80553022D01*
X139411807Y-80577482D01*
X139420944Y-80580310D01*
X139607780Y-80636719D01*
X139668690Y-80648780D01*
X139729409Y-80661686D01*
X139738921Y-80662686D01*
X139933155Y-80681731D01*
X139933163Y-80681731D01*
X139966353Y-80685000D01*
X152033647Y-80685000D01*
X152062955Y-80682113D01*
X152069066Y-80682156D01*
X152078585Y-80681223D01*
X152272682Y-80660822D01*
X152333496Y-80648339D01*
X152394481Y-80636705D01*
X152403637Y-80633941D01*
X152590075Y-80576229D01*
X152647279Y-80552182D01*
X152704873Y-80528913D01*
X152713317Y-80524423D01*
X152884994Y-80431598D01*
X152936468Y-80396878D01*
X152988418Y-80362883D01*
X152995829Y-80356839D01*
X153146207Y-80232435D01*
X153189973Y-80188362D01*
X153234311Y-80144943D01*
X153240408Y-80137574D01*
X153363758Y-79986332D01*
X153398126Y-79934603D01*
X153433191Y-79883392D01*
X153437739Y-79874981D01*
X153437740Y-79874980D01*
X153437742Y-79874976D01*
X153529366Y-79702657D01*
X153553022Y-79645261D01*
X153577482Y-79588193D01*
X153580310Y-79579056D01*
X153636719Y-79392220D01*
X153648780Y-79331310D01*
X153661686Y-79270591D01*
X153662686Y-79261079D01*
X153681731Y-79066845D01*
X153681731Y-79066837D01*
X153685000Y-79033647D01*
X153685000Y-79033646D01*
X157315000Y-79033646D01*
X157317887Y-79062954D01*
X157317844Y-79069066D01*
X157318777Y-79078585D01*
X157339178Y-79272682D01*
X157351661Y-79333496D01*
X157363295Y-79394481D01*
X157366059Y-79403637D01*
X157423771Y-79590075D01*
X157447818Y-79647279D01*
X157471087Y-79704873D01*
X157475577Y-79713317D01*
X157568402Y-79884994D01*
X157603122Y-79936468D01*
X157637117Y-79988418D01*
X157643161Y-79995829D01*
X157767565Y-80146207D01*
X157811638Y-80189973D01*
X157855057Y-80234311D01*
X157862426Y-80240408D01*
X158013668Y-80363758D01*
X158065397Y-80398126D01*
X158116608Y-80433191D01*
X158125016Y-80437737D01*
X158125020Y-80437740D01*
X158125024Y-80437742D01*
X158297343Y-80529366D01*
X158354739Y-80553022D01*
X158411807Y-80577482D01*
X158420944Y-80580310D01*
X158607780Y-80636719D01*
X158668690Y-80648780D01*
X158729409Y-80661686D01*
X158738921Y-80662686D01*
X158933155Y-80681731D01*
X158933163Y-80681731D01*
X158966353Y-80685000D01*
X171033647Y-80685000D01*
X171062955Y-80682113D01*
X171069066Y-80682156D01*
X171078585Y-80681223D01*
X171272682Y-80660822D01*
X171333496Y-80648339D01*
X171394481Y-80636705D01*
X171403637Y-80633941D01*
X171590075Y-80576229D01*
X171647279Y-80552182D01*
X171704873Y-80528913D01*
X171713317Y-80524423D01*
X171884994Y-80431598D01*
X171936468Y-80396878D01*
X171988418Y-80362883D01*
X171995829Y-80356839D01*
X172146207Y-80232435D01*
X172189973Y-80188362D01*
X172234311Y-80144943D01*
X172240408Y-80137574D01*
X172363758Y-79986332D01*
X172398126Y-79934603D01*
X172433191Y-79883392D01*
X172437739Y-79874981D01*
X172437740Y-79874980D01*
X172437742Y-79874976D01*
X172529366Y-79702657D01*
X172553022Y-79645261D01*
X172577482Y-79588193D01*
X172580310Y-79579056D01*
X172636719Y-79392220D01*
X172648780Y-79331310D01*
X172661686Y-79270591D01*
X172662686Y-79261079D01*
X172681731Y-79066845D01*
X172681731Y-79066837D01*
X172685000Y-79033647D01*
X172685000Y-66966353D01*
X172682113Y-66937045D01*
X172682156Y-66930933D01*
X172681223Y-66921415D01*
X172660822Y-66727318D01*
X172648339Y-66666504D01*
X172636705Y-66605519D01*
X172633941Y-66596363D01*
X172576229Y-66409925D01*
X172552170Y-66352692D01*
X172528913Y-66295127D01*
X172524423Y-66286682D01*
X172431598Y-66115006D01*
X172396878Y-66063532D01*
X172362883Y-66011582D01*
X172356838Y-66004170D01*
X172232435Y-65853793D01*
X172188362Y-65810027D01*
X172144943Y-65765689D01*
X172137574Y-65759592D01*
X171986332Y-65636242D01*
X171934614Y-65601881D01*
X171883393Y-65566809D01*
X171874980Y-65562260D01*
X171702657Y-65470635D01*
X171645261Y-65446978D01*
X171588193Y-65422519D01*
X171579057Y-65419690D01*
X171392220Y-65363281D01*
X171331302Y-65351219D01*
X171270590Y-65338314D01*
X171261078Y-65337314D01*
X171066845Y-65318269D01*
X171066837Y-65318269D01*
X171033647Y-65315000D01*
X158966353Y-65315000D01*
X158937045Y-65317887D01*
X158930933Y-65317844D01*
X158921415Y-65318777D01*
X158727318Y-65339178D01*
X158666504Y-65351661D01*
X158605519Y-65363295D01*
X158596363Y-65366059D01*
X158409925Y-65423771D01*
X158352692Y-65447830D01*
X158295127Y-65471087D01*
X158286682Y-65475577D01*
X158115006Y-65568402D01*
X158063532Y-65603122D01*
X158011582Y-65637117D01*
X158004170Y-65643162D01*
X157853793Y-65767565D01*
X157810027Y-65811638D01*
X157765689Y-65855057D01*
X157759592Y-65862426D01*
X157636242Y-66013668D01*
X157601881Y-66065386D01*
X157566809Y-66116607D01*
X157562260Y-66125020D01*
X157470635Y-66297343D01*
X157446978Y-66354739D01*
X157422519Y-66411807D01*
X157419690Y-66420943D01*
X157363281Y-66607780D01*
X157351219Y-66668698D01*
X157338314Y-66729410D01*
X157337314Y-66738922D01*
X157318269Y-66933155D01*
X157318269Y-66933173D01*
X157315001Y-66966353D01*
X157315000Y-79033646D01*
X153685000Y-79033646D01*
X153685000Y-66966353D01*
X153682113Y-66937045D01*
X153682156Y-66930933D01*
X153681223Y-66921415D01*
X153660822Y-66727318D01*
X153648339Y-66666504D01*
X153636705Y-66605519D01*
X153633941Y-66596363D01*
X153576229Y-66409925D01*
X153552170Y-66352692D01*
X153528913Y-66295127D01*
X153524423Y-66286682D01*
X153431598Y-66115006D01*
X153396878Y-66063532D01*
X153362883Y-66011582D01*
X153356838Y-66004170D01*
X153232435Y-65853793D01*
X153188362Y-65810027D01*
X153144943Y-65765689D01*
X153137574Y-65759592D01*
X152986332Y-65636242D01*
X152934614Y-65601881D01*
X152883393Y-65566809D01*
X152874980Y-65562260D01*
X152702657Y-65470635D01*
X152645261Y-65446978D01*
X152588193Y-65422519D01*
X152579057Y-65419690D01*
X152392220Y-65363281D01*
X152331302Y-65351219D01*
X152270590Y-65338314D01*
X152261078Y-65337314D01*
X152066845Y-65318269D01*
X152066837Y-65318269D01*
X152033647Y-65315000D01*
X139966353Y-65315000D01*
X139937045Y-65317887D01*
X139930933Y-65317844D01*
X139921415Y-65318777D01*
X139727318Y-65339178D01*
X139666504Y-65351661D01*
X139605519Y-65363295D01*
X139596363Y-65366059D01*
X139409925Y-65423771D01*
X139352692Y-65447830D01*
X139295127Y-65471087D01*
X139286682Y-65475577D01*
X139115006Y-65568402D01*
X139063532Y-65603122D01*
X139011582Y-65637117D01*
X139004170Y-65643162D01*
X138853793Y-65767565D01*
X138810027Y-65811638D01*
X138765689Y-65855057D01*
X138759592Y-65862426D01*
X138636242Y-66013668D01*
X138601881Y-66065386D01*
X138566809Y-66116607D01*
X138562260Y-66125020D01*
X138470635Y-66297343D01*
X138446978Y-66354739D01*
X138422519Y-66411807D01*
X138419690Y-66420943D01*
X138363281Y-66607780D01*
X138351219Y-66668698D01*
X138338314Y-66729410D01*
X138337314Y-66738922D01*
X138318269Y-66933155D01*
X138318269Y-66933173D01*
X138315001Y-66966353D01*
X138315000Y-79033646D01*
X134685000Y-79033646D01*
X134685000Y-66966353D01*
X134682113Y-66937045D01*
X134682156Y-66930933D01*
X134681223Y-66921415D01*
X134660822Y-66727318D01*
X134648339Y-66666504D01*
X134636705Y-66605519D01*
X134633941Y-66596363D01*
X134576229Y-66409925D01*
X134552170Y-66352692D01*
X134528913Y-66295127D01*
X134524423Y-66286682D01*
X134431598Y-66115006D01*
X134396878Y-66063532D01*
X134362883Y-66011582D01*
X134356838Y-66004170D01*
X134232435Y-65853793D01*
X134188362Y-65810027D01*
X134144943Y-65765689D01*
X134137574Y-65759592D01*
X133986332Y-65636242D01*
X133934614Y-65601881D01*
X133883393Y-65566809D01*
X133874980Y-65562260D01*
X133702657Y-65470635D01*
X133645261Y-65446978D01*
X133588193Y-65422519D01*
X133579057Y-65419690D01*
X133392220Y-65363281D01*
X133331302Y-65351219D01*
X133270590Y-65338314D01*
X133261078Y-65337314D01*
X133066845Y-65318269D01*
X133066837Y-65318269D01*
X133033647Y-65315000D01*
X120966353Y-65315000D01*
X120937045Y-65317887D01*
X120930933Y-65317844D01*
X120921415Y-65318777D01*
X120727318Y-65339178D01*
X120666504Y-65351661D01*
X120605519Y-65363295D01*
X120596363Y-65366059D01*
X120409925Y-65423771D01*
X120352692Y-65447830D01*
X120295127Y-65471087D01*
X120286682Y-65475577D01*
X120115006Y-65568402D01*
X120063532Y-65603122D01*
X120011582Y-65637117D01*
X120004170Y-65643162D01*
X119853793Y-65767565D01*
X119810027Y-65811638D01*
X119765689Y-65855057D01*
X119759592Y-65862426D01*
X119636242Y-66013668D01*
X119601881Y-66065386D01*
X119566809Y-66116607D01*
X119562260Y-66125020D01*
X119470635Y-66297343D01*
X119446978Y-66354739D01*
X119422519Y-66411807D01*
X119419690Y-66420943D01*
X119363281Y-66607780D01*
X119351219Y-66668698D01*
X119338314Y-66729410D01*
X119337314Y-66738922D01*
X119318269Y-66933155D01*
X119318269Y-66933173D01*
X119315001Y-66966353D01*
X119315000Y-79033646D01*
X115685000Y-79033646D01*
X115685000Y-66966353D01*
X115682113Y-66937045D01*
X115682156Y-66930933D01*
X115681223Y-66921415D01*
X115660822Y-66727318D01*
X115648339Y-66666504D01*
X115636705Y-66605519D01*
X115633941Y-66596363D01*
X115576229Y-66409925D01*
X115552170Y-66352692D01*
X115528913Y-66295127D01*
X115524423Y-66286682D01*
X115431598Y-66115006D01*
X115396878Y-66063532D01*
X115362883Y-66011582D01*
X115356838Y-66004170D01*
X115232435Y-65853793D01*
X115188362Y-65810027D01*
X115144943Y-65765689D01*
X115137574Y-65759592D01*
X114986332Y-65636242D01*
X114934614Y-65601881D01*
X114883393Y-65566809D01*
X114874980Y-65562260D01*
X114702657Y-65470635D01*
X114645261Y-65446978D01*
X114588193Y-65422519D01*
X114579057Y-65419690D01*
X114392220Y-65363281D01*
X114331302Y-65351219D01*
X114270590Y-65338314D01*
X114261078Y-65337314D01*
X114066845Y-65318269D01*
X114066837Y-65318269D01*
X114033647Y-65315000D01*
X101966353Y-65315000D01*
X101937045Y-65317887D01*
X101930933Y-65317844D01*
X101921415Y-65318777D01*
X101727318Y-65339178D01*
X101666504Y-65351661D01*
X101605519Y-65363295D01*
X101596363Y-65366059D01*
X101409925Y-65423771D01*
X101352692Y-65447830D01*
X101295127Y-65471087D01*
X101286682Y-65475577D01*
X101115006Y-65568402D01*
X101063532Y-65603122D01*
X101011582Y-65637117D01*
X101004170Y-65643162D01*
X100853793Y-65767565D01*
X100810027Y-65811638D01*
X100765689Y-65855057D01*
X100759592Y-65862426D01*
X100636242Y-66013668D01*
X100601881Y-66065386D01*
X100566809Y-66116607D01*
X100562260Y-66125020D01*
X100470635Y-66297343D01*
X100446978Y-66354739D01*
X100422519Y-66411807D01*
X100419690Y-66420943D01*
X100363281Y-66607780D01*
X100351219Y-66668698D01*
X100338314Y-66729410D01*
X100337314Y-66738922D01*
X100318269Y-66933155D01*
X100318269Y-66933173D01*
X100315001Y-66966353D01*
X100315000Y-79033646D01*
X96685000Y-79033646D01*
X96685000Y-66966353D01*
X96682113Y-66937045D01*
X96682156Y-66930933D01*
X96681223Y-66921415D01*
X96660822Y-66727318D01*
X96648339Y-66666504D01*
X96636705Y-66605519D01*
X96633941Y-66596363D01*
X96576229Y-66409925D01*
X96552170Y-66352692D01*
X96528913Y-66295127D01*
X96524423Y-66286682D01*
X96431598Y-66115006D01*
X96396878Y-66063532D01*
X96362883Y-66011582D01*
X96356838Y-66004170D01*
X96232435Y-65853793D01*
X96188362Y-65810027D01*
X96144943Y-65765689D01*
X96137574Y-65759592D01*
X95986332Y-65636242D01*
X95934614Y-65601881D01*
X95883393Y-65566809D01*
X95874980Y-65562260D01*
X95702657Y-65470635D01*
X95645261Y-65446978D01*
X95588193Y-65422519D01*
X95579057Y-65419690D01*
X95392220Y-65363281D01*
X95331302Y-65351219D01*
X95270590Y-65338314D01*
X95261078Y-65337314D01*
X95066845Y-65318269D01*
X95066837Y-65318269D01*
X95033647Y-65315000D01*
X82966353Y-65315000D01*
X82937045Y-65317887D01*
X82930933Y-65317844D01*
X82921415Y-65318777D01*
X82727318Y-65339178D01*
X82666504Y-65351661D01*
X82605519Y-65363295D01*
X82596363Y-65366059D01*
X82409925Y-65423771D01*
X82352692Y-65447830D01*
X82295127Y-65471087D01*
X82286682Y-65475577D01*
X82115006Y-65568402D01*
X82063532Y-65603122D01*
X82011582Y-65637117D01*
X82004170Y-65643162D01*
X81853793Y-65767565D01*
X81810027Y-65811638D01*
X81765689Y-65855057D01*
X81759592Y-65862426D01*
X81636242Y-66013668D01*
X81601881Y-66065386D01*
X81566809Y-66116607D01*
X81562260Y-66125020D01*
X81470635Y-66297343D01*
X81446978Y-66354739D01*
X81422519Y-66411807D01*
X81419690Y-66420943D01*
X81363281Y-66607780D01*
X81351219Y-66668698D01*
X81338314Y-66729410D01*
X81337314Y-66738922D01*
X81318269Y-66933155D01*
X81318269Y-66933173D01*
X81315001Y-66966353D01*
X81315000Y-79033646D01*
X78685000Y-79033646D01*
X78685000Y-63329117D01*
X96765000Y-63329117D01*
X96765000Y-63670883D01*
X96831675Y-64006081D01*
X96962463Y-64321831D01*
X97152337Y-64605998D01*
X97394002Y-64847663D01*
X97678169Y-65037537D01*
X97993919Y-65168325D01*
X98329117Y-65235000D01*
X98670883Y-65235000D01*
X99006081Y-65168325D01*
X99321831Y-65037537D01*
X99605998Y-64847663D01*
X99847663Y-64605998D01*
X100037537Y-64321831D01*
X100168325Y-64006081D01*
X100235000Y-63670883D01*
X100235000Y-63329117D01*
X153765000Y-63329117D01*
X153765000Y-63670883D01*
X153831675Y-64006081D01*
X153962463Y-64321831D01*
X154152337Y-64605998D01*
X154394002Y-64847663D01*
X154678169Y-65037537D01*
X154993919Y-65168325D01*
X155329117Y-65235000D01*
X155670883Y-65235000D01*
X156006081Y-65168325D01*
X156321831Y-65037537D01*
X156605998Y-64847663D01*
X156847663Y-64605998D01*
X157037537Y-64321831D01*
X157168325Y-64006081D01*
X157235000Y-63670883D01*
X157235000Y-63329117D01*
X157168325Y-62993919D01*
X157037537Y-62678169D01*
X156847663Y-62394002D01*
X156605998Y-62152337D01*
X156321831Y-61962463D01*
X156006081Y-61831675D01*
X155670883Y-61765000D01*
X155329117Y-61765000D01*
X154993919Y-61831675D01*
X154678169Y-61962463D01*
X154394002Y-62152337D01*
X154152337Y-62394002D01*
X153962463Y-62678169D01*
X153831675Y-62993919D01*
X153765000Y-63329117D01*
X100235000Y-63329117D01*
X100168325Y-62993919D01*
X100037537Y-62678169D01*
X99847663Y-62394002D01*
X99605998Y-62152337D01*
X99321831Y-61962463D01*
X99006081Y-61831675D01*
X98670883Y-61765000D01*
X98329117Y-61765000D01*
X97993919Y-61831675D01*
X97678169Y-61962463D01*
X97394002Y-62152337D01*
X97152337Y-62394002D01*
X96962463Y-62678169D01*
X96831675Y-62993919D01*
X96765000Y-63329117D01*
X78685000Y-63329117D01*
X78685000Y-60033646D01*
X81315000Y-60033646D01*
X81317887Y-60062954D01*
X81317844Y-60069066D01*
X81318777Y-60078585D01*
X81339178Y-60272682D01*
X81351661Y-60333496D01*
X81363295Y-60394481D01*
X81366059Y-60403637D01*
X81423771Y-60590075D01*
X81447818Y-60647279D01*
X81471087Y-60704873D01*
X81475577Y-60713317D01*
X81568402Y-60884994D01*
X81603122Y-60936468D01*
X81637117Y-60988418D01*
X81643161Y-60995829D01*
X81767565Y-61146207D01*
X81811638Y-61189973D01*
X81855057Y-61234311D01*
X81862426Y-61240408D01*
X82013668Y-61363758D01*
X82065397Y-61398126D01*
X82116608Y-61433191D01*
X82125016Y-61437737D01*
X82125020Y-61437740D01*
X82125024Y-61437742D01*
X82297343Y-61529366D01*
X82354739Y-61553022D01*
X82411807Y-61577482D01*
X82420944Y-61580310D01*
X82607780Y-61636719D01*
X82668690Y-61648780D01*
X82729409Y-61661686D01*
X82738921Y-61662686D01*
X82933155Y-61681731D01*
X82933163Y-61681731D01*
X82966353Y-61685000D01*
X95033647Y-61685000D01*
X95062955Y-61682113D01*
X95069066Y-61682156D01*
X95078585Y-61681223D01*
X95272682Y-61660822D01*
X95333496Y-61648339D01*
X95394481Y-61636705D01*
X95403637Y-61633941D01*
X95590075Y-61576229D01*
X95647279Y-61552182D01*
X95704873Y-61528913D01*
X95713317Y-61524423D01*
X95884994Y-61431598D01*
X95936468Y-61396878D01*
X95988418Y-61362883D01*
X95995829Y-61356839D01*
X96146207Y-61232435D01*
X96189973Y-61188362D01*
X96234311Y-61144943D01*
X96240408Y-61137574D01*
X96363758Y-60986332D01*
X96398126Y-60934603D01*
X96433191Y-60883392D01*
X96437739Y-60874981D01*
X96437740Y-60874980D01*
X96437742Y-60874976D01*
X96529366Y-60702657D01*
X96553022Y-60645261D01*
X96577482Y-60588193D01*
X96580310Y-60579056D01*
X96636719Y-60392220D01*
X96648780Y-60331310D01*
X96661686Y-60270591D01*
X96662686Y-60261079D01*
X96681731Y-60066845D01*
X96681731Y-60066837D01*
X96685000Y-60033647D01*
X96685000Y-60033646D01*
X100315000Y-60033646D01*
X100317887Y-60062954D01*
X100317844Y-60069066D01*
X100318777Y-60078585D01*
X100339178Y-60272682D01*
X100351661Y-60333496D01*
X100363295Y-60394481D01*
X100366059Y-60403637D01*
X100423771Y-60590075D01*
X100447818Y-60647279D01*
X100471087Y-60704873D01*
X100475577Y-60713317D01*
X100568402Y-60884994D01*
X100603122Y-60936468D01*
X100637117Y-60988418D01*
X100643161Y-60995829D01*
X100767565Y-61146207D01*
X100811638Y-61189973D01*
X100855057Y-61234311D01*
X100862426Y-61240408D01*
X101013668Y-61363758D01*
X101065397Y-61398126D01*
X101116608Y-61433191D01*
X101125016Y-61437737D01*
X101125020Y-61437740D01*
X101125024Y-61437742D01*
X101297343Y-61529366D01*
X101354739Y-61553022D01*
X101411807Y-61577482D01*
X101420944Y-61580310D01*
X101607780Y-61636719D01*
X101668690Y-61648780D01*
X101729409Y-61661686D01*
X101738921Y-61662686D01*
X101933155Y-61681731D01*
X101933163Y-61681731D01*
X101966353Y-61685000D01*
X114033647Y-61685000D01*
X114062955Y-61682113D01*
X114069066Y-61682156D01*
X114078585Y-61681223D01*
X114272682Y-61660822D01*
X114333496Y-61648339D01*
X114394481Y-61636705D01*
X114403637Y-61633941D01*
X114590075Y-61576229D01*
X114647279Y-61552182D01*
X114704873Y-61528913D01*
X114713317Y-61524423D01*
X114884994Y-61431598D01*
X114936468Y-61396878D01*
X114988418Y-61362883D01*
X114995829Y-61356839D01*
X115146207Y-61232435D01*
X115189973Y-61188362D01*
X115234311Y-61144943D01*
X115240408Y-61137574D01*
X115363758Y-60986332D01*
X115398126Y-60934603D01*
X115433191Y-60883392D01*
X115437739Y-60874981D01*
X115437740Y-60874980D01*
X115437742Y-60874976D01*
X115529366Y-60702657D01*
X115553022Y-60645261D01*
X115577482Y-60588193D01*
X115580310Y-60579056D01*
X115636719Y-60392220D01*
X115648780Y-60331310D01*
X115661686Y-60270591D01*
X115662686Y-60261079D01*
X115681731Y-60066845D01*
X115681731Y-60066837D01*
X115685000Y-60033647D01*
X115685000Y-60033646D01*
X119315000Y-60033646D01*
X119317887Y-60062954D01*
X119317844Y-60069066D01*
X119318777Y-60078585D01*
X119339178Y-60272682D01*
X119351661Y-60333496D01*
X119363295Y-60394481D01*
X119366059Y-60403637D01*
X119423771Y-60590075D01*
X119447818Y-60647279D01*
X119471087Y-60704873D01*
X119475577Y-60713317D01*
X119568402Y-60884994D01*
X119603122Y-60936468D01*
X119637117Y-60988418D01*
X119643161Y-60995829D01*
X119767565Y-61146207D01*
X119811638Y-61189973D01*
X119855057Y-61234311D01*
X119862426Y-61240408D01*
X120013668Y-61363758D01*
X120065397Y-61398126D01*
X120116608Y-61433191D01*
X120125016Y-61437737D01*
X120125020Y-61437740D01*
X120125024Y-61437742D01*
X120297343Y-61529366D01*
X120354739Y-61553022D01*
X120411807Y-61577482D01*
X120420944Y-61580310D01*
X120607780Y-61636719D01*
X120668690Y-61648780D01*
X120729409Y-61661686D01*
X120738921Y-61662686D01*
X120933155Y-61681731D01*
X120933163Y-61681731D01*
X120966353Y-61685000D01*
X133033647Y-61685000D01*
X133062955Y-61682113D01*
X133069066Y-61682156D01*
X133078585Y-61681223D01*
X133272682Y-61660822D01*
X133333496Y-61648339D01*
X133394481Y-61636705D01*
X133403637Y-61633941D01*
X133590075Y-61576229D01*
X133647279Y-61552182D01*
X133704873Y-61528913D01*
X133713317Y-61524423D01*
X133884994Y-61431598D01*
X133936468Y-61396878D01*
X133988418Y-61362883D01*
X133995829Y-61356839D01*
X134146207Y-61232435D01*
X134189973Y-61188362D01*
X134234311Y-61144943D01*
X134240408Y-61137574D01*
X134363758Y-60986332D01*
X134398126Y-60934603D01*
X134433191Y-60883392D01*
X134437739Y-60874981D01*
X134437740Y-60874980D01*
X134437742Y-60874976D01*
X134529366Y-60702657D01*
X134553022Y-60645261D01*
X134577482Y-60588193D01*
X134580310Y-60579056D01*
X134636719Y-60392220D01*
X134648780Y-60331310D01*
X134661686Y-60270591D01*
X134662686Y-60261079D01*
X134681731Y-60066845D01*
X134681731Y-60066837D01*
X134685000Y-60033647D01*
X134685000Y-60033646D01*
X138315000Y-60033646D01*
X138317887Y-60062954D01*
X138317844Y-60069066D01*
X138318777Y-60078585D01*
X138339178Y-60272682D01*
X138351661Y-60333496D01*
X138363295Y-60394481D01*
X138366059Y-60403637D01*
X138423771Y-60590075D01*
X138447818Y-60647279D01*
X138471087Y-60704873D01*
X138475577Y-60713317D01*
X138568402Y-60884994D01*
X138603122Y-60936468D01*
X138637117Y-60988418D01*
X138643161Y-60995829D01*
X138767565Y-61146207D01*
X138811638Y-61189973D01*
X138855057Y-61234311D01*
X138862426Y-61240408D01*
X139013668Y-61363758D01*
X139065397Y-61398126D01*
X139116608Y-61433191D01*
X139125016Y-61437737D01*
X139125020Y-61437740D01*
X139125024Y-61437742D01*
X139297343Y-61529366D01*
X139354739Y-61553022D01*
X139411807Y-61577482D01*
X139420944Y-61580310D01*
X139607780Y-61636719D01*
X139668690Y-61648780D01*
X139729409Y-61661686D01*
X139738921Y-61662686D01*
X139933155Y-61681731D01*
X139933163Y-61681731D01*
X139966353Y-61685000D01*
X152033647Y-61685000D01*
X152062955Y-61682113D01*
X152069066Y-61682156D01*
X152078585Y-61681223D01*
X152272682Y-61660822D01*
X152333496Y-61648339D01*
X152394481Y-61636705D01*
X152403637Y-61633941D01*
X152590075Y-61576229D01*
X152647279Y-61552182D01*
X152704873Y-61528913D01*
X152713317Y-61524423D01*
X152884994Y-61431598D01*
X152936468Y-61396878D01*
X152988418Y-61362883D01*
X152995829Y-61356839D01*
X153146207Y-61232435D01*
X153189973Y-61188362D01*
X153234311Y-61144943D01*
X153240408Y-61137574D01*
X153363758Y-60986332D01*
X153398126Y-60934603D01*
X153433191Y-60883392D01*
X153437739Y-60874981D01*
X153437740Y-60874980D01*
X153437742Y-60874976D01*
X153529366Y-60702657D01*
X153553022Y-60645261D01*
X153577482Y-60588193D01*
X153580310Y-60579056D01*
X153636719Y-60392220D01*
X153648780Y-60331310D01*
X153661686Y-60270591D01*
X153662686Y-60261079D01*
X153681731Y-60066845D01*
X153681731Y-60066837D01*
X153685000Y-60033647D01*
X153685000Y-60033646D01*
X157315000Y-60033646D01*
X157317887Y-60062954D01*
X157317844Y-60069066D01*
X157318777Y-60078585D01*
X157339178Y-60272682D01*
X157351661Y-60333496D01*
X157363295Y-60394481D01*
X157366059Y-60403637D01*
X157423771Y-60590075D01*
X157447818Y-60647279D01*
X157471087Y-60704873D01*
X157475577Y-60713317D01*
X157568402Y-60884994D01*
X157603122Y-60936468D01*
X157637117Y-60988418D01*
X157643161Y-60995829D01*
X157767565Y-61146207D01*
X157811638Y-61189973D01*
X157855057Y-61234311D01*
X157862426Y-61240408D01*
X158013668Y-61363758D01*
X158065397Y-61398126D01*
X158116608Y-61433191D01*
X158125016Y-61437737D01*
X158125020Y-61437740D01*
X158125024Y-61437742D01*
X158297343Y-61529366D01*
X158354739Y-61553022D01*
X158411807Y-61577482D01*
X158420944Y-61580310D01*
X158607780Y-61636719D01*
X158668690Y-61648780D01*
X158729409Y-61661686D01*
X158738921Y-61662686D01*
X158933155Y-61681731D01*
X158933163Y-61681731D01*
X158966353Y-61685000D01*
X171033647Y-61685000D01*
X171062955Y-61682113D01*
X171069066Y-61682156D01*
X171078585Y-61681223D01*
X171272682Y-61660822D01*
X171333496Y-61648339D01*
X171394481Y-61636705D01*
X171403637Y-61633941D01*
X171590075Y-61576229D01*
X171647279Y-61552182D01*
X171704873Y-61528913D01*
X171713317Y-61524423D01*
X171884994Y-61431598D01*
X171936468Y-61396878D01*
X171988418Y-61362883D01*
X171995829Y-61356839D01*
X172146207Y-61232435D01*
X172189973Y-61188362D01*
X172234311Y-61144943D01*
X172240408Y-61137574D01*
X172363758Y-60986332D01*
X172398126Y-60934603D01*
X172433191Y-60883392D01*
X172437739Y-60874981D01*
X172437740Y-60874980D01*
X172437742Y-60874976D01*
X172529366Y-60702657D01*
X172553022Y-60645261D01*
X172577482Y-60588193D01*
X172580310Y-60579056D01*
X172636719Y-60392220D01*
X172648780Y-60331310D01*
X172661686Y-60270591D01*
X172662686Y-60261079D01*
X172681731Y-60066845D01*
X172681731Y-60066837D01*
X172685000Y-60033647D01*
X172685000Y-47966353D01*
X172682113Y-47937045D01*
X172682156Y-47930933D01*
X172681223Y-47921415D01*
X172660822Y-47727318D01*
X172648339Y-47666504D01*
X172636705Y-47605519D01*
X172633941Y-47596363D01*
X172576229Y-47409925D01*
X172552170Y-47352692D01*
X172528913Y-47295127D01*
X172524423Y-47286682D01*
X172431598Y-47115006D01*
X172396878Y-47063532D01*
X172362883Y-47011582D01*
X172356838Y-47004170D01*
X172232435Y-46853793D01*
X172188362Y-46810027D01*
X172144943Y-46765689D01*
X172137574Y-46759592D01*
X171986332Y-46636242D01*
X171934614Y-46601881D01*
X171883393Y-46566809D01*
X171874980Y-46562260D01*
X171702657Y-46470635D01*
X171645261Y-46446978D01*
X171588193Y-46422519D01*
X171579057Y-46419690D01*
X171392220Y-46363281D01*
X171331302Y-46351219D01*
X171270590Y-46338314D01*
X171261078Y-46337314D01*
X171066845Y-46318269D01*
X171066837Y-46318269D01*
X171033647Y-46315000D01*
X158966353Y-46315000D01*
X158937045Y-46317887D01*
X158930933Y-46317844D01*
X158921415Y-46318777D01*
X158727318Y-46339178D01*
X158666504Y-46351661D01*
X158605519Y-46363295D01*
X158596363Y-46366059D01*
X158409925Y-46423771D01*
X158352692Y-46447830D01*
X158295127Y-46471087D01*
X158286682Y-46475577D01*
X158115006Y-46568402D01*
X158063532Y-46603122D01*
X158011582Y-46637117D01*
X158004170Y-46643162D01*
X157853793Y-46767565D01*
X157810027Y-46811638D01*
X157765689Y-46855057D01*
X157759592Y-46862426D01*
X157636242Y-47013668D01*
X157601881Y-47065386D01*
X157566809Y-47116607D01*
X157562260Y-47125020D01*
X157470635Y-47297343D01*
X157446978Y-47354739D01*
X157422519Y-47411807D01*
X157419690Y-47420943D01*
X157363281Y-47607780D01*
X157351219Y-47668698D01*
X157338314Y-47729410D01*
X157337314Y-47738922D01*
X157318269Y-47933155D01*
X157318269Y-47933173D01*
X157315001Y-47966353D01*
X157315000Y-60033646D01*
X153685000Y-60033646D01*
X153685000Y-47966353D01*
X153682113Y-47937045D01*
X153682156Y-47930933D01*
X153681223Y-47921415D01*
X153660822Y-47727318D01*
X153648339Y-47666504D01*
X153636705Y-47605519D01*
X153633941Y-47596363D01*
X153576229Y-47409925D01*
X153552170Y-47352692D01*
X153528913Y-47295127D01*
X153524423Y-47286682D01*
X153431598Y-47115006D01*
X153396878Y-47063532D01*
X153362883Y-47011582D01*
X153356838Y-47004170D01*
X153232435Y-46853793D01*
X153188362Y-46810027D01*
X153144943Y-46765689D01*
X153137574Y-46759592D01*
X152986332Y-46636242D01*
X152934614Y-46601881D01*
X152883393Y-46566809D01*
X152874980Y-46562260D01*
X152702657Y-46470635D01*
X152645261Y-46446978D01*
X152588193Y-46422519D01*
X152579057Y-46419690D01*
X152392220Y-46363281D01*
X152331302Y-46351219D01*
X152270590Y-46338314D01*
X152261078Y-46337314D01*
X152066845Y-46318269D01*
X152066837Y-46318269D01*
X152033647Y-46315000D01*
X139966353Y-46315000D01*
X139937045Y-46317887D01*
X139930933Y-46317844D01*
X139921415Y-46318777D01*
X139727318Y-46339178D01*
X139666504Y-46351661D01*
X139605519Y-46363295D01*
X139596363Y-46366059D01*
X139409925Y-46423771D01*
X139352692Y-46447830D01*
X139295127Y-46471087D01*
X139286682Y-46475577D01*
X139115006Y-46568402D01*
X139063532Y-46603122D01*
X139011582Y-46637117D01*
X139004170Y-46643162D01*
X138853793Y-46767565D01*
X138810027Y-46811638D01*
X138765689Y-46855057D01*
X138759592Y-46862426D01*
X138636242Y-47013668D01*
X138601881Y-47065386D01*
X138566809Y-47116607D01*
X138562260Y-47125020D01*
X138470635Y-47297343D01*
X138446978Y-47354739D01*
X138422519Y-47411807D01*
X138419690Y-47420943D01*
X138363281Y-47607780D01*
X138351219Y-47668698D01*
X138338314Y-47729410D01*
X138337314Y-47738922D01*
X138318269Y-47933155D01*
X138318269Y-47933173D01*
X138315001Y-47966353D01*
X138315000Y-60033646D01*
X134685000Y-60033646D01*
X134685000Y-47966353D01*
X134682113Y-47937045D01*
X134682156Y-47930933D01*
X134681223Y-47921415D01*
X134660822Y-47727318D01*
X134648339Y-47666504D01*
X134636705Y-47605519D01*
X134633941Y-47596363D01*
X134576229Y-47409925D01*
X134552170Y-47352692D01*
X134528913Y-47295127D01*
X134524423Y-47286682D01*
X134431598Y-47115006D01*
X134396878Y-47063532D01*
X134362883Y-47011582D01*
X134356838Y-47004170D01*
X134232435Y-46853793D01*
X134188362Y-46810027D01*
X134144943Y-46765689D01*
X134137574Y-46759592D01*
X133986332Y-46636242D01*
X133934614Y-46601881D01*
X133883393Y-46566809D01*
X133874980Y-46562260D01*
X133702657Y-46470635D01*
X133645261Y-46446978D01*
X133588193Y-46422519D01*
X133579057Y-46419690D01*
X133392220Y-46363281D01*
X133331302Y-46351219D01*
X133270590Y-46338314D01*
X133261078Y-46337314D01*
X133066845Y-46318269D01*
X133066837Y-46318269D01*
X133033647Y-46315000D01*
X120966353Y-46315000D01*
X120937045Y-46317887D01*
X120930933Y-46317844D01*
X120921415Y-46318777D01*
X120727318Y-46339178D01*
X120666504Y-46351661D01*
X120605519Y-46363295D01*
X120596363Y-46366059D01*
X120409925Y-46423771D01*
X120352692Y-46447830D01*
X120295127Y-46471087D01*
X120286682Y-46475577D01*
X120115006Y-46568402D01*
X120063532Y-46603122D01*
X120011582Y-46637117D01*
X120004170Y-46643162D01*
X119853793Y-46767565D01*
X119810027Y-46811638D01*
X119765689Y-46855057D01*
X119759592Y-46862426D01*
X119636242Y-47013668D01*
X119601881Y-47065386D01*
X119566809Y-47116607D01*
X119562260Y-47125020D01*
X119470635Y-47297343D01*
X119446978Y-47354739D01*
X119422519Y-47411807D01*
X119419690Y-47420943D01*
X119363281Y-47607780D01*
X119351219Y-47668698D01*
X119338314Y-47729410D01*
X119337314Y-47738922D01*
X119318269Y-47933155D01*
X119318269Y-47933173D01*
X119315001Y-47966353D01*
X119315000Y-60033646D01*
X115685000Y-60033646D01*
X115685000Y-47966353D01*
X115682113Y-47937045D01*
X115682156Y-47930933D01*
X115681223Y-47921415D01*
X115660822Y-47727318D01*
X115648339Y-47666504D01*
X115636705Y-47605519D01*
X115633941Y-47596363D01*
X115576229Y-47409925D01*
X115552170Y-47352692D01*
X115528913Y-47295127D01*
X115524423Y-47286682D01*
X115431598Y-47115006D01*
X115396878Y-47063532D01*
X115362883Y-47011582D01*
X115356838Y-47004170D01*
X115232435Y-46853793D01*
X115188362Y-46810027D01*
X115144943Y-46765689D01*
X115137574Y-46759592D01*
X114986332Y-46636242D01*
X114934614Y-46601881D01*
X114883393Y-46566809D01*
X114874980Y-46562260D01*
X114702657Y-46470635D01*
X114645261Y-46446978D01*
X114588193Y-46422519D01*
X114579057Y-46419690D01*
X114392220Y-46363281D01*
X114331302Y-46351219D01*
X114270590Y-46338314D01*
X114261078Y-46337314D01*
X114066845Y-46318269D01*
X114066837Y-46318269D01*
X114033647Y-46315000D01*
X101966353Y-46315000D01*
X101937045Y-46317887D01*
X101930933Y-46317844D01*
X101921415Y-46318777D01*
X101727318Y-46339178D01*
X101666504Y-46351661D01*
X101605519Y-46363295D01*
X101596363Y-46366059D01*
X101409925Y-46423771D01*
X101352692Y-46447830D01*
X101295127Y-46471087D01*
X101286682Y-46475577D01*
X101115006Y-46568402D01*
X101063532Y-46603122D01*
X101011582Y-46637117D01*
X101004170Y-46643162D01*
X100853793Y-46767565D01*
X100810027Y-46811638D01*
X100765689Y-46855057D01*
X100759592Y-46862426D01*
X100636242Y-47013668D01*
X100601881Y-47065386D01*
X100566809Y-47116607D01*
X100562260Y-47125020D01*
X100470635Y-47297343D01*
X100446978Y-47354739D01*
X100422519Y-47411807D01*
X100419690Y-47420943D01*
X100363281Y-47607780D01*
X100351219Y-47668698D01*
X100338314Y-47729410D01*
X100337314Y-47738922D01*
X100318269Y-47933155D01*
X100318269Y-47933173D01*
X100315001Y-47966353D01*
X100315000Y-60033646D01*
X96685000Y-60033646D01*
X96685000Y-47966353D01*
X96682113Y-47937045D01*
X96682156Y-47930933D01*
X96681223Y-47921415D01*
X96660822Y-47727318D01*
X96648339Y-47666504D01*
X96636705Y-47605519D01*
X96633941Y-47596363D01*
X96576229Y-47409925D01*
X96552170Y-47352692D01*
X96528913Y-47295127D01*
X96524423Y-47286682D01*
X96431598Y-47115006D01*
X96396878Y-47063532D01*
X96362883Y-47011582D01*
X96356838Y-47004170D01*
X96232435Y-46853793D01*
X96188362Y-46810027D01*
X96144943Y-46765689D01*
X96137574Y-46759592D01*
X95986332Y-46636242D01*
X95934614Y-46601881D01*
X95883393Y-46566809D01*
X95874980Y-46562260D01*
X95702657Y-46470635D01*
X95645261Y-46446978D01*
X95588193Y-46422519D01*
X95579057Y-46419690D01*
X95392220Y-46363281D01*
X95331302Y-46351219D01*
X95270590Y-46338314D01*
X95261078Y-46337314D01*
X95066845Y-46318269D01*
X95066837Y-46318269D01*
X95033647Y-46315000D01*
X82966353Y-46315000D01*
X82937045Y-46317887D01*
X82930933Y-46317844D01*
X82921415Y-46318777D01*
X82727318Y-46339178D01*
X82666504Y-46351661D01*
X82605519Y-46363295D01*
X82596363Y-46366059D01*
X82409925Y-46423771D01*
X82352692Y-46447830D01*
X82295127Y-46471087D01*
X82286682Y-46475577D01*
X82115006Y-46568402D01*
X82063532Y-46603122D01*
X82011582Y-46637117D01*
X82004170Y-46643162D01*
X81853793Y-46767565D01*
X81810027Y-46811638D01*
X81765689Y-46855057D01*
X81759592Y-46862426D01*
X81636242Y-47013668D01*
X81601881Y-47065386D01*
X81566809Y-47116607D01*
X81562260Y-47125020D01*
X81470635Y-47297343D01*
X81446978Y-47354739D01*
X81422519Y-47411807D01*
X81419690Y-47420943D01*
X81363281Y-47607780D01*
X81351219Y-47668698D01*
X81338314Y-47729410D01*
X81337314Y-47738922D01*
X81318269Y-47933155D01*
X81318269Y-47933173D01*
X81315001Y-47966353D01*
X81315000Y-60033646D01*
X78685000Y-60033646D01*
X78685000Y-45033505D01*
X78713267Y-44745218D01*
X78787259Y-44500145D01*
X78907443Y-44274110D01*
X79069248Y-44075719D01*
X79266497Y-43912540D01*
X79491687Y-43790780D01*
X79736247Y-43715076D01*
X80022398Y-43685000D01*
X173966495Y-43685000D01*
X174254782Y-43713267D01*
G37*
G04 #@! TD.AperFunction*
M02*
