G04 #@! TF.GenerationSoftware,KiCad,Pcbnew,(5.1.10)-1*
G04 #@! TF.CreationDate,2021-08-15T20:32:39-04:00*
G04 #@! TF.ProjectId,plate,706c6174-652e-46b6-9963-61645f706362,rev?*
G04 #@! TF.SameCoordinates,Original*
G04 #@! TF.FileFunction,Profile,NP*
%FSLAX46Y46*%
G04 Gerber Fmt 4.6, Leading zero omitted, Abs format (unit mm)*
G04 Created by KiCad (PCBNEW (5.1.10)-1) date 2021-08-15 20:32:39*
%MOMM*%
%LPD*%
G01*
G04 APERTURE LIST*
G04 #@! TA.AperFunction,Profile*
%ADD10C,0.100000*%
G04 #@! TD*
G04 APERTURE END LIST*
D10*
X80000000Y-122000000D02*
G75*
G02*
X78000000Y-120000000I0J2000000D01*
G01*
X114000000Y-122000000D02*
G75*
G02*
X116000000Y-124000000I0J-2000000D01*
G01*
X118000000Y-141000000D02*
G75*
G02*
X116000000Y-139000000I0J2000000D01*
G01*
X176000000Y-139000000D02*
G75*
G02*
X174000000Y-141000000I-2000000J0D01*
G01*
X174000000Y-43000000D02*
G75*
G02*
X176000000Y-45000000I0J-2000000D01*
G01*
X78000000Y-45000000D02*
G75*
G02*
X80000000Y-43000000I2000000J0D01*
G01*
X159000000Y-137000000D02*
G75*
G02*
X158000000Y-136000000I0J1000000D01*
G01*
X172000000Y-136000000D02*
G75*
G02*
X171000000Y-137000000I-1000000J0D01*
G01*
X171000000Y-137000000D02*
X159000000Y-137000000D01*
X172000000Y-124000000D02*
X172000000Y-136000000D01*
X158000000Y-136000000D02*
X158000000Y-124000000D01*
X158000000Y-124000000D02*
G75*
G02*
X159000000Y-123000000I1000000J0D01*
G01*
X159000000Y-123000000D02*
X171000000Y-123000000D01*
X171000000Y-123000000D02*
G75*
G02*
X172000000Y-124000000I0J-1000000D01*
G01*
X159000000Y-118000000D02*
G75*
G02*
X158000000Y-117000000I0J1000000D01*
G01*
X159000000Y-104000000D02*
X171000000Y-104000000D01*
X171000000Y-118000000D02*
X159000000Y-118000000D01*
X172000000Y-117000000D02*
G75*
G02*
X171000000Y-118000000I-1000000J0D01*
G01*
X158000000Y-105000000D02*
G75*
G02*
X159000000Y-104000000I1000000J0D01*
G01*
X171000000Y-104000000D02*
G75*
G02*
X172000000Y-105000000I0J-1000000D01*
G01*
X158000000Y-117000000D02*
X158000000Y-105000000D01*
X172000000Y-105000000D02*
X172000000Y-117000000D01*
X140000000Y-118000000D02*
G75*
G02*
X139000000Y-117000000I0J1000000D01*
G01*
X140000000Y-104000000D02*
X152000000Y-104000000D01*
X153000000Y-117000000D02*
G75*
G02*
X152000000Y-118000000I-1000000J0D01*
G01*
X139000000Y-105000000D02*
G75*
G02*
X140000000Y-104000000I1000000J0D01*
G01*
X152000000Y-104000000D02*
G75*
G02*
X153000000Y-105000000I0J-1000000D01*
G01*
X139000000Y-117000000D02*
X139000000Y-105000000D01*
X153000000Y-105000000D02*
X153000000Y-117000000D01*
X152000000Y-118000000D02*
X140000000Y-118000000D01*
X140000000Y-137000000D02*
G75*
G02*
X139000000Y-136000000I0J1000000D01*
G01*
X140000000Y-123000000D02*
X152000000Y-123000000D01*
X153000000Y-136000000D02*
G75*
G02*
X152000000Y-137000000I-1000000J0D01*
G01*
X139000000Y-124000000D02*
G75*
G02*
X140000000Y-123000000I1000000J0D01*
G01*
X152000000Y-123000000D02*
G75*
G02*
X153000000Y-124000000I0J-1000000D01*
G01*
X139000000Y-136000000D02*
X139000000Y-124000000D01*
X153000000Y-124000000D02*
X153000000Y-136000000D01*
X152000000Y-137000000D02*
X140000000Y-137000000D01*
X121000000Y-137000000D02*
G75*
G02*
X120000000Y-136000000I0J1000000D01*
G01*
X134000000Y-124000000D02*
X134000000Y-136000000D01*
X121000000Y-123000000D02*
X133000000Y-123000000D01*
X134000000Y-136000000D02*
G75*
G02*
X133000000Y-137000000I-1000000J0D01*
G01*
X133000000Y-123000000D02*
G75*
G02*
X134000000Y-124000000I0J-1000000D01*
G01*
X133000000Y-137000000D02*
X121000000Y-137000000D01*
X120000000Y-136000000D02*
X120000000Y-124000000D01*
X120000000Y-124000000D02*
G75*
G02*
X121000000Y-123000000I1000000J0D01*
G01*
X133000000Y-104000000D02*
G75*
G02*
X134000000Y-105000000I0J-1000000D01*
G01*
X120000000Y-117000000D02*
X120000000Y-105000000D01*
X134000000Y-117000000D02*
G75*
G02*
X133000000Y-118000000I-1000000J0D01*
G01*
X121000000Y-118000000D02*
G75*
G02*
X120000000Y-117000000I0J1000000D01*
G01*
X120000000Y-105000000D02*
G75*
G02*
X121000000Y-104000000I1000000J0D01*
G01*
X134000000Y-105000000D02*
X134000000Y-117000000D01*
X133000000Y-118000000D02*
X121000000Y-118000000D01*
X121000000Y-104000000D02*
X133000000Y-104000000D01*
X115000000Y-117000000D02*
G75*
G02*
X114000000Y-118000000I-1000000J0D01*
G01*
X115000000Y-105000000D02*
X115000000Y-117000000D01*
X101000000Y-117000000D02*
X101000000Y-105000000D01*
X114000000Y-104000000D02*
G75*
G02*
X115000000Y-105000000I0J-1000000D01*
G01*
X101000000Y-105000000D02*
G75*
G02*
X102000000Y-104000000I1000000J0D01*
G01*
X102000000Y-118000000D02*
G75*
G02*
X101000000Y-117000000I0J1000000D01*
G01*
X114000000Y-118000000D02*
X102000000Y-118000000D01*
X102000000Y-104000000D02*
X114000000Y-104000000D01*
X83000000Y-104000000D02*
X95000000Y-104000000D01*
X96000000Y-105000000D02*
X96000000Y-117000000D01*
X95000000Y-104000000D02*
G75*
G02*
X96000000Y-105000000I0J-1000000D01*
G01*
X95000000Y-118000000D02*
X83000000Y-118000000D01*
X96000000Y-117000000D02*
G75*
G02*
X95000000Y-118000000I-1000000J0D01*
G01*
X82000000Y-105000000D02*
G75*
G02*
X83000000Y-104000000I1000000J0D01*
G01*
X82000000Y-117000000D02*
X82000000Y-105000000D01*
X83000000Y-118000000D02*
G75*
G02*
X82000000Y-117000000I0J1000000D01*
G01*
X96000000Y-86000000D02*
X96000000Y-98000000D01*
X82000000Y-98000000D02*
X82000000Y-86000000D01*
X83000000Y-99000000D02*
G75*
G02*
X82000000Y-98000000I0J1000000D01*
G01*
X96000000Y-98000000D02*
G75*
G02*
X95000000Y-99000000I-1000000J0D01*
G01*
X83000000Y-85000000D02*
X95000000Y-85000000D01*
X82000000Y-86000000D02*
G75*
G02*
X83000000Y-85000000I1000000J0D01*
G01*
X95000000Y-99000000D02*
X83000000Y-99000000D01*
X95000000Y-85000000D02*
G75*
G02*
X96000000Y-86000000I0J-1000000D01*
G01*
X115000000Y-86000000D02*
X115000000Y-98000000D01*
X102000000Y-85000000D02*
X114000000Y-85000000D01*
X101000000Y-86000000D02*
G75*
G02*
X102000000Y-85000000I1000000J0D01*
G01*
X115000000Y-98000000D02*
G75*
G02*
X114000000Y-99000000I-1000000J0D01*
G01*
X114000000Y-85000000D02*
G75*
G02*
X115000000Y-86000000I0J-1000000D01*
G01*
X114000000Y-99000000D02*
X102000000Y-99000000D01*
X102000000Y-99000000D02*
G75*
G02*
X101000000Y-98000000I0J1000000D01*
G01*
X101000000Y-98000000D02*
X101000000Y-86000000D01*
X121000000Y-99000000D02*
G75*
G02*
X120000000Y-98000000I0J1000000D01*
G01*
X120000000Y-98000000D02*
X120000000Y-86000000D01*
X134000000Y-86000000D02*
X134000000Y-98000000D01*
X121000000Y-85000000D02*
X133000000Y-85000000D01*
X120000000Y-86000000D02*
G75*
G02*
X121000000Y-85000000I1000000J0D01*
G01*
X134000000Y-98000000D02*
G75*
G02*
X133000000Y-99000000I-1000000J0D01*
G01*
X133000000Y-85000000D02*
G75*
G02*
X134000000Y-86000000I0J-1000000D01*
G01*
X133000000Y-99000000D02*
X121000000Y-99000000D01*
X139000000Y-98000000D02*
X139000000Y-86000000D01*
X153000000Y-86000000D02*
X153000000Y-98000000D01*
X140000000Y-85000000D02*
X152000000Y-85000000D01*
X139000000Y-86000000D02*
G75*
G02*
X140000000Y-85000000I1000000J0D01*
G01*
X153000000Y-98000000D02*
G75*
G02*
X152000000Y-99000000I-1000000J0D01*
G01*
X152000000Y-99000000D02*
X140000000Y-99000000D01*
X140000000Y-99000000D02*
G75*
G02*
X139000000Y-98000000I0J1000000D01*
G01*
X152000000Y-85000000D02*
G75*
G02*
X153000000Y-86000000I0J-1000000D01*
G01*
X172000000Y-98000000D02*
G75*
G02*
X171000000Y-99000000I-1000000J0D01*
G01*
X172000000Y-86000000D02*
X172000000Y-98000000D01*
X159000000Y-85000000D02*
X171000000Y-85000000D01*
X158000000Y-98000000D02*
X158000000Y-86000000D01*
X171000000Y-99000000D02*
X159000000Y-99000000D01*
X159000000Y-99000000D02*
G75*
G02*
X158000000Y-98000000I0J1000000D01*
G01*
X171000000Y-85000000D02*
G75*
G02*
X172000000Y-86000000I0J-1000000D01*
G01*
X158000000Y-86000000D02*
G75*
G02*
X159000000Y-85000000I1000000J0D01*
G01*
X172000000Y-79000000D02*
G75*
G02*
X171000000Y-80000000I-1000000J0D01*
G01*
X158000000Y-67000000D02*
G75*
G02*
X159000000Y-66000000I1000000J0D01*
G01*
X172000000Y-67000000D02*
X172000000Y-79000000D01*
X158000000Y-79000000D02*
X158000000Y-67000000D01*
X171000000Y-66000000D02*
G75*
G02*
X172000000Y-67000000I0J-1000000D01*
G01*
X159000000Y-80000000D02*
G75*
G02*
X158000000Y-79000000I0J1000000D01*
G01*
X171000000Y-80000000D02*
X159000000Y-80000000D01*
X159000000Y-66000000D02*
X171000000Y-66000000D01*
X152000000Y-66000000D02*
G75*
G02*
X153000000Y-67000000I0J-1000000D01*
G01*
X139000000Y-79000000D02*
X139000000Y-67000000D01*
X140000000Y-80000000D02*
G75*
G02*
X139000000Y-79000000I0J1000000D01*
G01*
X153000000Y-79000000D02*
G75*
G02*
X152000000Y-80000000I-1000000J0D01*
G01*
X153000000Y-67000000D02*
X153000000Y-79000000D01*
X139000000Y-67000000D02*
G75*
G02*
X140000000Y-66000000I1000000J0D01*
G01*
X152000000Y-80000000D02*
X140000000Y-80000000D01*
X140000000Y-66000000D02*
X152000000Y-66000000D01*
X121000000Y-66000000D02*
X133000000Y-66000000D01*
X134000000Y-79000000D02*
G75*
G02*
X133000000Y-80000000I-1000000J0D01*
G01*
X121000000Y-80000000D02*
G75*
G02*
X120000000Y-79000000I0J1000000D01*
G01*
X133000000Y-80000000D02*
X121000000Y-80000000D01*
X120000000Y-79000000D02*
X120000000Y-67000000D01*
X120000000Y-67000000D02*
G75*
G02*
X121000000Y-66000000I1000000J0D01*
G01*
X134000000Y-67000000D02*
X134000000Y-79000000D01*
X133000000Y-66000000D02*
G75*
G02*
X134000000Y-67000000I0J-1000000D01*
G01*
X101000000Y-67000000D02*
G75*
G02*
X102000000Y-66000000I1000000J0D01*
G01*
X115000000Y-79000000D02*
G75*
G02*
X114000000Y-80000000I-1000000J0D01*
G01*
X101000000Y-79000000D02*
X101000000Y-67000000D01*
X114000000Y-80000000D02*
X102000000Y-80000000D01*
X102000000Y-66000000D02*
X114000000Y-66000000D01*
X102000000Y-80000000D02*
G75*
G02*
X101000000Y-79000000I0J1000000D01*
G01*
X115000000Y-67000000D02*
X115000000Y-79000000D01*
X114000000Y-66000000D02*
G75*
G02*
X115000000Y-67000000I0J-1000000D01*
G01*
X95000000Y-80000000D02*
X83000000Y-80000000D01*
X83000000Y-80000000D02*
G75*
G02*
X82000000Y-79000000I0J1000000D01*
G01*
X83000000Y-66000000D02*
X95000000Y-66000000D01*
X96000000Y-67000000D02*
X96000000Y-79000000D01*
X82000000Y-67000000D02*
G75*
G02*
X83000000Y-66000000I1000000J0D01*
G01*
X96000000Y-79000000D02*
G75*
G02*
X95000000Y-80000000I-1000000J0D01*
G01*
X95000000Y-66000000D02*
G75*
G02*
X96000000Y-67000000I0J-1000000D01*
G01*
X82000000Y-79000000D02*
X82000000Y-67000000D01*
X171000000Y-61000000D02*
X159000000Y-61000000D01*
X171000000Y-47000000D02*
G75*
G02*
X172000000Y-48000000I0J-1000000D01*
G01*
X158000000Y-60000000D02*
X158000000Y-48000000D01*
X159000000Y-47000000D02*
X171000000Y-47000000D01*
X172000000Y-48000000D02*
X172000000Y-60000000D01*
X158000000Y-48000000D02*
G75*
G02*
X159000000Y-47000000I1000000J0D01*
G01*
X159000000Y-61000000D02*
G75*
G02*
X158000000Y-60000000I0J1000000D01*
G01*
X172000000Y-60000000D02*
G75*
G02*
X171000000Y-61000000I-1000000J0D01*
G01*
X152000000Y-47000000D02*
G75*
G02*
X153000000Y-48000000I0J-1000000D01*
G01*
X152000000Y-61000000D02*
X140000000Y-61000000D01*
X140000000Y-47000000D02*
X152000000Y-47000000D01*
X139000000Y-48000000D02*
G75*
G02*
X140000000Y-47000000I1000000J0D01*
G01*
X153000000Y-48000000D02*
X153000000Y-60000000D01*
X139000000Y-60000000D02*
X139000000Y-48000000D01*
X140000000Y-61000000D02*
G75*
G02*
X139000000Y-60000000I0J1000000D01*
G01*
X153000000Y-60000000D02*
G75*
G02*
X152000000Y-61000000I-1000000J0D01*
G01*
X134000000Y-48000000D02*
X134000000Y-60000000D01*
X133000000Y-47000000D02*
G75*
G02*
X134000000Y-48000000I0J-1000000D01*
G01*
X120000000Y-48000000D02*
G75*
G02*
X121000000Y-47000000I1000000J0D01*
G01*
X120000000Y-60000000D02*
X120000000Y-48000000D01*
X121000000Y-47000000D02*
X133000000Y-47000000D01*
X121000000Y-61000000D02*
G75*
G02*
X120000000Y-60000000I0J1000000D01*
G01*
X134000000Y-60000000D02*
G75*
G02*
X133000000Y-61000000I-1000000J0D01*
G01*
X133000000Y-61000000D02*
X121000000Y-61000000D01*
X102000000Y-61000000D02*
G75*
G02*
X101000000Y-60000000I0J1000000D01*
G01*
X115000000Y-60000000D02*
G75*
G02*
X114000000Y-61000000I-1000000J0D01*
G01*
X101000000Y-48000000D02*
G75*
G02*
X102000000Y-47000000I1000000J0D01*
G01*
X114000000Y-47000000D02*
G75*
G02*
X115000000Y-48000000I0J-1000000D01*
G01*
X114000000Y-61000000D02*
X102000000Y-61000000D01*
X115000000Y-48000000D02*
X115000000Y-60000000D01*
X102000000Y-47000000D02*
X114000000Y-47000000D01*
X101000000Y-60000000D02*
X101000000Y-48000000D01*
X95000000Y-47000000D02*
G75*
G02*
X96000000Y-48000000I0J-1000000D01*
G01*
X96000000Y-60000000D02*
G75*
G02*
X95000000Y-61000000I-1000000J0D01*
G01*
X83000000Y-61000000D02*
G75*
G02*
X82000000Y-60000000I0J1000000D01*
G01*
X82000000Y-48000000D02*
G75*
G02*
X83000000Y-47000000I1000000J0D01*
G01*
X82000000Y-60000000D02*
X82000000Y-48000000D01*
X95000000Y-61000000D02*
X83000000Y-61000000D01*
X96000000Y-48000000D02*
X96000000Y-60000000D01*
X83000000Y-47000000D02*
X95000000Y-47000000D01*
X116000000Y-124000000D02*
X116000000Y-139000000D01*
X80000000Y-122000000D02*
X114000000Y-122000000D01*
X118000000Y-141000000D02*
X174000000Y-141000000D01*
X176000000Y-45000000D02*
X176000000Y-139000000D01*
X78000000Y-45000000D02*
X78000000Y-120000000D01*
X80000000Y-43000000D02*
X174000000Y-43000000D01*
M02*
