G04 #@! TF.GenerationSoftware,KiCad,Pcbnew,(5.1.10)-1*
G04 #@! TF.CreationDate,2021-08-15T20:32:39-04:00*
G04 #@! TF.ProjectId,plate,706c6174-652e-46b6-9963-61645f706362,rev?*
G04 #@! TF.SameCoordinates,Original*
G04 #@! TF.FileFunction,Legend,Bot*
G04 #@! TF.FilePolarity,Positive*
%FSLAX46Y46*%
G04 Gerber Fmt 4.6, Leading zero omitted, Abs format (unit mm)*
G04 Created by KiCad (PCBNEW (5.1.10)-1) date 2021-08-15 20:32:39*
%MOMM*%
%LPD*%
G01*
G04 APERTURE LIST*
%ADD10C,0.150000*%
%ADD11C,2.200000*%
%ADD12C,1.000000*%
G04 APERTURE END LIST*
D10*
X103509523Y-63952380D02*
X103509523Y-62952380D01*
X103176190Y-63666666D01*
X102842857Y-62952380D01*
X102842857Y-63952380D01*
X102414285Y-63047619D02*
X102366666Y-63000000D01*
X102271428Y-62952380D01*
X102033333Y-62952380D01*
X101938095Y-63000000D01*
X101890476Y-63047619D01*
X101842857Y-63142857D01*
X101842857Y-63238095D01*
X101890476Y-63380952D01*
X102461904Y-63952380D01*
X101842857Y-63952380D01*
X151609523Y-63952380D02*
X151609523Y-62952380D01*
X151276190Y-63666666D01*
X150942857Y-62952380D01*
X150942857Y-63952380D01*
X150514285Y-63047619D02*
X150466666Y-63000000D01*
X150371428Y-62952380D01*
X150133333Y-62952380D01*
X150038095Y-63000000D01*
X149990476Y-63047619D01*
X149942857Y-63142857D01*
X149942857Y-63238095D01*
X149990476Y-63380952D01*
X150561904Y-63952380D01*
X149942857Y-63952380D01*
X151509523Y-120752380D02*
X151509523Y-119752380D01*
X151176190Y-120466666D01*
X150842857Y-119752380D01*
X150842857Y-120752380D01*
X150414285Y-119847619D02*
X150366666Y-119800000D01*
X150271428Y-119752380D01*
X150033333Y-119752380D01*
X149938095Y-119800000D01*
X149890476Y-119847619D01*
X149842857Y-119942857D01*
X149842857Y-120038095D01*
X149890476Y-120180952D01*
X150461904Y-120752380D01*
X149842857Y-120752380D01*
X103909523Y-101652380D02*
X103909523Y-100652380D01*
X103576190Y-101366666D01*
X103242857Y-100652380D01*
X103242857Y-101652380D01*
X102814285Y-100747619D02*
X102766666Y-100700000D01*
X102671428Y-100652380D01*
X102433333Y-100652380D01*
X102338095Y-100700000D01*
X102290476Y-100747619D01*
X102242857Y-100842857D01*
X102242857Y-100938095D01*
X102290476Y-101080952D01*
X102861904Y-101652380D01*
X102242857Y-101652380D01*
X127361904Y-81900000D02*
X127457142Y-81852380D01*
X127600000Y-81852380D01*
X127742857Y-81900000D01*
X127838095Y-81995238D01*
X127885714Y-82090476D01*
X127933333Y-82280952D01*
X127933333Y-82423809D01*
X127885714Y-82614285D01*
X127838095Y-82709523D01*
X127742857Y-82804761D01*
X127600000Y-82852380D01*
X127504761Y-82852380D01*
X127361904Y-82804761D01*
X127314285Y-82757142D01*
X127314285Y-82423809D01*
X127504761Y-82423809D01*
X126885714Y-82852380D02*
X126885714Y-81852380D01*
X126314285Y-82852380D01*
X126314285Y-81852380D01*
X125838095Y-82852380D02*
X125838095Y-81852380D01*
X125600000Y-81852380D01*
X125457142Y-81900000D01*
X125361904Y-81995238D01*
X125314285Y-82090476D01*
X125266666Y-82280952D01*
X125266666Y-82423809D01*
X125314285Y-82614285D01*
X125361904Y-82709523D01*
X125457142Y-82804761D01*
X125600000Y-82852380D01*
X125838095Y-82852380D01*
X123286520Y-81296582D02*
X123334139Y-81344201D01*
X123286520Y-81391820D01*
X123238900Y-81344201D01*
X123286520Y-81296582D01*
X123286520Y-81391820D01*
%LPC*%
X155246414Y-71330911D02*
X155246414Y-70330911D01*
X156817842Y-70134482D02*
X153817842Y-70509482D01*
X153817842Y-71938053D01*
X156817842Y-73134482D02*
X156674985Y-72866625D01*
X156532128Y-72741625D01*
X156246414Y-72634482D01*
X155389271Y-72741625D01*
X155103557Y-72920196D01*
X154960700Y-73080911D01*
X154817842Y-73384482D01*
X154817842Y-73813053D01*
X154960700Y-74080911D01*
X155103557Y-74205911D01*
X155389271Y-74313053D01*
X156246414Y-74205911D01*
X156532128Y-74027339D01*
X156674985Y-73866625D01*
X156817842Y-73563053D01*
X156817842Y-73134482D01*
X156817842Y-75420196D02*
X154817842Y-75670196D01*
X155389271Y-75598768D02*
X155103557Y-75777339D01*
X154960700Y-75938053D01*
X154817842Y-76241625D01*
X154817842Y-76527339D01*
X156674985Y-79438053D02*
X156817842Y-79848768D01*
X156817842Y-80563053D01*
X156674985Y-80866625D01*
X156532128Y-81027339D01*
X156246414Y-81205911D01*
X155960700Y-81241625D01*
X155674985Y-81134482D01*
X155532128Y-81009482D01*
X155389271Y-80741625D01*
X155246414Y-80188053D01*
X155103557Y-79920196D01*
X154960700Y-79795196D01*
X154674985Y-79688053D01*
X154389271Y-79723768D01*
X154103557Y-79902339D01*
X153960700Y-80063053D01*
X153817842Y-80366625D01*
X153817842Y-81080911D01*
X153960700Y-81491625D01*
X156674985Y-83723768D02*
X156817842Y-83420196D01*
X156817842Y-82848768D01*
X156674985Y-82580911D01*
X156532128Y-82455911D01*
X156246414Y-82348768D01*
X155389271Y-82455911D01*
X155103557Y-82634482D01*
X154960700Y-82795196D01*
X154817842Y-83098768D01*
X154817842Y-83670196D01*
X154960700Y-83938053D01*
X156817842Y-84991625D02*
X154817842Y-85241625D01*
X153817842Y-85366625D02*
X153960700Y-85205911D01*
X154103557Y-85330911D01*
X153960700Y-85491625D01*
X153817842Y-85366625D01*
X154103557Y-85330911D01*
X156674985Y-87580911D02*
X156817842Y-87277339D01*
X156817842Y-86705911D01*
X156674985Y-86438053D01*
X156389271Y-86330911D01*
X155246414Y-86473768D01*
X154960700Y-86652339D01*
X154817842Y-86955911D01*
X154817842Y-87527339D01*
X154960700Y-87795196D01*
X155246414Y-87902339D01*
X155532128Y-87866625D01*
X155817842Y-86402339D01*
X154817842Y-89241625D02*
X156817842Y-88991625D01*
X155103557Y-89205911D02*
X154960700Y-89366625D01*
X154817842Y-89670196D01*
X154817842Y-90098768D01*
X154960700Y-90366625D01*
X155246414Y-90473768D01*
X156817842Y-90277339D01*
X156674985Y-93009482D02*
X156817842Y-92705911D01*
X156817842Y-92134482D01*
X156674985Y-91866625D01*
X156532128Y-91741625D01*
X156246414Y-91634482D01*
X155389271Y-91741625D01*
X155103557Y-91920196D01*
X154960700Y-92080911D01*
X154817842Y-92384482D01*
X154817842Y-92955911D01*
X154960700Y-93223768D01*
X156674985Y-95438053D02*
X156817842Y-95134482D01*
X156817842Y-94563053D01*
X156674985Y-94295196D01*
X156389271Y-94188053D01*
X155246414Y-94330911D01*
X154960700Y-94509482D01*
X154817842Y-94813053D01*
X154817842Y-95384482D01*
X154960700Y-95652339D01*
X155246414Y-95759482D01*
X155532128Y-95723768D01*
X155817842Y-94259482D01*
D11*
X155496260Y-120484900D03*
D12*
X130000000Y-82000000D03*
D11*
X98500000Y-101500000D03*
X98500000Y-63500000D03*
X155500000Y-63500000D03*
M02*
